<?xml version="1.0" encoding="UTF-8" standalone="no"?>
<svg
   xmlns:dc="http://purl.org/dc/elements/1.1/"
   xmlns:cc="http://creativecommons.org/ns#"
   xmlns:rdf="http://www.w3.org/1999/02/22-rdf-syntax-ns#"
   xmlns:svg="http://www.w3.org/2000/svg"
   xmlns="http://www.w3.org/2000/svg"
   xmlns:sodipodi="http://sodipodi.sourceforge.net/DTD/sodipodi-0.dtd"
   xmlns:inkscape="http://www.inkscape.org/namespaces/inkscape"
   viewBox="0 0 559.69318 674.88806"
   height="674.88806"
   width="559.69318"
   xml:space="preserve"
   id="svg2"
   version="1.1"
   sodipodi:docname="cartpole.svg"
   inkscape:version="0.92.5 (2060ec1f9f, 2020-04-08)"><sodipodi:namedview
     pagecolor="#ffffff"
     bordercolor="#666666"
     borderopacity="1"
     objecttolerance="10"
     gridtolerance="10"
     guidetolerance="10"
     inkscape:pageopacity="0"
     inkscape:pageshadow="2"
     inkscape:window-width="3952"
     inkscape:window-height="2176"
     id="namedview2925"
     showgrid="false"
     inkscape:zoom="2.797501"
     inkscape:cx="392.70723"
     inkscape:cy="323.58926"
     inkscape:window-x="144"
     inkscape:window-y="54"
     inkscape:window-maximized="1"
     inkscape:current-layer="g330" /><metadata
     id="metadata8"><rdf:RDF><cc:Work
         rdf:about=""><dc:format>image/svg+xml</dc:format><dc:type
           rdf:resource="http://purl.org/dc/dcmitype/StillImage" /></cc:Work></rdf:RDF></metadata><defs
     id="defs6"><clipPath
       id="clipPath20"
       clipPathUnits="userSpaceOnUse"><path
         id="path18"
         d="M 0.781,0.844 H 418.988 V 453.059 H 0.781 Z" /></clipPath><clipPath
       id="clipPath30"
       clipPathUnits="userSpaceOnUse"><path
         id="path28"
         d="M 0,0 H 420 V 507 H 0 Z" /></clipPath><clipPath
       id="clipPath42"
       clipPathUnits="userSpaceOnUse"><path
         id="path40"
         d="M 0,0 H 420 V 507 H 0 Z" /></clipPath><clipPath
       id="clipPath56"
       clipPathUnits="userSpaceOnUse"><path
         id="path54"
         d="M 0,0 H 419 V 506 H 0 Z" /></clipPath><clipPath
       id="clipPath62"
       clipPathUnits="userSpaceOnUse"><path
         id="path60"
         d="M 347.688,514.09 -47.805,368.602 89.551,-59.055 485.043,86.438 Z" /></clipPath><clipPath
       id="clipPath72"
       clipPathUnits="userSpaceOnUse"><path
         id="path70"
         d="M 0,0 H 420 V 507 H 0 Z" /></clipPath><clipPath
       id="clipPath84"
       clipPathUnits="userSpaceOnUse"><path
         id="path82"
         d="M 0,0 H 420 V 507 H 0 Z" /></clipPath><clipPath
       id="clipPath156"
       clipPathUnits="userSpaceOnUse"><path
         id="path154"
         d="m 207,490 h 5 v 16 h -5 z" /></clipPath><clipPath
       id="clipPath170"
       clipPathUnits="userSpaceOnUse"><path
         id="path168"
         d="m 230,490 h 5 v 16 h -5 z" /></clipPath><clipPath
       id="clipPath180"
       clipPathUnits="userSpaceOnUse"><path
         id="path178"
         d="M 0.781,0.844 H 418.988 V 453.059 H 0.781 Z" /></clipPath><clipPath
       id="clipPath190"
       clipPathUnits="userSpaceOnUse"><path
         id="path188"
         d="M 0,0 H 420 V 507 H 0 Z" /></clipPath><clipPath
       id="clipPath202"
       clipPathUnits="userSpaceOnUse"><path
         id="path200"
         d="M 0,0 H 420 V 507 H 0 Z" /></clipPath><clipPath
       id="clipPath216"
       clipPathUnits="userSpaceOnUse"><path
         id="path214"
         d="M 4.477,0.844 H 419 V 453.059 H 4.477 Z" /></clipPath><clipPath
       id="clipPath226"
       clipPathUnits="userSpaceOnUse"><path
         id="path224"
         d="M 0,0 H 420 V 507 H 0 Z" /></clipPath><clipPath
       id="clipPath238"
       clipPathUnits="userSpaceOnUse"><path
         id="path236"
         d="M 0,0 H 420 V 507 H 0 Z" /></clipPath><clipPath
       id="clipPath252"
       clipPathUnits="userSpaceOnUse"><path
         id="path250"
         d="M 0,0 H 419 V 506 H 0 Z" /></clipPath><clipPath
       id="clipPath258"
       clipPathUnits="userSpaceOnUse"><path
         id="path256"
         d="M 347.688,514.09 -47.805,368.602 89.551,-59.055 485.043,86.438 Z" /></clipPath><clipPath
       id="clipPath268"
       clipPathUnits="userSpaceOnUse"><path
         id="path266"
         d="M 0,0 H 420 V 507 H 0 Z" /></clipPath><clipPath
       id="clipPath280"
       clipPathUnits="userSpaceOnUse"><path
         id="path278"
         d="M 0,0 H 420 V 507 H 0 Z" /></clipPath><clipPath
       id="clipPath300"
       clipPathUnits="userSpaceOnUse"><path
         id="path298"
         d="m 418,0 h 1 v 454 h -1 z" /></clipPath><clipPath
       id="clipPath312"
       clipPathUnits="userSpaceOnUse"><path
         id="path310"
         d="m 0,452 h 419 v 2 H 0 Z" /></clipPath><clipPath
       id="clipPath324"
       clipPathUnits="userSpaceOnUse"><path
         id="path322"
         d="M 0,0 H 419 V 2 H 0 Z" /></clipPath><clipPath
       id="clipPath356"
       clipPathUnits="userSpaceOnUse"><path
         id="path354"
         d="m 289.18,208.297 h 10.129 v 6.688 H 289.18 Z" /></clipPath><clipPath
       id="clipPath366"
       clipPathUnits="userSpaceOnUse"><path
         id="path364"
         d="M 0,0 H 420 V 507 H 0 Z" /></clipPath></defs><g
     transform="matrix(1.3333333,0,0,1.3333333,0,1.4205535e-5)"
     id="g10"><g
       id="g12" /><g
       id="g14"><g
         clip-path="url(#clipPath20)"
         id="g16"><g
           id="g22"><g
             id="g24"><g
               clip-path="url(#clipPath30)"
               id="g26"><g
                 id="g32"><g
                   id="g34"><g
                     id="g36"><g
                       clip-path="url(#clipPath42)"
                       id="g38"><g
                         id="g44"><g
                           transform="scale(0.924802,1)"
                           id="g46"><path
                             id="path48"
                             style="fill:#a52a2a;fill-opacity:1;fill-rule:nonzero;stroke:#008000;stroke-width:4.22513008;stroke-linecap:butt;stroke-linejoin:miter;stroke-miterlimit:4;stroke-dasharray:none;stroke-opacity:1"
                             d="m 184.985,203.398 h 94.209 v 47.105 h -94.209 z" /></g></g></g></g></g></g></g></g></g></g></g><g
       id="g50"><g
         clip-path="url(#clipPath56)"
         id="g52"><g
           clip-path="url(#clipPath62)"
           id="g58"><g
             id="g64"><g
               id="g66"><g
                 clip-path="url(#clipPath72)"
                 id="g68"><g
                   id="g74"><g
                     id="g76"><g
                       id="g78"><g
                         clip-path="url(#clipPath84)"
                         id="g80"><g
                           id="g86"><g
                             transform="matrix(-0.924802,-0.340206,0.321182,-1,0,0)"
                             id="g88"><path
                               id="path90"
                               style="fill:#0000ff;fill-opacity:1;fill-rule:nonzero;stroke:#0000ff;stroke-width:1.99783504;stroke-linecap:butt;stroke-linejoin:round;stroke-miterlimit:4;stroke-dasharray:none;stroke-opacity:1"
                               d="m -271.923,63.529 c 4.499,10e-4 8.816,-1.788 12.001,-4.973 3.183,-3.18 4.969,-7.499 4.969,-11.999 0,-4.5 -1.787,-8.818 -4.97,-12.001 -3.184,-3.182 -7.5,-4.968 -11.999,-4.969 -4.502,0.001 -8.818,1.79 -12.001,4.97 -3.182,3.184 -4.969,7.499 -4.969,11.999 -0.004,4.502 1.787,8.818 4.97,12.001 3.18,3.184 7.497,4.973 11.999,4.972 z" /></g></g></g></g></g></g></g></g></g></g></g></g><g
       id="g92"><g
         transform="scale(0.924802,1)"
         id="g94"><path
           id="path96"
           style="fill:none;stroke:#000000;stroke-width:1.43559599;stroke-linecap:butt;stroke-linejoin:round;stroke-miterlimit:4;stroke-dasharray:none;stroke-opacity:1"
           d="m 42.526,453.059 v 6.281" /></g><path
         id="path98"
         style="fill:#000000;fill-opacity:1;fill-rule:nonzero;stroke:none"
         d="m 20.938,472.883 h 10.387 v 1.488 H 20.938 Z" /><path
         id="path100"
         style="fill:#000000;fill-opacity:1;fill-rule:nonzero;stroke:none"
         d="m 35.141,477.766 h 2.675 v -9.981 l -2.91,0.629 v -1.613 l 2.895,-0.629 h 1.637 v 11.594 h 2.671 v 1.488 h -6.968 z" /><path
         id="path102"
         style="fill:#000000;fill-opacity:1;fill-rule:nonzero;stroke:none"
         d="m 45.414,477.027 h 1.711 v 2.227 h -1.711 z" /><path
         id="path104"
         style="fill:#000000;fill-opacity:1;fill-rule:nonzero;stroke:none"
         d="m 54.191,467.336 c -0.843,0 -1.476,0.449 -1.902,1.348 -0.422,0.894 -0.633,2.242 -0.633,4.043 0,1.793 0.211,3.136 0.633,4.035 0.426,0.898 1.059,1.347 1.902,1.347 0.848,0 1.485,-0.449 1.907,-1.347 0.425,-0.899 0.64,-2.242 0.64,-4.035 0,-1.801 -0.215,-3.149 -0.64,-4.043 -0.422,-0.899 -1.059,-1.348 -1.907,-1.348 z m 0,-1.398 c 1.356,0 2.395,0.578 3.11,1.738 0.715,1.16 1.074,2.844 1.074,5.051 0,2.203 -0.359,3.882 -1.074,5.043 -0.715,1.16 -1.754,1.738 -3.11,1.738 -1.355,0 -2.39,-0.578 -3.105,-1.738 -0.719,-1.161 -1.074,-2.84 -1.074,-5.043 0,-2.207 0.355,-3.891 1.074,-5.051 0.715,-1.16 1.75,-1.738 3.105,-1.738 z" /><g
         transform="scale(0.924802,1)"
         id="g106"><path
           id="path108"
           style="fill:none;stroke:#000000;stroke-width:1.43559599;stroke-linecap:butt;stroke-linejoin:round;stroke-miterlimit:4;stroke-dasharray:none;stroke-opacity:1"
           d="m 136.735,453.059 v 6.281" /></g><path
         id="path110"
         style="fill:#000000;fill-opacity:1;fill-rule:nonzero;stroke:none"
         d="m 108.062,472.883 h 10.387 v 1.488 h -10.387 z" /><path
         id="path112"
         style="fill:#000000;fill-opacity:1;fill-rule:nonzero;stroke:none"
         d="m 125.484,467.336 c -0.843,0 -1.476,0.449 -1.902,1.348 -0.422,0.894 -0.633,2.242 -0.633,4.043 0,1.793 0.211,3.136 0.633,4.035 0.426,0.898 1.059,1.347 1.902,1.347 0.848,0 1.485,-0.449 1.907,-1.347 0.425,-0.899 0.64,-2.242 0.64,-4.035 0,-1.801 -0.215,-3.149 -0.64,-4.043 -0.422,-0.899 -1.059,-1.348 -1.907,-1.348 z m 0,-1.398 c 1.356,0 2.395,0.578 3.11,1.738 0.715,1.16 1.074,2.844 1.074,5.051 0,2.203 -0.359,3.882 -1.074,5.043 -0.715,1.16 -1.754,1.738 -3.11,1.738 -1.355,0 -2.39,-0.578 -3.105,-1.738 -0.719,-1.161 -1.074,-2.84 -1.074,-5.043 0,-2.207 0.355,-3.891 1.074,-5.051 0.715,-1.16 1.75,-1.738 3.105,-1.738 z" /><path
         id="path114"
         style="fill:#000000;fill-opacity:1;fill-rule:nonzero;stroke:none"
         d="m 132.543,477.027 h 1.711 v 2.227 h -1.711 z" /><path
         id="path116"
         style="fill:#000000;fill-opacity:1;fill-rule:nonzero;stroke:none"
         d="m 137.836,466.172 h 6.426 v 1.492 h -4.93 v 3.203 c 0.238,-0.086 0.477,-0.152 0.711,-0.195 0.238,-0.043 0.477,-0.067 0.719,-0.067 1.347,0 2.418,0.403 3.207,1.204 0.789,0.796 1.183,1.882 1.183,3.25 0,1.406 -0.406,2.5 -1.214,3.281 -0.813,0.781 -1.954,1.168 -3.43,1.168 -0.508,0 -1.024,-0.047 -1.551,-0.137 -0.527,-0.094 -1.07,-0.234 -1.633,-0.422 v -1.781 c 0.485,0.285 0.988,0.5 1.508,0.641 0.516,0.14 1.066,0.211 1.645,0.211 0.933,0 1.671,-0.266 2.218,-0.797 0.547,-0.532 0.821,-1.254 0.821,-2.164 0,-0.911 -0.274,-1.633 -0.821,-2.164 -0.547,-0.532 -1.285,-0.797 -2.218,-0.797 -0.438,0 -0.875,0.05 -1.313,0.156 -0.434,0.105 -0.875,0.266 -1.328,0.488 z" /><g
         transform="scale(0.924802,1)"
         id="g118"><path
           id="path120"
           style="fill:none;stroke:#000000;stroke-width:1.43559599;stroke-linecap:butt;stroke-linejoin:round;stroke-miterlimit:4;stroke-dasharray:none;stroke-opacity:1"
           d="m 230.945,453.059 v 6.281" /></g><path
         id="path122"
         style="fill:#000000;fill-opacity:1;fill-rule:nonzero;stroke:none"
         d="m 205.656,467.336 c -0.84,0 -1.472,0.449 -1.898,1.348 -0.426,0.894 -0.637,2.242 -0.637,4.043 0,1.793 0.211,3.136 0.637,4.035 0.426,0.898 1.058,1.347 1.898,1.347 0.852,0 1.489,-0.449 1.91,-1.347 0.426,-0.899 0.637,-2.242 0.637,-4.035 0,-1.801 -0.211,-3.149 -0.637,-4.043 -0.421,-0.899 -1.058,-1.348 -1.91,-1.348 z m 0,-1.398 c 1.36,0 2.395,0.578 3.11,1.738 0.718,1.16 1.074,2.844 1.074,5.051 0,2.203 -0.356,3.882 -1.074,5.043 -0.715,1.16 -1.75,1.738 -3.11,1.738 -1.351,0 -2.39,-0.578 -3.105,-1.738 -0.715,-1.161 -1.074,-2.84 -1.074,-5.043 0,-2.207 0.359,-3.891 1.074,-5.051 0.715,-1.16 1.754,-1.738 3.105,-1.738 z" /><path
         id="path124"
         style="fill:#000000;fill-opacity:1;fill-rule:nonzero;stroke:none"
         d="m 212.715,477.027 h 1.711 v 2.227 h -1.711 z" /><path
         id="path126"
         style="fill:#000000;fill-opacity:1;fill-rule:nonzero;stroke:none"
         d="m 221.492,467.336 c -0.844,0 -1.476,0.449 -1.902,1.348 -0.422,0.894 -0.633,2.242 -0.633,4.043 0,1.793 0.211,3.136 0.633,4.035 0.426,0.898 1.058,1.347 1.902,1.347 0.848,0 1.485,-0.449 1.91,-1.347 0.422,-0.899 0.637,-2.242 0.637,-4.035 0,-1.801 -0.215,-3.149 -0.637,-4.043 -0.425,-0.899 -1.062,-1.348 -1.91,-1.348 z m 0,-1.398 c 1.356,0 2.395,0.578 3.11,1.738 0.714,1.16 1.074,2.844 1.074,5.051 0,2.203 -0.36,3.882 -1.074,5.043 -0.715,1.16 -1.754,1.738 -3.11,1.738 -1.355,0 -2.39,-0.578 -3.105,-1.738 -0.719,-1.161 -1.075,-2.84 -1.075,-5.043 0,-2.207 0.356,-3.891 1.075,-5.051 0.715,-1.16 1.75,-1.738 3.105,-1.738 z" /><g
         transform="scale(0.924802,1)"
         id="g128"><path
           id="path130"
           style="fill:none;stroke:#000000;stroke-width:1.43559599;stroke-linecap:butt;stroke-linejoin:round;stroke-miterlimit:4;stroke-dasharray:none;stroke-opacity:1"
           d="m 325.158,453.059 v 6.281" /></g><path
         id="path132"
         style="fill:#000000;fill-opacity:1;fill-rule:nonzero;stroke:none"
         d="m 292.785,467.336 c -0.844,0 -1.476,0.449 -1.902,1.348 -0.422,0.894 -0.633,2.242 -0.633,4.043 0,1.793 0.211,3.136 0.633,4.035 0.426,0.898 1.058,1.347 1.902,1.347 0.848,0 1.485,-0.449 1.906,-1.347 0.426,-0.899 0.641,-2.242 0.641,-4.035 0,-1.801 -0.215,-3.149 -0.641,-4.043 -0.421,-0.899 -1.058,-1.348 -1.906,-1.348 z m 0,-1.398 c 1.356,0 2.395,0.578 3.11,1.738 0.714,1.16 1.074,2.844 1.074,5.051 0,2.203 -0.36,3.882 -1.074,5.043 -0.715,1.16 -1.754,1.738 -3.11,1.738 -1.355,0 -2.39,-0.578 -3.105,-1.738 -0.719,-1.161 -1.075,-2.84 -1.075,-5.043 0,-2.207 0.356,-3.891 1.075,-5.051 0.715,-1.16 1.75,-1.738 3.105,-1.738 z" /><path
         id="path134"
         style="fill:#000000;fill-opacity:1;fill-rule:nonzero;stroke:none"
         d="m 299.844,477.027 h 1.711 v 2.227 h -1.711 z" /><path
         id="path136"
         style="fill:#000000;fill-opacity:1;fill-rule:nonzero;stroke:none"
         d="m 305.137,466.172 h 6.425 v 1.492 h -4.929 v 3.203 c 0.238,-0.086 0.476,-0.152 0.711,-0.195 0.238,-0.043 0.48,-0.067 0.718,-0.067 1.348,0 2.418,0.403 3.208,1.204 0.789,0.796 1.183,1.882 1.183,3.25 0,1.406 -0.406,2.5 -1.215,3.281 -0.812,0.781 -1.953,1.168 -3.429,1.168 -0.508,0 -1.024,-0.047 -1.551,-0.137 -0.528,-0.094 -1.07,-0.234 -1.633,-0.422 v -1.781 c 0.484,0.285 0.988,0.5 1.508,0.641 0.515,0.14 1.066,0.211 1.644,0.211 0.934,0 1.672,-0.266 2.219,-0.797 0.547,-0.532 0.82,-1.254 0.82,-2.164 0,-0.911 -0.273,-1.633 -0.82,-2.164 -0.547,-0.532 -1.285,-0.797 -2.219,-0.797 -0.437,0 -0.875,0.05 -1.312,0.156 -0.434,0.105 -0.875,0.266 -1.328,0.488 z" /><g
         transform="scale(0.924802,1)"
         id="g138"><path
           id="path140"
           style="fill:none;stroke:#000000;stroke-width:1.43559599;stroke-linecap:butt;stroke-linejoin:round;stroke-miterlimit:4;stroke-dasharray:none;stroke-opacity:1"
           d="m 419.368,453.059 v 6.281" /></g><path
         id="path142"
         style="fill:#000000;fill-opacity:1;fill-rule:nonzero;stroke:none"
         d="m 376.695,477.766 h 2.672 v -9.981 l -2.906,0.629 v -1.613 l 2.891,-0.629 h 1.636 v 11.594 h 2.676 v 1.488 h -6.969 z" /><path
         id="path144"
         style="fill:#000000;fill-opacity:1;fill-rule:nonzero;stroke:none"
         d="m 386.969,477.027 h 1.711 v 2.227 h -1.711 z" /><path
         id="path146"
         style="fill:#000000;fill-opacity:1;fill-rule:nonzero;stroke:none"
         d="m 395.746,467.336 c -0.844,0 -1.476,0.449 -1.902,1.348 -0.422,0.894 -0.637,2.242 -0.637,4.043 0,1.793 0.215,3.136 0.637,4.035 0.426,0.898 1.058,1.347 1.902,1.347 0.848,0 1.484,-0.449 1.906,-1.347 0.426,-0.899 0.641,-2.242 0.641,-4.035 0,-1.801 -0.215,-3.149 -0.641,-4.043 -0.422,-0.899 -1.058,-1.348 -1.906,-1.348 z m 0,-1.398 c 1.356,0 2.391,0.578 3.109,1.738 0.715,1.16 1.071,2.844 1.071,5.051 0,2.203 -0.356,3.882 -1.071,5.043 -0.718,1.16 -1.753,1.738 -3.109,1.738 -1.355,0 -2.391,-0.578 -3.109,-1.738 -0.715,-1.161 -1.071,-2.84 -1.071,-5.043 0,-2.207 0.356,-3.891 1.071,-5.051 0.718,-1.16 1.754,-1.738 3.109,-1.738 z" /><path
         id="path148"
         style="fill:#000000;fill-opacity:1;fill-rule:nonzero;stroke:none"
         d="m 200.582,493.984 -3.281,4.778 3.453,5.039 h -1.762 l -2.64,-3.856 -2.641,3.856 h -1.758 l 3.524,-5.137 -3.223,-4.68 h 1.758 l 2.406,3.496 2.406,-3.496 z" /></g><g
       id="g150"><g
         clip-path="url(#clipPath156)"
         id="g152"><path
           id="path158"
           style="fill:#000000;fill-opacity:1;fill-rule:nonzero;stroke:none"
           d="m 207.996,490.164 h 3.438 v 1.254 h -1.946 v 13.496 h 1.946 v 1.254 h -3.438 z" /></g></g><g
       id="g160"><path
         id="path162"
         style="fill:#000000;fill-opacity:1;fill-rule:nonzero;stroke:none"
         d="m 221.676,495.871 c 0.371,-0.726 0.816,-1.262 1.336,-1.605 0.519,-0.344 1.129,-0.516 1.832,-0.516 0.945,0 1.676,0.359 2.187,1.074 0.516,0.715 0.77,1.731 0.77,3.051 v 5.926 h -1.496 v -5.871 c 0,-0.942 -0.157,-1.641 -0.465,-2.094 -0.309,-0.457 -0.778,-0.684 -1.41,-0.684 -0.77,0 -1.383,0.278 -1.832,0.832 -0.45,0.555 -0.672,1.309 -0.672,2.27 v 5.547 h -1.5 v -5.871 c 0,-0.95 -0.153,-1.645 -0.461,-2.098 -0.309,-0.453 -0.781,-0.68 -1.426,-0.68 -0.762,0 -1.367,0.278 -1.816,0.836 -0.45,0.559 -0.672,1.313 -0.672,2.266 v 5.547 h -1.5 v -9.817 h 1.5 v 1.528 c 0.34,-0.602 0.75,-1.047 1.222,-1.332 0.477,-0.285 1.039,-0.43 1.696,-0.43 0.66,0 1.219,0.184 1.683,0.543 0.461,0.363 0.801,0.887 1.024,1.578 z" /></g><g
       id="g164"><g
         clip-path="url(#clipPath170)"
         id="g166"><path
           id="path172"
           style="fill:#000000;fill-opacity:1;fill-rule:nonzero;stroke:none"
           d="m 234.258,490.164 v 16.004 h -3.434 v -1.254 h 1.938 v -13.496 h -1.938 v -1.254 z" /></g></g><g
       id="g174"><g
         clip-path="url(#clipPath180)"
         id="g176"><g
           id="g182"><g
             id="g184"><g
               clip-path="url(#clipPath190)"
               id="g186"><g
                 id="g192"><g
                   id="g194"><g
                     id="g196"><g
                       clip-path="url(#clipPath202)"
                       id="g198"><g
                         id="g204"><g
                           transform="scale(0.924802,1)"
                           id="g206"><path
                             id="path208"
                             style="fill:none;stroke:#000000;stroke-width:1.58441603;stroke-linecap:butt;stroke-linejoin:round;stroke-miterlimit:4;stroke-dasharray:5.862365, 2.535074;stroke-dashoffset:0;stroke-opacity:1"
                             d="M -163.92,226.953 H 1131.699" /></g></g></g></g></g></g></g></g></g></g></g><g
       id="g210"><g
         clip-path="url(#clipPath216)"
         id="g212"><g
           id="g218"><g
             id="g220"><g
               clip-path="url(#clipPath226)"
               id="g222"><g
                 id="g228"><g
                   id="g230"><g
                     id="g232"><g
                       clip-path="url(#clipPath238)"
                       id="g234"><g
                         id="g240"><g
                           transform="scale(0.924802,1)"
                           id="g242"><path
                             id="path244"
                             style="fill:none;stroke:#000000;stroke-width:1.58441603;stroke-linecap:square;stroke-linejoin:round;stroke-miterlimit:4;stroke-dasharray:none;stroke-opacity:1"
                             d="M 230.945,453.059 V 0.844" /></g></g></g></g></g></g></g></g></g></g></g><g
       id="g246"><g
         clip-path="url(#clipPath252)"
         id="g248"><g
           clip-path="url(#clipPath258)"
           id="g254"><g
             id="g260"><g
               id="g262"><g
                 clip-path="url(#clipPath268)"
                 id="g264"><g
                   id="g270"><g
                     id="g272"><g
                       id="g274"><g
                         clip-path="url(#clipPath280)"
                         id="g276"><g
                           id="g282"><g
                             transform="matrix(-0.924802,-0.340206,0.321182,-1,0,0)"
                             id="g284"><path
                               id="path286"
                               style="fill:none;stroke:#0000ff;stroke-width:2.99674296;stroke-linecap:square;stroke-linejoin:round;stroke-miterlimit:4;stroke-dasharray:none;stroke-opacity:1"
                               d="m -277.224,-131.554 5.299,178.111" /></g></g></g></g></g></g></g></g></g></g></g></g><g
       id="g288"><g
         transform="scale(0.924802,1)"
         id="g290"><path
           id="path292"
           style="fill:none;stroke:#000000;stroke-width:1.69004595;stroke-linecap:square;stroke-linejoin:miter;stroke-miterlimit:4;stroke-dasharray:none;stroke-opacity:1"
           d="M 0.845,453.059 V 0.844" /></g></g><g
       id="g294"><g
         clip-path="url(#clipPath300)"
         id="g296"><g
           transform="scale(0.924802,1)"
           id="g302"><path
             id="path304"
             style="fill:none;stroke:#000000;stroke-width:1.69004595;stroke-linecap:square;stroke-linejoin:miter;stroke-miterlimit:4;stroke-dasharray:none;stroke-opacity:1"
             d="M 453.057,453.059 V 0.844" /></g></g></g><g
       id="g306"><g
         clip-path="url(#clipPath312)"
         id="g308"><g
           transform="scale(0.924802,1)"
           id="g314"><path
             id="path316"
             style="fill:none;stroke:#000000;stroke-width:1.69004595;stroke-linecap:square;stroke-linejoin:miter;stroke-miterlimit:4;stroke-dasharray:none;stroke-opacity:1"
             d="M 0.845,453.059 H 453.057" /></g></g></g><g
       id="g318"><g
         clip-path="url(#clipPath324)"
         id="g320"><g
           transform="scale(0.924802,1)"
           id="g326"><path
             id="path328"
             style="fill:none;stroke:#000000;stroke-width:1.69004595;stroke-linecap:square;stroke-linejoin:miter;stroke-miterlimit:4;stroke-dasharray:none;stroke-opacity:1"
             d="M 0.845,0.844 H 453.057" /></g></g></g><g
       id="g330"><g
         transform="matrix(0.966388,-0.996483,0.96337,1,0,0)"
         id="g332"><path
           id="path334"
           style="fill:none;stroke:#000000;stroke-width:1.56347597;stroke-linecap:butt;stroke-linejoin:round;stroke-miterlimit:4;stroke-dasharray:none;stroke-opacity:1"
           d="m 55.176,166.857 c 4.478,-0.721 9.009,0.966 11.882,4.422 2.872,3.456 3.652,8.155 2.045,12.331" /></g><g
         transform="matrix(-0.427329,-1,0.966494,-0.441908,0,0)"
         id="g336"><path
           id="path338"
           style="fill:none;stroke:#000000;stroke-width:2.01885509;stroke-linecap:butt;stroke-linejoin:miter;stroke-miterlimit:4;stroke-dasharray:none;stroke-opacity:1"
           d="m -183.642,162.403 -6.056,6.057 6.055,6.056" /></g><g
         transform="scale(0.910798,1)"
         id="g342"><path
           id="path344"
           style="fill:#ffffff;fill-opacity:1;fill-rule:nonzero;stroke:#289f44;stroke-width:2.27378392;stroke-linecap:butt;stroke-linejoin:round;stroke-miterlimit:4;stroke-dasharray:none;stroke-opacity:1"
           d="M 233.316,227.586 C 343.998,227.41 343.998,227.41 343.998,227.41" /></g><path
         id="path346"
         style="fill:#289f44;fill-opacity:1;fill-rule:evenodd;stroke:none"
         d="m 315.383,227.406 -6.203,6.832 -4.141,0.008 6.203,-6.832 -6.222,-6.812 4.14,-0.008 z" /><path
         id="path348"
         style="fill:#000000;fill-opacity:1;fill-rule:nonzero;stroke:none"
         d="m 283.133,205.406 h 1.965 c 1.519,0 1.675,0.317 1.675,0.887 0,0.16 0,0.379 -0.125,1.012 -0.066,0.097 -0.066,0.16 -0.066,0.222 0,0.161 0.129,0.223 0.223,0.223 0.222,0 0.222,-0.062 0.316,-0.41 l 1.109,-4.402 c 0.063,-0.219 0.063,-0.25 0.063,-0.317 0,-0.031 -0.031,-0.219 -0.254,-0.219 -0.187,0 -0.223,0.094 -0.285,0.442 -0.442,1.551 -0.887,1.929 -2.625,1.929 h -1.836 l 1.297,-5.125 c 0.191,-0.73 0.222,-0.793 1.109,-0.793 h 2.656 c 2.469,0 2.946,0.665 2.946,2.215 0,0.477 0,0.539 -0.063,1.11 -0.035,0.254 -0.035,0.285 -0.035,0.347 0,0.094 0.067,0.254 0.254,0.254 0.223,0 0.223,-0.129 0.254,-0.508 l 0.41,-3.511 c 0.067,-0.539 -0.031,-0.539 -0.535,-0.539 h -9.906 c -0.383,0 -0.602,0 -0.602,0.41 0,0.222 0.188,0.222 0.57,0.222 0.758,0 1.329,0 1.329,0.348 0,0.098 0,0.129 -0.129,0.508 l -2.657,10.664 c -0.191,0.793 -0.222,0.949 -1.836,0.949 -0.347,0 -0.57,0 -0.57,0.383 0,0.25 0.254,0.25 0.317,0.25 0.57,0 2.089,-0.062 2.66,-0.062 0.664,0 2.34,0.062 3.004,0.062 0.191,0 0.414,0 0.414,-0.379 0,-0.156 -0.098,-0.219 -0.098,-0.219 -0.062,-0.035 -0.125,-0.035 -0.566,-0.035 -0.446,0 -0.539,0 -1.047,-0.031 -0.602,-0.063 -0.664,-0.156 -0.664,-0.41 0,-0.031 0,-0.16 0.093,-0.442 z" /><g
         id="g3647"
         transform="matrix(0.56632586,-0.02792244,0.03061042,0.51659536,88.687906,9.5401247)"><g
           word-spacing="normal"
           letter-spacing="normal"
           font-size-adjust="none"
           font-stretch="normal"
           font-weight="normal"
           font-variant="normal"
           font-style="normal"
           stroke-miterlimit="10.433"
           xml:space="preserve"
           transform="matrix(0.79956169,0,0,-0.79956169,-139.92329,506.16604)"
           id="content"
           style="font-style:normal;font-variant:normal;font-weight:normal;font-stretch:normal;letter-spacing:normal;word-spacing:normal;text-anchor:start;fill:none;fill-opacity:1;fill-rule:evenodd;stroke:#000000;stroke-linecap:butt;stroke-linejoin:miter;stroke-miterlimit:10.43299961;stroke-dasharray:none;stroke-dashoffset:0;stroke-opacity:1"><path
             id="path3644"
             d="m 480.97,423.93 0.09,0.39 0.09,0.38 0.08,0.37 0.07,0.36 0.07,0.35 0.07,0.35 0.06,0.33 0.05,0.32 0.05,0.32 0.05,0.3 0.04,0.3 0.04,0.28 0.03,0.27 0.04,0.27 0.02,0.25 0.03,0.25 0.02,0.23 0.02,0.22 0.02,0.21 0.01,0.2 0.01,0.19 0.01,0.18 0.01,0.17 0.01,0.15 v 0.15 l 0.01,0.13 v 0.12 0.11 0.1 0.09 0.07 0.06 c 0,1.85 -0.29,9.92 -5.53,9.92 l -0.05,-1.09 c 1.25,0 2.6,-0.75 2.6,-5.94 0,-3.14 -0.8,-6.51 -1.45,-9.36 v 0 c -2.44,0.85 -7.22,2.78 -7.22,7.33 0,3.08 2.59,7.97 6.07,7.97 l 0.05,1.09 c -4.12,0 -7.37,-5.23 -7.37,-9.12 0,-4.83 4.68,-7.22 8.17,-8.36 -1.1,-4.48 -1.89,-7.38 -3.53,-10.77 -0.66,-1.39 -3.05,-6.32 -5.99,-6.32 -3.39,0 -3.68,2.54 -3.68,3.98 0,1.3 0.4,2.89 0.65,4.03 0.3,1.25 0.6,2.35 0.94,3.85 l 0.61,2.39 c 0.23,0.84 0.48,1.89 0.48,2.64 0,2.98 -2.23,4.57 -4.53,4.57 -2.28,0 -3.23,-1.93 -3.69,-2.82 -0.89,-1.71 -1.54,-4.69 -1.54,-4.85 0,-0.5 0.5,-0.5 0.61,-0.5 0.5,0 0.54,0.07 0.84,1.16 0.84,3.53 1.84,5.92 3.64,5.92 0.84,0 1.55,-0.39 1.55,-2.28 0,-1.11 -0.71,-3.8 -1.16,-5.64 -0.2,-0.84 -0.64,-2.53 -0.89,-3.64 -0.41,-1.49 -0.7,-2.74 -0.7,-4.17 0,-4.74 3.48,-5.74 6.73,-5.74 5.28,0 10.61,7.88 13.14,17.24 0.5,-0.1 1.96,-0.46 2.25,-0.46 0.21,0 0.5,0.16 0.5,0.61 0,0.39 -0.36,0.44 -1.04,0.6 z"
             inkscape:connector-curvature="0"
             style="fill:#000000;stroke-width:0" /></g></g></g><g
       id="g350" /></g></svg>