<?xml version="1.0" encoding="UTF-8" standalone="no"?>
<svg
   xmlns:dc="http://purl.org/dc/elements/1.1/"
   xmlns:cc="http://creativecommons.org/ns#"
   xmlns:rdf="http://www.w3.org/1999/02/22-rdf-syntax-ns#"
   xmlns:svg="http://www.w3.org/2000/svg"
   xmlns="http://www.w3.org/2000/svg"
   xmlns:sodipodi="http://sodipodi.sourceforge.net/DTD/sodipodi-0.dtd"
   xmlns:inkscape="http://www.inkscape.org/namespaces/inkscape"
   viewBox="0 0 661.26947 675.50806"
   height="675.50806"
   width="661.26947"
   xml:space="preserve"
   id="svg2"
   version="1.1"
   sodipodi:docname="inv_pendulum.svg"
   inkscape:version="0.92.5 (2060ec1f9f, 2020-04-08)"><sodipodi:namedview
     pagecolor="#ffffff"
     bordercolor="#666666"
     borderopacity="1"
     objecttolerance="10"
     gridtolerance="10"
     guidetolerance="10"
     inkscape:pageopacity="0"
     inkscape:pageshadow="2"
     inkscape:window-width="3952"
     inkscape:window-height="2176"
     id="namedview4081"
     showgrid="false"
     inkscape:zoom="3.9526327"
     inkscape:cx="294.56355"
     inkscape:cy="468.36396"
     inkscape:window-x="144"
     inkscape:window-y="54"
     inkscape:window-maximized="1"
     inkscape:current-layer="g10" /><metadata
     id="metadata8"><rdf:RDF><cc:Work
         rdf:about=""><dc:format>image/svg+xml</dc:format><dc:type
           rdf:resource="http://purl.org/dc/dcmitype/StillImage" /></cc:Work></rdf:RDF></metadata><defs
     id="defs6"><clipPath
       id="clipPath22"
       clipPathUnits="userSpaceOnUse"><path
         id="path20"
         d="M 74.965,0.879 H 495 V 453.477 H 74.965 Z" /></clipPath><clipPath
       id="clipPath32"
       clipPathUnits="userSpaceOnUse"><path
         id="path30"
         d="M 0,0 H 496 V 507 H 0 Z" /></clipPath><clipPath
       id="clipPath44"
       clipPathUnits="userSpaceOnUse"><path
         id="path42"
         d="M 0,0 H 496 V 507 H 0 Z" /></clipPath><clipPath
       id="clipPath116"
       clipPathUnits="userSpaceOnUse"><path
         id="path114"
         d="m 279,490 h 4 v 16 h -4 z" /></clipPath><clipPath
       id="clipPath130"
       clipPathUnits="userSpaceOnUse"><path
         id="path128"
         d="m 302,490 h 4 v 16 h -4 z" /></clipPath><clipPath
       id="clipPath204"
       clipPathUnits="userSpaceOnUse"><path
         id="path202"
         d="M 74.965,0.879 H 495 V 453.477 H 74.965 Z" /></clipPath><clipPath
       id="clipPath214"
       clipPathUnits="userSpaceOnUse"><path
         id="path212"
         d="M 0,0 H 496 V 507 H 0 Z" /></clipPath><clipPath
       id="clipPath226"
       clipPathUnits="userSpaceOnUse"><path
         id="path224"
         d="M 0,0 H 496 V 507 H 0 Z" /></clipPath><clipPath
       id="clipPath242"
       clipPathUnits="userSpaceOnUse"><path
         id="path240"
         d="M 0,0 H 496 V 507 H 0 Z" /></clipPath><clipPath
       id="clipPath258"
       clipPathUnits="userSpaceOnUse"><path
         id="path256"
         d="M 0,0 H 496 V 507 H 0 Z" /></clipPath><clipPath
       id="clipPath278"
       clipPathUnits="userSpaceOnUse"><path
         id="path276"
         d="m 494,0 h 1 v 455 h -1 z" /></clipPath><clipPath
       id="clipPath290"
       clipPathUnits="userSpaceOnUse"><path
         id="path288"
         d="m 74,452 h 421 v 3 H 74 Z" /></clipPath><clipPath
       id="clipPath302"
       clipPathUnits="userSpaceOnUse"><path
         id="path300"
         d="M 74,0 H 495 V 2 H 74 Z" /></clipPath></defs><g
     transform="matrix(1.3333333,0,0,1.3333333,0,1.3554368e-5)"
     id="g10"><g
       id="g12" /><g
       id="g16"><g
         clip-path="url(#clipPath22)"
         id="g18"><g
           id="g24"><g
             id="g26"><g
               clip-path="url(#clipPath32)"
               id="g28"><g
                 id="g34"><g
                   id="g36"><g
                     id="g38"><g
                       clip-path="url(#clipPath44)"
                       id="g40"><g
                         id="g46"><g
                           transform="scale(0.928353,1)"
                           id="g48"><path
                             id="path50"
                             style="fill:#0000ff;fill-opacity:1;fill-rule:nonzero;stroke:#0000ff;stroke-width:2.19653511;stroke-linecap:butt;stroke-linejoin:round;stroke-miterlimit:4;stroke-dasharray:none;stroke-opacity:1"
                             d="m 258.409,62.938 c 4.763,0 9.332,-1.895 12.699,-5.262 3.37,-3.367 5.259,-7.938 5.259,-12.699 0,-4.762 -1.889,-9.332 -5.259,-12.7 -3.367,-3.367 -7.936,-5.261 -12.699,-5.261 -4.763,0 -9.333,1.894 -12.699,5.261 -3.371,3.368 -5.26,7.938 -5.26,12.7 0,4.761 1.889,9.332 5.26,12.699 3.366,3.367 7.936,5.262 12.699,5.262 z" /></g></g></g></g></g></g></g></g></g></g></g><g
       id="g52"><g
         transform="scale(0.928353,1)"
         id="g54" /><g
         transform="scale(0.928353,1)"
         id="g66" /><g
         transform="scale(0.928353,1)"
         id="g78" /><g
         transform="scale(0.928353,1)"
         id="g88" /><g
         transform="scale(0.928353,1)"
         id="g98" /></g><g
       id="g134"><g
         transform="scale(0.928353,1)"
         id="g136" /><g
         transform="scale(0.928353,1)"
         id="g148" /><g
         transform="scale(0.928353,1)"
         id="g160" /><g
         transform="scale(0.928353,1)"
         id="g170" /><g
         transform="scale(0.928353,1)"
         id="g180" /></g><g
       id="g198"><g
         clip-path="url(#clipPath204)"
         id="g200"><g
           id="g206"><g
             id="g208"><g
               clip-path="url(#clipPath214)"
               id="g210"><g
                 id="g216"><g
                   id="g218"><g
                     id="g220"><g
                       clip-path="url(#clipPath226)"
                       id="g222"><g
                         id="g228"><g
                           transform="scale(0.928353,1)"
                           id="g230"><path
                             id="path232"
                             style="fill:none;stroke:#000000;stroke-width:1.64738595;stroke-linecap:butt;stroke-linejoin:round;stroke-miterlimit:4;stroke-dasharray:6.095355, 2.635823;stroke-dashoffset:0;stroke-opacity:1"
                             d="m 80.75,227.18 h 452.6" /></g></g></g></g></g><g
                   id="g234"><g
                     id="g236"><g
                       clip-path="url(#clipPath242)"
                       id="g238"><g
                         id="g244"><g
                           transform="scale(0.928353,1)"
                           id="g246"><path
                             id="path248"
                             style="fill:none;stroke:#000000;stroke-width:1.64738595;stroke-linecap:square;stroke-linejoin:round;stroke-miterlimit:4;stroke-dasharray:none;stroke-opacity:1"
                             d="M 307.05,453.477 V 0.879" /></g></g></g></g></g><g
                   id="g250"><g
                     id="g252"><g
                       clip-path="url(#clipPath258)"
                       id="g254"><g
                         id="g260"><g
                           transform="scale(0.928353,1)"
                           id="g262"><path
                             id="path264"
                             style="fill:none;stroke:#0000ff;stroke-width:3.29478192;stroke-linecap:square;stroke-linejoin:round;stroke-miterlimit:4;stroke-dasharray:none;stroke-opacity:1"
                             d="M 307.05,227.18 258.409,44.977" /></g></g></g></g></g></g></g></g></g></g></g><g
       id="g266"><g
         transform="scale(0.928353,1)"
         id="g268"><path
           id="path270"
           style="fill:none;stroke:#000000;stroke-width:1.75721598;stroke-linecap:square;stroke-linejoin:miter;stroke-miterlimit:4;stroke-dasharray:none;stroke-opacity:1"
           d="M 80.75,453.477 V 0.879" /></g></g><g
       id="g272"><g
         clip-path="url(#clipPath278)"
         id="g274"><g
           transform="scale(0.928353,1)"
           id="g280"><path
             id="path282"
             style="fill:none;stroke:#000000;stroke-width:1.75721598;stroke-linecap:square;stroke-linejoin:miter;stroke-miterlimit:4;stroke-dasharray:none;stroke-opacity:1"
             d="M 533.35,453.477 V 0.879" /></g></g></g><g
       id="g284"><g
         clip-path="url(#clipPath290)"
         id="g286"><g
           transform="scale(0.928353,1)"
           id="g292"><path
             id="path294"
             style="fill:none;stroke:#000000;stroke-width:1.75721598;stroke-linecap:square;stroke-linejoin:miter;stroke-miterlimit:4;stroke-dasharray:none;stroke-opacity:1"
             d="m 80.75,453.477 h 452.6" /></g></g></g><g
       id="g296"><g
         clip-path="url(#clipPath302)"
         id="g298"><g
           transform="scale(0.928353,1)"
           id="g304"><path
             id="path306"
             style="fill:none;stroke:#000000;stroke-width:1.75721598;stroke-linecap:square;stroke-linejoin:miter;stroke-miterlimit:4;stroke-dasharray:none;stroke-opacity:1"
             d="m 80.75,0.879 h 452.6" /></g></g></g><g
       id="g308"><g
         transform="matrix(0.276252,-1,0.887339,0.377949,0,0)"
         id="g310"><path
           id="path312"
           style="fill:none;stroke:#000000;stroke-width:2.17899394;stroke-linecap:butt;stroke-linejoin:round;stroke-miterlimit:4;stroke-dasharray:2.178994, 2.178994;stroke-dashoffset:0;stroke-opacity:1"
           d="m -6.788,293.073 c 6.365,-1.898 13.317,-0.184 17.898,4.412 4.581,4.596 5.991,11.262 3.626,17.171" /></g><g
         transform="matrix(-0.915193,-0.916429,0.743538,-1,0,0)"
         id="g314"><path
           id="path316"
           style="fill:none;stroke:#000000;stroke-width:1.71735597;stroke-linecap:round;stroke-linejoin:miter;stroke-miterlimit:4;stroke-dasharray:none;stroke-opacity:1"
           d="m -221.224,97.725 -5.153,5.152 5.151,5.154" /></g><g
         transform="matrix(0.0181907,1,-0.910811,0.0192244,0,0)"
         id="g318"><path
           id="path320"
           style="fill:none;stroke:#289f44;stroke-width:2.27332401;stroke-linecap:butt;stroke-linejoin:round;stroke-miterlimit:4;stroke-dasharray:none;stroke-opacity:1"
           d="m 239.792,-326.681 c 6.396,-0.056 12.331,3.51 15.562,9.352 3.236,5.837 3.273,13.065 0.105,18.941 -3.172,5.881 -9.066,9.516 -15.461,9.538" /></g><g
         transform="matrix(0.0213586,1,-0.910809,0.0227024,0,0)"
         id="g322"><path
           id="path324"
           style="fill:none;stroke:#289f44;stroke-width:2.27316403;stroke-linecap:round;stroke-linejoin:miter;stroke-miterlimit:4;stroke-dasharray:none;stroke-opacity:1"
           d="m 247.236,-294.811 -6.819,6.818 6.818,6.821" /></g><path
         id="path326"
         style="fill:#000000;fill-opacity:1;fill-rule:nonzero;stroke:none"
         d="m 303.719,252.027 h 3.746 c 0.281,0 1.086,0 1.086,-0.769 0,-0.528 -0.457,-0.528 -0.91,-0.528 h -6.235 c -0.453,0 -1.328,0 -2.308,1.051 -0.735,0.805 -1.368,1.891 -1.368,1.996 0,0.035 0,0.246 0.282,0.246 0.176,0 0.211,-0.105 0.351,-0.281 1.082,-1.715 2.379,-1.715 2.836,-1.715 h 1.856 l -2.172,7.176 c -0.106,0.246 -0.246,0.738 -0.246,0.809 0,0.242 0.175,0.629 0.668,0.629 0.734,0 0.84,-0.629 0.91,-0.981 z" /></g><g
       id="g5058"
       transform="matrix(0.62873781,0,0,0.62271801,96.888369,36.189814)"><g
         word-spacing="normal"
         letter-spacing="normal"
         font-size-adjust="none"
         font-stretch="normal"
         font-weight="normal"
         font-variant="normal"
         font-style="normal"
         stroke-miterlimit="10.433"
         xml:space="preserve"
         transform="matrix(0.94467067,0,0,-0.94467067,-165.31737,506.63104)"
         id="content"
         style="font-style:normal;font-variant:normal;font-weight:normal;font-stretch:normal;letter-spacing:normal;word-spacing:normal;text-anchor:start;fill:none;fill-opacity:1;fill-rule:evenodd;stroke:#000000;stroke-linecap:butt;stroke-linejoin:miter;stroke-miterlimit:10.43299961;stroke-dasharray:none;stroke-dashoffset:0;stroke-opacity:1"><path
           id="path5055"
           d="m 469.85502,452.51139 0.09,0.39 0.09,0.38 0.08,0.37 0.07,0.36 0.07,0.35 0.07,0.35 0.06,0.33 0.05,0.32 0.05,0.32 0.05,0.3 0.04,0.3 0.04,0.28 0.03,0.27 0.04,0.27 0.02,0.25 0.03,0.25 0.02,0.23 0.02,0.22 0.02,0.21 0.01,0.2 0.01,0.19 0.01,0.18 0.01,0.17 0.01,0.15 v 0.15 l 0.01,0.13 v 0.12 0.11 0.1 0.09 0.07 0.06 c 0,1.85 -0.29,9.92 -5.53,9.92 l -0.05,-1.09 c 1.25,0 2.6,-0.75 2.6,-5.94 0,-3.14 -0.8,-6.51 -1.45,-9.36 v 0 c -2.44,0.85 -7.22,2.78 -7.22,7.33 0,3.08 2.59,7.97 6.07,7.97 l 0.05,1.09 c -4.12,0 -7.37,-5.23 -7.37,-9.12 0,-4.83 4.68,-7.22 8.17,-8.36 -1.1,-4.48 -1.89,-7.38 -3.53,-10.77 -0.66,-1.39 -3.05,-6.32 -5.99,-6.32 -3.39,0 -3.68,2.54 -3.68,3.98 0,1.3 0.4,2.89 0.65,4.03 0.3,1.25 0.6,2.35 0.94,3.85 l 0.61,2.39 c 0.23,0.84 0.48,1.89 0.48,2.64 0,2.98 -2.23,4.57 -4.53,4.57 -2.28,0 -3.23,-1.93 -3.69,-2.82 -0.89,-1.71 -1.54,-4.69 -1.54,-4.85 0,-0.5 0.5,-0.5 0.61,-0.5 0.5,0 0.54,0.07 0.84,1.16 0.84,3.53 1.84,5.92 3.64,5.92 0.84,0 1.55,-0.39 1.55,-2.28 0,-1.11 -0.71,-3.8 -1.16,-5.64 -0.2,-0.84 -0.64,-2.53 -0.89,-3.64 -0.41,-1.49 -0.7,-2.74 -0.7,-4.17 0,-4.74 3.48,-5.74 6.73,-5.74 5.28,0 10.61,7.88 13.14,17.24 0.5,-0.1 1.96,-0.46 2.25,-0.46 0.21,0 0.5,0.16 0.5,0.61 0,0.39 -0.36,0.44 -1.04,0.6 z"
           inkscape:connector-curvature="0"
           style="fill:#000000;stroke-width:0"
           sodipodi:nodetypes="ccccccccccccccccccccccccccccccccsccsccsccsccsscccsscsscssccsscsscc" /></g></g></g></svg>