<?xml version="1.0" encoding="UTF-8" standalone="no"?>
<svg
   xmlns:dc="http://purl.org/dc/elements/1.1/"
   xmlns:cc="http://creativecommons.org/ns#"
   xmlns:rdf="http://www.w3.org/1999/02/22-rdf-syntax-ns#"
   xmlns:svg="http://www.w3.org/2000/svg"
   xmlns="http://www.w3.org/2000/svg"
   viewBox="0 0 698.43616 682.02582"
   height="682.02582"
   width="698.43616"
   xml:space="preserve"
   id="svg2"
   version="1.1"><metadata
     id="metadata8"><rdf:RDF><cc:Work
         rdf:about=""><dc:format>image/svg+xml</dc:format><dc:type
           rdf:resource="http://purl.org/dc/dcmitype/StillImage" /></cc:Work></rdf:RDF></metadata><defs
     id="defs6"><clipPath
       id="clipPath124"
       clipPathUnits="userSpaceOnUse"><path
         id="path122"
         d="m 515,471 h 8 v 14 h -8 z" /></clipPath><clipPath
       id="clipPath138"
       clipPathUnits="userSpaceOnUse"><path
         id="path136"
         d="m 290,495 h 4 v 16 h -4 z" /></clipPath><clipPath
       id="clipPath152"
       clipPathUnits="userSpaceOnUse"><path
         id="path150"
         d="m 313,495 h 4 v 16 h -4 z" /></clipPath><clipPath
       id="clipPath274"
       clipPathUnits="userSpaceOnUse"><path
         id="path272"
         d="M 85.676,6.496 H 506.352 V 458.441 H 85.676 Z" /></clipPath><clipPath
       id="clipPath284"
       clipPathUnits="userSpaceOnUse"><path
         id="path282"
         d="M 0,0 H 524 V 512 H 0 Z" /></clipPath><clipPath
       id="clipPath296"
       clipPathUnits="userSpaceOnUse"><path
         id="path294"
         d="M 0,0 H 524 V 512 H 0 Z" /></clipPath><clipPath
       id="clipPath312"
       clipPathUnits="userSpaceOnUse"><path
         id="path310"
         d="M 0,0 H 524 V 512 H 0 Z" /></clipPath><clipPath
       id="clipPath362"
       clipPathUnits="userSpaceOnUse"><path
         id="path360"
         d="m 395.723,210.02 h 10.531 v 9.969 h -10.531 z" /></clipPath><clipPath
       id="clipPath372"
       clipPathUnits="userSpaceOnUse"><path
         id="path370"
         d="M 0,0 H 524 V 512 H 0 Z" /></clipPath><clipPath
       id="clipPath388"
       clipPathUnits="userSpaceOnUse"><path
         id="path386"
         d="m 360.664,147.816 h 9.812 v 12.609 h -9.812 z" /></clipPath><clipPath
       id="clipPath398"
       clipPathUnits="userSpaceOnUse"><path
         id="path396"
         d="M 0,0 H 524 V 512 H 0 Z" /></clipPath></defs><g
     transform="matrix(1.3333333,0,0,1.3333333,0,2.1050645e-5)"
     id="g10"><g
       id="g12"><g
         transform="scale(0.910798,1)"
         id="g14"><path
           id="path16"
           style="fill:#008000;fill-opacity:1;fill-rule:nonzero;stroke:#00ffbf;stroke-width:0.49008501;stroke-linecap:round;stroke-linejoin:round;stroke-miterlimit:4;stroke-dasharray:none;stroke-opacity:1"
           d="m 367.771,161.848 v 11.492 l -16.89,26.07 -11.048,5.684 3.521,5.429 11.134,-5.796 h 33.372 l 11.133,5.796 3.517,-5.429 -11.044,-5.684 -16.773,-26.07 0.111,-11.492 z" /></g><g
         transform="scale(0.930809,1)"
         id="g18"><path
           id="path20"
           style="fill:none;stroke:#000000;stroke-width:1.43474603;stroke-linecap:butt;stroke-linejoin:round;stroke-miterlimit:4;stroke-dasharray:none;stroke-opacity:1"
           d="m 92.044,458.441 v 6.278" /></g><path
         id="path22"
         style="fill:#000000;fill-opacity:1;fill-rule:nonzero;stroke:none"
         d="m 61.867,478.258 h 10.449 v 1.488 H 61.867 Z" /><path
         id="path24"
         style="fill:#000000;fill-opacity:1;fill-rule:nonzero;stroke:none"
         d="m 76.156,483.137 h 2.688 v -9.977 l -2.926,0.629 v -1.609 l 2.91,-0.633 h 1.649 v 11.59 h 2.687 v 1.488 h -7.008 z" /><path
         id="path26"
         style="fill:#000000;fill-opacity:1;fill-rule:nonzero;stroke:none"
         d="m 90.012,472.715 c -0.848,0 -1.485,0.449 -1.914,1.344 -0.426,0.894 -0.637,2.242 -0.637,4.043 0,1.789 0.211,3.132 0.637,4.031 0.429,0.894 1.066,1.344 1.914,1.344 0.851,0 1.492,-0.45 1.918,-1.344 0.429,-0.899 0.644,-2.242 0.644,-4.031 0,-1.801 -0.215,-3.149 -0.644,-4.043 -0.426,-0.895 -1.067,-1.344 -1.918,-1.344 z m 0,-1.403 c 1.363,0 2.406,0.583 3.125,1.743 0.722,1.156 1.082,2.84 1.082,5.047 0,2.199 -0.36,3.878 -1.082,5.039 -0.719,1.16 -1.762,1.738 -3.125,1.738 -1.364,0 -2.407,-0.578 -3.125,-1.738 -0.719,-1.161 -1.082,-2.84 -1.082,-5.039 0,-2.207 0.363,-3.891 1.082,-5.047 0.718,-1.16 1.761,-1.743 3.125,-1.743 z" /><path
         id="path28"
         style="fill:#000000;fill-opacity:1;fill-rule:nonzero;stroke:none"
         d="m 97.109,482.398 h 1.723 v 2.227 h -1.723 z" /><path
         id="path30"
         style="fill:#000000;fill-opacity:1;fill-rule:nonzero;stroke:none"
         d="m 105.938,472.715 c -0.848,0 -1.485,0.449 -1.911,1.344 -0.425,0.894 -0.64,2.242 -0.64,4.043 0,1.789 0.215,3.132 0.64,4.031 0.426,0.894 1.063,1.344 1.911,1.344 0.855,0 1.496,-0.45 1.921,-1.344 0.426,-0.899 0.641,-2.242 0.641,-4.031 0,-1.801 -0.215,-3.149 -0.641,-4.043 -0.425,-0.895 -1.066,-1.344 -1.921,-1.344 z m 0,-1.403 c 1.367,0 2.41,0.583 3.128,1.743 0.719,1.156 1.079,2.84 1.079,5.047 0,2.199 -0.36,3.878 -1.079,5.039 -0.718,1.16 -1.761,1.738 -3.128,1.738 -1.364,0 -2.403,-0.578 -3.126,-1.738 -0.718,-1.161 -1.078,-2.84 -1.078,-5.039 0,-2.207 0.36,-3.891 1.078,-5.047 0.723,-1.16 1.762,-1.743 3.126,-1.743 z" /><g
         transform="scale(0.930809,1)"
         id="g32"><path
           id="path34"
           style="fill:none;stroke:#000000;stroke-width:1.43474603;stroke-linecap:butt;stroke-linejoin:round;stroke-miterlimit:4;stroke-dasharray:none;stroke-opacity:1"
           d="m 148.539,458.441 v 6.278" /></g><path
         id="path36"
         style="fill:#000000;fill-opacity:1;fill-rule:nonzero;stroke:none"
         d="m 119.762,478.258 h 10.449 v 1.488 h -10.449 z" /><path
         id="path38"
         style="fill:#000000;fill-opacity:1;fill-rule:nonzero;stroke:none"
         d="m 133.348,471.547 h 7.828 v 0.754 l -4.422,12.324 h -1.719 l 4.16,-11.586 h -5.847 z" /><path
         id="path40"
         style="fill:#000000;fill-opacity:1;fill-rule:nonzero;stroke:none"
         d="m 144.387,482.398 h 1.719 v 2.227 h -1.719 z" /><path
         id="path42"
         style="fill:#000000;fill-opacity:1;fill-rule:nonzero;stroke:none"
         d="m 149.711,471.547 h 6.461 v 1.492 h -4.953 v 3.203 c 0.238,-0.09 0.476,-0.152 0.715,-0.195 0.238,-0.043 0.476,-0.067 0.718,-0.067 1.356,0 2.434,0.403 3.227,1.2 0.793,0.8 1.191,1.882 1.191,3.25 0,1.406 -0.406,2.5 -1.222,3.281 -0.817,0.777 -1.965,1.168 -3.45,1.168 -0.511,0 -1.031,-0.047 -1.562,-0.141 -0.527,-0.093 -1.074,-0.234 -1.641,-0.422 v -1.777 c 0.489,0.285 0.993,0.5 1.516,0.637 0.523,0.14 1.074,0.211 1.652,0.211 0.942,0 1.688,-0.266 2.235,-0.793 0.55,-0.532 0.824,-1.254 0.824,-2.164 0,-0.91 -0.274,-1.633 -0.824,-2.16 -0.547,-0.536 -1.293,-0.801 -2.235,-0.801 -0.437,0 -0.879,0.054 -1.316,0.156 -0.438,0.105 -0.883,0.27 -1.336,0.492 z" /><g
         transform="scale(0.930809,1)"
         id="g44"><path
           id="path46"
           style="fill:none;stroke:#000000;stroke-width:1.43474603;stroke-linecap:butt;stroke-linejoin:round;stroke-miterlimit:4;stroke-dasharray:none;stroke-opacity:1"
           d="m 205.03,458.441 v 6.278" /></g><path
         id="path48"
         style="fill:#000000;fill-opacity:1;fill-rule:nonzero;stroke:none"
         d="m 172.344,478.258 h 10.449 v 1.488 h -10.449 z" /><path
         id="path50"
         style="fill:#000000;fill-opacity:1;fill-rule:nonzero;stroke:none"
         d="m 186.367,471.547 h 6.461 v 1.492 h -4.953 v 3.203 c 0.238,-0.09 0.477,-0.152 0.715,-0.195 0.238,-0.043 0.48,-0.067 0.719,-0.067 1.359,0 2.433,0.403 3.226,1.2 0.793,0.8 1.192,1.882 1.192,3.25 0,1.406 -0.407,2.5 -1.223,3.281 -0.816,0.777 -1.965,1.168 -3.449,1.168 -0.512,0 -1.032,-0.047 -1.563,-0.141 -0.527,-0.093 -1.074,-0.234 -1.64,-0.422 v -1.777 c 0.488,0.285 0.996,0.5 1.515,0.637 0.524,0.14 1.074,0.211 1.656,0.211 0.938,0 1.684,-0.266 2.231,-0.793 0.551,-0.532 0.824,-1.254 0.824,-2.164 0,-0.91 -0.273,-1.633 -0.824,-2.16 -0.547,-0.536 -1.293,-0.801 -2.231,-0.801 -0.441,0 -0.878,0.054 -1.32,0.156 -0.433,0.105 -0.883,0.27 -1.336,0.492 z" /><path
         id="path52"
         style="fill:#000000;fill-opacity:1;fill-rule:nonzero;stroke:none"
         d="m 196.969,482.398 h 1.723 v 2.227 h -1.723 z" /><path
         id="path54"
         style="fill:#000000;fill-opacity:1;fill-rule:nonzero;stroke:none"
         d="m 205.797,472.715 c -0.848,0 -1.485,0.449 -1.91,1.344 -0.43,0.894 -0.641,2.242 -0.641,4.043 0,1.789 0.211,3.132 0.641,4.031 0.425,0.894 1.062,1.344 1.91,1.344 0.855,0 1.492,-0.45 1.918,-1.344 0.43,-0.899 0.644,-2.242 0.644,-4.031 0,-1.801 -0.214,-3.149 -0.644,-4.043 -0.426,-0.895 -1.063,-1.344 -1.918,-1.344 z m 0,-1.403 c 1.363,0 2.406,0.583 3.129,1.743 0.719,1.156 1.078,2.84 1.078,5.047 0,2.199 -0.359,3.878 -1.078,5.039 -0.723,1.16 -1.766,1.738 -3.129,1.738 -1.363,0 -2.406,-0.578 -3.125,-1.738 -0.719,-1.161 -1.078,-2.84 -1.078,-5.039 0,-2.207 0.359,-3.891 1.078,-5.047 0.719,-1.16 1.762,-1.743 3.125,-1.743 z" /><g
         transform="scale(0.930809,1)"
         id="g56"><path
           id="path58"
           style="fill:none;stroke:#000000;stroke-width:1.43474603;stroke-linecap:butt;stroke-linejoin:round;stroke-miterlimit:4;stroke-dasharray:none;stroke-opacity:1"
           d="m 261.525,458.441 v 6.278" /></g><path
         id="path60"
         style="fill:#000000;fill-opacity:1;fill-rule:nonzero;stroke:none"
         d="m 224.93,478.258 h 10.449 v 1.488 H 224.93 Z" /><path
         id="path62"
         style="fill:#000000;fill-opacity:1;fill-rule:nonzero;stroke:none"
         d="m 240.352,483.137 h 5.746 v 1.488 h -7.727 v -1.488 c 0.625,-0.696 1.477,-1.629 2.555,-2.797 1.078,-1.172 1.758,-1.93 2.035,-2.27 0.527,-0.632 0.894,-1.172 1.101,-1.613 0.211,-0.441 0.317,-0.875 0.317,-1.301 0,-0.695 -0.227,-1.258 -0.68,-1.695 -0.453,-0.441 -1.047,-0.66 -1.773,-0.66 -0.52,0 -1.063,0.097 -1.637,0.289 -0.574,0.191 -1.184,0.484 -1.836,0.875 v -1.785 c 0.66,-0.285 1.281,-0.504 1.856,-0.649 0.578,-0.144 1.105,-0.219 1.586,-0.219 1.257,0 2.265,0.34 3.015,1.02 0.746,0.676 1.121,1.578 1.121,2.711 0,0.539 -0.093,1.047 -0.281,1.531 -0.184,0.481 -0.527,1.047 -1.023,1.699 -0.133,0.172 -0.567,0.661 -1.293,1.469 -0.727,0.809 -1.754,1.942 -3.082,3.395 z" /><path
         id="path64"
         style="fill:#000000;fill-opacity:1;fill-rule:nonzero;stroke:none"
         d="m 249.555,482.398 h 1.719 v 2.227 h -1.719 z" /><path
         id="path66"
         style="fill:#000000;fill-opacity:1;fill-rule:nonzero;stroke:none"
         d="m 254.879,471.547 h 6.461 v 1.492 h -4.953 v 3.203 c 0.238,-0.09 0.476,-0.152 0.715,-0.195 0.238,-0.043 0.48,-0.067 0.718,-0.067 1.36,0 2.434,0.403 3.227,1.2 0.793,0.8 1.191,1.882 1.191,3.25 0,1.406 -0.406,2.5 -1.222,3.281 -0.817,0.777 -1.965,1.168 -3.45,1.168 -0.511,0 -1.031,-0.047 -1.562,-0.141 -0.527,-0.093 -1.074,-0.234 -1.641,-0.422 v -1.777 c 0.489,0.285 0.996,0.5 1.516,0.637 0.523,0.14 1.074,0.211 1.656,0.211 0.938,0 1.684,-0.266 2.231,-0.793 0.55,-0.532 0.824,-1.254 0.824,-2.164 0,-0.91 -0.274,-1.633 -0.824,-2.16 -0.547,-0.536 -1.293,-0.801 -2.231,-0.801 -0.441,0 -0.879,0.054 -1.32,0.156 -0.434,0.105 -0.883,0.27 -1.336,0.492 z" /><g
         transform="scale(0.930809,1)"
         id="g68"><path
           id="path70"
           style="fill:none;stroke:#000000;stroke-width:1.43474603;stroke-linecap:butt;stroke-linejoin:round;stroke-miterlimit:4;stroke-dasharray:none;stroke-opacity:1"
           d="m 318.016,458.441 v 6.278" /></g><path
         id="path72"
         style="fill:#000000;fill-opacity:1;fill-rule:nonzero;stroke:none"
         d="m 288.047,472.715 c -0.848,0 -1.485,0.449 -1.914,1.344 -0.426,0.894 -0.637,2.242 -0.637,4.043 0,1.789 0.211,3.132 0.637,4.031 0.429,0.894 1.066,1.344 1.914,1.344 0.851,0 1.492,-0.45 1.918,-1.344 0.43,-0.899 0.64,-2.242 0.64,-4.031 0,-1.801 -0.21,-3.149 -0.64,-4.043 -0.426,-0.895 -1.067,-1.344 -1.918,-1.344 z m 0,-1.403 c 1.363,0 2.406,0.583 3.125,1.743 0.719,1.156 1.082,2.84 1.082,5.047 0,2.199 -0.363,3.878 -1.082,5.039 -0.719,1.16 -1.762,1.738 -3.125,1.738 -1.363,0 -2.406,-0.578 -3.125,-1.738 -0.723,-1.161 -1.082,-2.84 -1.082,-5.039 0,-2.207 0.359,-3.891 1.082,-5.047 0.719,-1.16 1.762,-1.743 3.125,-1.743 z" /><path
         id="path74"
         style="fill:#000000;fill-opacity:1;fill-rule:nonzero;stroke:none"
         d="m 295.145,482.398 h 1.723 v 2.227 h -1.723 z" /><path
         id="path76"
         style="fill:#000000;fill-opacity:1;fill-rule:nonzero;stroke:none"
         d="m 303.973,472.715 c -0.848,0 -1.485,0.449 -1.914,1.344 -0.426,0.894 -0.637,2.242 -0.637,4.043 0,1.789 0.211,3.132 0.637,4.031 0.429,0.894 1.066,1.344 1.914,1.344 0.851,0 1.492,-0.45 1.918,-1.344 0.429,-0.899 0.644,-2.242 0.644,-4.031 0,-1.801 -0.215,-3.149 -0.644,-4.043 -0.426,-0.895 -1.067,-1.344 -1.918,-1.344 z m 0,-1.403 c 1.363,0 2.406,0.583 3.129,1.743 0.718,1.156 1.078,2.84 1.078,5.047 0,2.199 -0.36,3.878 -1.078,5.039 -0.723,1.16 -1.766,1.738 -3.129,1.738 -1.364,0 -2.407,-0.578 -3.125,-1.738 -0.719,-1.161 -1.078,-2.84 -1.078,-5.039 0,-2.207 0.359,-3.891 1.078,-5.047 0.718,-1.16 1.761,-1.743 3.125,-1.743 z" /><g
         transform="scale(0.930809,1)"
         id="g78"><path
           id="path80"
           style="fill:none;stroke:#000000;stroke-width:1.43474603;stroke-linecap:butt;stroke-linejoin:round;stroke-miterlimit:4;stroke-dasharray:none;stroke-opacity:1"
           d="m 374.51,458.441 v 6.278" /></g><path
         id="path82"
         style="fill:#000000;fill-opacity:1;fill-rule:nonzero;stroke:none"
         d="m 338.527,483.137 h 5.746 v 1.488 h -7.726 v -1.488 c 0.625,-0.696 1.476,-1.629 2.555,-2.797 1.078,-1.172 1.757,-1.93 2.035,-2.27 0.527,-0.632 0.894,-1.172 1.101,-1.613 0.211,-0.441 0.317,-0.875 0.317,-1.301 0,-0.695 -0.227,-1.258 -0.68,-1.695 -0.457,-0.441 -1.047,-0.66 -1.773,-0.66 -0.52,0 -1.063,0.097 -1.637,0.289 -0.574,0.191 -1.184,0.484 -1.836,0.875 v -1.785 c 0.66,-0.285 1.281,-0.504 1.855,-0.649 0.578,-0.144 1.106,-0.219 1.586,-0.219 1.258,0 2.266,0.34 3.012,1.02 0.75,0.676 1.125,1.578 1.125,2.711 0,0.539 -0.094,1.047 -0.281,1.531 -0.184,0.481 -0.528,1.047 -1.024,1.699 -0.132,0.172 -0.566,0.661 -1.293,1.469 -0.73,0.809 -1.754,1.942 -3.082,3.395 z" /><path
         id="path84"
         style="fill:#000000;fill-opacity:1;fill-rule:nonzero;stroke:none"
         d="m 347.73,482.398 h 1.719 v 2.227 h -1.719 z" /><path
         id="path86"
         style="fill:#000000;fill-opacity:1;fill-rule:nonzero;stroke:none"
         d="m 353.055,471.547 h 6.461 v 1.492 h -4.954 v 3.203 c 0.239,-0.09 0.477,-0.152 0.715,-0.195 0.239,-0.043 0.481,-0.067 0.719,-0.067 1.359,0 2.434,0.403 3.227,1.2 0.793,0.8 1.191,1.882 1.191,3.25 0,1.406 -0.406,2.5 -1.223,3.281 -0.816,0.777 -1.964,1.168 -3.449,1.168 -0.512,0 -1.031,-0.047 -1.562,-0.141 -0.528,-0.093 -1.075,-0.234 -1.641,-0.422 v -1.777 c 0.488,0.285 0.996,0.5 1.516,0.637 0.523,0.14 1.074,0.211 1.652,0.211 0.941,0 1.688,-0.266 2.234,-0.793 0.551,-0.532 0.825,-1.254 0.825,-2.164 0,-0.91 -0.274,-1.633 -0.825,-2.16 -0.546,-0.536 -1.293,-0.801 -2.234,-0.801 -0.437,0 -0.879,0.054 -1.316,0.156 -0.434,0.105 -0.883,0.27 -1.336,0.492 z" /><g
         transform="scale(0.930809,1)"
         id="g88"><path
           id="path90"
           style="fill:none;stroke:#000000;stroke-width:1.43474603;stroke-linecap:butt;stroke-linejoin:round;stroke-miterlimit:4;stroke-dasharray:none;stroke-opacity:1"
           d="m 431.005,458.441 v 6.278" /></g><path
         id="path92"
         style="fill:#000000;fill-opacity:1;fill-rule:nonzero;stroke:none"
         d="m 389.711,471.547 h 6.465 v 1.492 h -4.957 v 3.203 c 0.238,-0.09 0.476,-0.152 0.715,-0.195 0.238,-0.043 0.48,-0.067 0.718,-0.067 1.36,0 2.434,0.403 3.227,1.2 0.797,0.8 1.191,1.882 1.191,3.25 0,1.406 -0.406,2.5 -1.222,3.281 -0.817,0.777 -1.965,1.168 -3.45,1.168 -0.507,0 -1.031,-0.047 -1.562,-0.141 -0.527,-0.093 -1.074,-0.234 -1.641,-0.422 v -1.777 c 0.489,0.285 0.996,0.5 1.516,0.637 0.523,0.14 1.074,0.211 1.656,0.211 0.942,0 1.684,-0.266 2.231,-0.793 0.55,-0.532 0.824,-1.254 0.824,-2.164 0,-0.91 -0.274,-1.633 -0.824,-2.16 -0.547,-0.536 -1.289,-0.801 -2.231,-0.801 -0.441,0 -0.879,0.054 -1.32,0.156 -0.434,0.105 -0.879,0.27 -1.336,0.492 z" /><path
         id="path94"
         style="fill:#000000;fill-opacity:1;fill-rule:nonzero;stroke:none"
         d="m 400.312,482.398 h 1.723 v 2.227 h -1.723 z" /><path
         id="path96"
         style="fill:#000000;fill-opacity:1;fill-rule:nonzero;stroke:none"
         d="m 409.141,472.715 c -0.848,0 -1.485,0.449 -1.911,1.344 -0.425,0.894 -0.64,2.242 -0.64,4.043 0,1.789 0.215,3.132 0.64,4.031 0.426,0.894 1.063,1.344 1.911,1.344 0.855,0 1.492,-0.45 1.921,-1.344 0.426,-0.899 0.641,-2.242 0.641,-4.031 0,-1.801 -0.215,-3.149 -0.641,-4.043 -0.429,-0.895 -1.066,-1.344 -1.921,-1.344 z m 0,-1.403 c 1.367,0 2.406,0.583 3.129,1.743 0.718,1.156 1.078,2.84 1.078,5.047 0,2.199 -0.36,3.878 -1.078,5.039 -0.723,1.16 -1.762,1.738 -3.129,1.738 -1.364,0 -2.407,-0.578 -3.125,-1.738 -0.719,-1.161 -1.078,-2.84 -1.078,-5.039 0,-2.207 0.359,-3.891 1.078,-5.047 0.718,-1.16 1.761,-1.743 3.125,-1.743 z" /><g
         transform="scale(0.930809,1)"
         id="g98"><path
           id="path100"
           style="fill:none;stroke:#000000;stroke-width:1.43474603;stroke-linecap:butt;stroke-linejoin:round;stroke-miterlimit:4;stroke-dasharray:none;stroke-opacity:1"
           d="m 487.496,458.441 v 6.278" /></g><path
         id="path102"
         style="fill:#000000;fill-opacity:1;fill-rule:nonzero;stroke:none"
         d="m 441.863,471.547 h 7.825 v 0.754 l -4.418,12.324 h -1.719 l 4.156,-11.586 h -5.844 z" /><path
         id="path104"
         style="fill:#000000;fill-opacity:1;fill-rule:nonzero;stroke:none"
         d="m 452.898,482.398 h 1.723 v 2.227 h -1.723 z" /><path
         id="path106"
         style="fill:#000000;fill-opacity:1;fill-rule:nonzero;stroke:none"
         d="m 458.223,471.547 h 6.465 v 1.492 h -4.958 v 3.203 c 0.239,-0.09 0.477,-0.152 0.715,-0.195 0.239,-0.043 0.481,-0.067 0.719,-0.067 1.359,0 2.434,0.403 3.227,1.2 0.797,0.8 1.191,1.882 1.191,3.25 0,1.406 -0.406,2.5 -1.223,3.281 -0.816,0.777 -1.964,1.168 -3.449,1.168 -0.512,0 -1.031,-0.047 -1.562,-0.141 -0.528,-0.093 -1.075,-0.234 -1.641,-0.422 v -1.777 c 0.488,0.285 0.996,0.5 1.516,0.637 0.523,0.14 1.074,0.211 1.656,0.211 0.937,0 1.683,-0.266 2.23,-0.793 0.551,-0.532 0.825,-1.254 0.825,-2.164 0,-0.91 -0.274,-1.633 -0.825,-2.16 -0.547,-0.536 -1.293,-0.801 -2.23,-0.801 -0.441,0 -0.879,0.054 -1.32,0.156 -0.434,0.105 -0.879,0.27 -1.336,0.492 z" /><g
         transform="scale(0.930809,1)"
         id="g108"><path
           id="path110"
           style="fill:none;stroke:#000000;stroke-width:1.43474603;stroke-linecap:butt;stroke-linejoin:round;stroke-miterlimit:4;stroke-dasharray:none;stroke-opacity:1"
           d="m 543.991,458.441 v 6.278" /></g><path
         id="path112"
         style="fill:#000000;fill-opacity:1;fill-rule:nonzero;stroke:none"
         d="m 489.836,483.137 h 2.691 v -9.977 l -2.925,0.629 v -1.609 l 2.91,-0.633 h 1.644 v 11.59 h 2.692 v 1.488 h -7.012 z" /><path
         id="path114"
         style="fill:#000000;fill-opacity:1;fill-rule:nonzero;stroke:none"
         d="m 503.691,472.715 c -0.843,0 -1.484,0.449 -1.91,1.344 -0.426,0.894 -0.64,2.242 -0.64,4.043 0,1.789 0.214,3.132 0.64,4.031 0.426,0.894 1.067,1.344 1.91,1.344 0.856,0 1.497,-0.45 1.922,-1.344 0.426,-0.899 0.641,-2.242 0.641,-4.031 0,-1.801 -0.215,-3.149 -0.641,-4.043 -0.425,-0.895 -1.066,-1.344 -1.922,-1.344 z m 0,-1.403 c 1.368,0 2.411,0.583 3.129,1.743 0.719,1.156 1.078,2.84 1.078,5.047 0,2.199 -0.359,3.878 -1.078,5.039 -0.718,1.16 -1.761,1.738 -3.129,1.738 -1.363,0 -2.402,-0.578 -3.125,-1.738 -0.718,-1.161 -1.078,-2.84 -1.078,-5.039 0,-2.207 0.36,-3.891 1.078,-5.047 0.723,-1.16 1.762,-1.743 3.125,-1.743 z" /><path
         id="path116"
         style="fill:#000000;fill-opacity:1;fill-rule:nonzero;stroke:none"
         d="m 510.793,482.398 h 1.723 v 2.227 h -1.723 z" /></g><g
       id="g118"><g
         clip-path="url(#clipPath124)"
         id="g120"><path
           id="path126"
           style="fill:#000000;fill-opacity:1;fill-rule:nonzero;stroke:none"
           d="m 519.621,472.715 c -0.848,0 -1.484,0.449 -1.914,1.344 -0.426,0.894 -0.637,2.242 -0.637,4.043 0,1.789 0.211,3.132 0.637,4.031 0.43,0.894 1.066,1.344 1.914,1.344 0.852,0 1.492,-0.45 1.918,-1.344 0.43,-0.899 0.641,-2.242 0.641,-4.031 0,-1.801 -0.211,-3.149 -0.641,-4.043 -0.426,-0.895 -1.066,-1.344 -1.918,-1.344 z m 0,-1.403 c 1.363,0 2.406,0.583 3.125,1.743 0.723,1.156 1.082,2.84 1.082,5.047 0,2.199 -0.359,3.878 -1.082,5.039 -0.719,1.16 -1.762,1.738 -3.125,1.738 -1.363,0 -2.406,-0.578 -3.125,-1.738 -0.723,-1.161 -1.082,-2.84 -1.082,-5.039 0,-2.207 0.359,-3.891 1.082,-5.047 0.719,-1.16 1.762,-1.743 3.125,-1.743 z" /></g></g><g
       id="g128"><path
         id="path130"
         style="fill:#000000;fill-opacity:1;fill-rule:nonzero;stroke:none"
         d="m 282.941,499.348 -3.304,4.769 3.472,5.039 h -1.769 l -2.656,-3.855 -2.657,3.855 h -1.769 l 3.547,-5.133 -3.246,-4.675 h 1.769 l 2.422,3.492 2.418,-3.492 z" /></g><g
       id="g132"><g
         clip-path="url(#clipPath138)"
         id="g134"><path
           id="path140"
           style="fill:#000000;fill-opacity:1;fill-rule:nonzero;stroke:none"
           d="m 290.398,495.527 h 3.457 v 1.254 h -1.957 v 13.485 h 1.957 v 1.254 h -3.457 z" /></g></g><g
       id="g142"><path
         id="path144"
         style="fill:#000000;fill-opacity:1;fill-rule:nonzero;stroke:none"
         d="m 304.156,501.23 c 0.375,-0.726 0.824,-1.261 1.348,-1.605 0.519,-0.344 1.133,-0.516 1.84,-0.516 0.949,0 1.683,0.36 2.203,1.075 0.515,0.714 0.773,1.73 0.773,3.05 v 5.922 h -1.508 v -5.871 c 0,-0.937 -0.156,-1.637 -0.468,-2.09 -0.309,-0.457 -0.782,-0.683 -1.414,-0.683 -0.778,0 -1.395,0.277 -1.844,0.832 -0.453,0.554 -0.676,1.308 -0.676,2.269 v 5.543 h -1.508 v -5.871 c 0,-0.945 -0.156,-1.644 -0.464,-2.094 -0.309,-0.453 -0.79,-0.679 -1.434,-0.679 -0.77,0 -1.379,0.277 -1.828,0.836 -0.453,0.554 -0.676,1.312 -0.676,2.265 v 5.543 h -1.508 v -9.808 h 1.508 v 1.523 c 0.34,-0.601 0.75,-1.047 1.23,-1.332 0.477,-0.285 1.047,-0.43 1.704,-0.43 0.664,0 1.226,0.184 1.691,0.547 0.465,0.36 0.809,0.883 1.031,1.574 z" /></g><g
       id="g146"><g
         clip-path="url(#clipPath152)"
         id="g148"><path
           id="path154"
           style="fill:#000000;fill-opacity:1;fill-rule:nonzero;stroke:none"
           d="m 316.816,495.527 v 15.993 h -3.457 v -1.254 h 1.95 v -13.485 h -1.95 v -1.254 z" /></g></g><g
       id="g156"><g
         transform="scale(0.930809,1)"
         id="g158"><path
           id="path160"
           style="fill:none;stroke:#000000;stroke-width:1.43474603;stroke-linecap:butt;stroke-linejoin:round;stroke-miterlimit:4;stroke-dasharray:none;stroke-opacity:1"
           d="M 92.044,458.441 H 85.766" /></g><path
         id="path162"
         style="fill:#000000;fill-opacity:1;fill-rule:nonzero;stroke:none"
         d="m 24.602,458.891 h 10.449 v 1.488 H 24.602 Z" /><path
         id="path164"
         style="fill:#000000;fill-opacity:1;fill-rule:nonzero;stroke:none"
         d="m 38.891,463.77 h 2.691 v -9.977 l -2.926,0.629 v -1.61 l 2.91,-0.632 h 1.645 v 11.59 h 2.691 v 1.484 h -7.011 z" /><path
         id="path166"
         style="fill:#000000;fill-opacity:1;fill-rule:nonzero;stroke:none"
         d="m 52.746,453.348 c -0.848,0 -1.484,0.445 -1.91,1.343 -0.426,0.895 -0.641,2.243 -0.641,4.039 0,1.793 0.215,3.137 0.641,4.036 0.426,0.894 1.062,1.343 1.91,1.343 0.856,0 1.496,-0.449 1.922,-1.343 0.426,-0.899 0.641,-2.243 0.641,-4.036 0,-1.796 -0.215,-3.144 -0.641,-4.039 -0.426,-0.898 -1.066,-1.343 -1.922,-1.343 z m 0,-1.403 c 1.367,0 2.41,0.578 3.129,1.739 0.719,1.16 1.078,2.843 1.078,5.046 0,2.204 -0.359,3.883 -1.078,5.043 -0.719,1.161 -1.762,1.739 -3.129,1.739 -1.363,0 -2.402,-0.578 -3.125,-1.739 -0.719,-1.16 -1.078,-2.839 -1.078,-5.043 0,-2.203 0.359,-3.886 1.078,-5.046 0.723,-1.161 1.762,-1.739 3.125,-1.739 z" /><path
         id="path168"
         style="fill:#000000;fill-opacity:1;fill-rule:nonzero;stroke:none"
         d="m 59.848,463.031 h 1.719 v 2.223 h -1.719 z" /><path
         id="path170"
         style="fill:#000000;fill-opacity:1;fill-rule:nonzero;stroke:none"
         d="m 68.676,453.348 c -0.848,0 -1.485,0.445 -1.914,1.343 -0.426,0.895 -0.637,2.243 -0.637,4.039 0,1.793 0.211,3.137 0.637,4.036 0.429,0.894 1.066,1.343 1.914,1.343 0.851,0 1.492,-0.449 1.918,-1.343 0.429,-0.899 0.64,-2.243 0.64,-4.036 0,-1.796 -0.211,-3.144 -0.64,-4.039 -0.426,-0.898 -1.067,-1.343 -1.918,-1.343 z m 0,-1.403 c 1.363,0 2.406,0.578 3.125,1.739 0.722,1.16 1.082,2.843 1.082,5.046 0,2.204 -0.36,3.883 -1.082,5.043 -0.719,1.161 -1.762,1.739 -3.125,1.739 -1.364,0 -2.406,-0.578 -3.125,-1.739 -0.723,-1.16 -1.082,-2.839 -1.082,-5.043 0,-2.203 0.359,-3.886 1.082,-5.046 0.719,-1.161 1.761,-1.739 3.125,-1.739 z" /><g
         transform="scale(0.930809,1)"
         id="g172"><path
           id="path174"
           style="fill:none;stroke:#000000;stroke-width:1.43474603;stroke-linecap:butt;stroke-linejoin:round;stroke-miterlimit:4;stroke-dasharray:none;stroke-opacity:1"
           d="M 92.044,401.949 H 85.766" /></g><path
         id="path176"
         style="fill:#000000;fill-opacity:1;fill-rule:nonzero;stroke:none"
         d="m 35.223,402.395 h 10.449 v 1.488 H 35.223 Z" /><path
         id="path178"
         style="fill:#000000;fill-opacity:1;fill-rule:nonzero;stroke:none"
         d="m 48.812,395.688 h 7.825 v 0.753 l -4.418,12.321 H 50.5 l 4.156,-11.582 h -5.844 z" /><path
         id="path180"
         style="fill:#000000;fill-opacity:1;fill-rule:nonzero;stroke:none"
         d="m 59.848,406.539 h 1.723 v 2.223 h -1.723 z" /><path
         id="path182"
         style="fill:#000000;fill-opacity:1;fill-rule:nonzero;stroke:none"
         d="m 65.172,395.688 h 6.465 v 1.492 H 66.68 v 3.203 c 0.238,-0.09 0.476,-0.156 0.715,-0.199 0.238,-0.043 0.48,-0.063 0.718,-0.063 1.36,0 2.434,0.399 3.227,1.199 0.797,0.801 1.191,1.883 1.191,3.246 0,1.407 -0.406,2.5 -1.222,3.282 -0.817,0.781 -1.965,1.172 -3.45,1.172 -0.511,0 -1.031,-0.047 -1.562,-0.141 -0.527,-0.094 -1.074,-0.234 -1.641,-0.422 v -1.777 c 0.489,0.285 0.996,0.496 1.516,0.636 0.523,0.141 1.074,0.211 1.656,0.211 0.942,0 1.684,-0.265 2.231,-0.797 0.55,-0.531 0.824,-1.25 0.824,-2.164 0,-0.91 -0.274,-1.628 -0.824,-2.16 -0.547,-0.531 -1.289,-0.797 -2.231,-0.797 -0.441,0 -0.879,0.051 -1.32,0.157 -0.434,0.105 -0.879,0.269 -1.336,0.492 z" /><g
         transform="scale(0.930809,1)"
         id="g184"><path
           id="path186"
           style="fill:none;stroke:#000000;stroke-width:1.43474603;stroke-linecap:butt;stroke-linejoin:round;stroke-miterlimit:4;stroke-dasharray:none;stroke-opacity:1"
           d="M 92.044,345.457 H 85.766" /></g><path
         id="path188"
         style="fill:#000000;fill-opacity:1;fill-rule:nonzero;stroke:none"
         d="m 35.223,345.902 h 10.449 v 1.488 H 35.223 Z" /><path
         id="path190"
         style="fill:#000000;fill-opacity:1;fill-rule:nonzero;stroke:none"
         d="m 49.246,339.195 h 6.461 v 1.489 H 50.75 v 3.203 c 0.238,-0.086 0.477,-0.153 0.715,-0.196 0.242,-0.043 0.48,-0.062 0.723,-0.062 1.355,0 2.433,0.398 3.226,1.199 0.793,0.797 1.191,1.879 1.191,3.246 0,1.406 -0.406,2.5 -1.222,3.281 -0.817,0.782 -1.965,1.168 -3.449,1.168 -0.512,0 -1.032,-0.046 -1.563,-0.14 -0.527,-0.094 -1.074,-0.231 -1.641,-0.418 v -1.781 c 0.489,0.285 0.993,0.5 1.516,0.64 0.524,0.141 1.074,0.211 1.652,0.211 0.942,0 1.688,-0.265 2.235,-0.797 0.551,-0.531 0.824,-1.254 0.824,-2.164 0,-0.91 -0.273,-1.629 -0.824,-2.16 -0.547,-0.531 -1.293,-0.797 -2.235,-0.797 -0.437,0 -0.878,0.051 -1.316,0.156 -0.437,0.102 -0.883,0.266 -1.336,0.489 z" /><path
         id="path192"
         style="fill:#000000;fill-opacity:1;fill-rule:nonzero;stroke:none"
         d="m 59.848,350.043 h 1.723 v 2.227 h -1.723 z" /><path
         id="path194"
         style="fill:#000000;fill-opacity:1;fill-rule:nonzero;stroke:none"
         d="m 68.676,340.359 c -0.848,0 -1.485,0.45 -1.914,1.348 -0.426,0.895 -0.637,2.238 -0.637,4.039 0,1.793 0.211,3.137 0.637,4.031 0.429,0.899 1.066,1.348 1.914,1.348 0.851,0 1.492,-0.449 1.918,-1.348 0.429,-0.894 0.64,-2.238 0.64,-4.031 0,-1.801 -0.211,-3.144 -0.64,-4.039 -0.426,-0.898 -1.067,-1.348 -1.918,-1.348 z m 0,-1.402 c 1.363,0 2.406,0.582 3.125,1.742 0.722,1.156 1.082,2.84 1.082,5.047 0,2.199 -0.36,3.883 -1.082,5.043 -0.719,1.156 -1.762,1.734 -3.125,1.734 -1.364,0 -2.406,-0.578 -3.125,-1.734 -0.723,-1.16 -1.082,-2.844 -1.082,-5.043 0,-2.207 0.359,-3.891 1.082,-5.047 0.719,-1.16 1.761,-1.742 3.125,-1.742 z" /><g
         transform="scale(0.930809,1)"
         id="g196"><path
           id="path198"
           style="fill:none;stroke:#000000;stroke-width:1.43474603;stroke-linecap:butt;stroke-linejoin:round;stroke-miterlimit:4;stroke-dasharray:none;stroke-opacity:1"
           d="M 92.044,288.961 H 85.766" /></g><path
         id="path200"
         style="fill:#000000;fill-opacity:1;fill-rule:nonzero;stroke:none"
         d="m 35.223,289.41 h 10.449 v 1.488 H 35.223 Z" /><path
         id="path202"
         style="fill:#000000;fill-opacity:1;fill-rule:nonzero;stroke:none"
         d="m 50.645,294.289 h 5.746 v 1.488 h -7.727 v -1.488 c 0.625,-0.695 1.477,-1.629 2.555,-2.797 1.078,-1.172 1.758,-1.926 2.035,-2.265 0.527,-0.637 0.894,-1.176 1.101,-1.618 0.211,-0.441 0.317,-0.871 0.317,-1.3 0,-0.692 -0.227,-1.258 -0.68,-1.696 -0.453,-0.441 -1.047,-0.66 -1.773,-0.66 -0.516,0 -1.063,0.098 -1.637,0.289 -0.57,0.192 -1.184,0.485 -1.836,0.879 v -1.789 c 0.664,-0.285 1.281,-0.504 1.856,-0.648 0.578,-0.145 1.105,-0.219 1.586,-0.219 1.257,0 2.265,0.34 3.015,1.019 0.75,0.676 1.121,1.578 1.121,2.711 0,0.539 -0.094,1.047 -0.281,1.532 -0.184,0.48 -0.527,1.046 -1.02,1.699 -0.136,0.172 -0.57,0.66 -1.296,1.469 -0.727,0.808 -1.754,1.941 -3.082,3.394 z" /><path
         id="path204"
         style="fill:#000000;fill-opacity:1;fill-rule:nonzero;stroke:none"
         d="m 59.848,293.551 h 1.723 v 2.227 h -1.723 z" /><path
         id="path206"
         style="fill:#000000;fill-opacity:1;fill-rule:nonzero;stroke:none"
         d="m 65.172,282.699 h 6.465 v 1.492 H 66.68 v 3.204 c 0.238,-0.086 0.476,-0.153 0.715,-0.196 0.238,-0.043 0.48,-0.066 0.718,-0.066 1.36,0 2.434,0.402 3.227,1.199 0.797,0.801 1.191,1.883 1.191,3.25 0,1.406 -0.406,2.5 -1.222,3.281 -0.817,0.778 -1.965,1.168 -3.45,1.168 -0.511,0 -1.031,-0.047 -1.562,-0.14 -0.527,-0.094 -1.074,-0.235 -1.641,-0.418 v -1.782 c 0.489,0.286 0.996,0.5 1.516,0.641 0.523,0.137 1.074,0.207 1.656,0.207 0.942,0 1.684,-0.266 2.231,-0.793 0.55,-0.531 0.824,-1.254 0.824,-2.164 0,-0.91 -0.274,-1.629 -0.824,-2.16 -0.547,-0.535 -1.289,-0.801 -2.231,-0.801 -0.441,0 -0.879,0.055 -1.32,0.156 -0.434,0.106 -0.879,0.27 -1.336,0.493 z" /><g
         transform="scale(0.930809,1)"
         id="g208"><path
           id="path210"
           style="fill:none;stroke:#000000;stroke-width:1.43474603;stroke-linecap:butt;stroke-linejoin:round;stroke-miterlimit:4;stroke-dasharray:none;stroke-opacity:1"
           d="M 92.044,232.469 H 85.766" /></g><path
         id="path212"
         style="fill:#000000;fill-opacity:1;fill-rule:nonzero;stroke:none"
         d="m 52.75,227.375 c -0.848,0 -1.484,0.445 -1.914,1.344 -0.426,0.894 -0.637,2.242 -0.637,4.039 0,1.793 0.211,3.137 0.637,4.035 0.43,0.895 1.066,1.344 1.914,1.344 0.852,0 1.492,-0.449 1.918,-1.344 0.43,-0.898 0.641,-2.242 0.641,-4.035 0,-1.797 -0.211,-3.145 -0.641,-4.039 -0.426,-0.899 -1.066,-1.344 -1.918,-1.344 z m 0,-1.402 c 1.363,0 2.406,0.578 3.125,1.738 0.723,1.16 1.082,2.844 1.082,5.047 0,2.203 -0.359,3.883 -1.082,5.043 -0.719,1.16 -1.762,1.738 -3.125,1.738 -1.363,0 -2.406,-0.578 -3.125,-1.738 -0.723,-1.16 -1.082,-2.84 -1.082,-5.043 0,-2.203 0.359,-3.887 1.082,-5.047 0.719,-1.16 1.762,-1.738 3.125,-1.738 z" /><path
         id="path214"
         style="fill:#000000;fill-opacity:1;fill-rule:nonzero;stroke:none"
         d="m 59.848,237.059 h 1.723 v 2.227 h -1.723 z" /><path
         id="path216"
         style="fill:#000000;fill-opacity:1;fill-rule:nonzero;stroke:none"
         d="m 68.676,227.375 c -0.848,0 -1.485,0.445 -1.91,1.344 -0.426,0.894 -0.641,2.242 -0.641,4.039 0,1.793 0.215,3.137 0.641,4.035 0.425,0.895 1.062,1.344 1.91,1.344 0.855,0 1.492,-0.449 1.918,-1.344 0.429,-0.898 0.644,-2.242 0.644,-4.035 0,-1.797 -0.215,-3.145 -0.644,-4.039 -0.426,-0.899 -1.063,-1.344 -1.918,-1.344 z m 0,-1.402 c 1.363,0 2.406,0.578 3.129,1.738 0.718,1.16 1.078,2.844 1.078,5.047 0,2.203 -0.36,3.883 -1.078,5.043 -0.723,1.16 -1.766,1.738 -3.129,1.738 -1.364,0 -2.406,-0.578 -3.125,-1.738 -0.719,-1.16 -1.078,-2.84 -1.078,-5.043 0,-2.203 0.359,-3.887 1.078,-5.047 0.719,-1.16 1.761,-1.738 3.125,-1.738 z" /><g
         transform="scale(0.930809,1)"
         id="g218"><path
           id="path220"
           style="fill:none;stroke:#000000;stroke-width:1.43474603;stroke-linecap:butt;stroke-linejoin:round;stroke-miterlimit:4;stroke-dasharray:none;stroke-opacity:1"
           d="M 92.044,175.977 H 85.766" /></g><path
         id="path222"
         style="fill:#000000;fill-opacity:1;fill-rule:nonzero;stroke:none"
         d="m 50.645,181.301 h 5.746 v 1.488 h -7.723 v -1.488 c 0.621,-0.696 1.473,-1.625 2.551,-2.797 1.082,-1.168 1.758,-1.926 2.035,-2.266 0.527,-0.636 0.894,-1.172 1.105,-1.613 0.211,-0.441 0.313,-0.875 0.313,-1.301 0,-0.695 -0.227,-1.262 -0.68,-1.699 -0.453,-0.437 -1.043,-0.656 -1.773,-0.656 -0.516,0 -1.063,0.093 -1.637,0.289 -0.57,0.191 -1.184,0.484 -1.836,0.875 v -1.789 c 0.664,-0.285 1.281,-0.5 1.859,-0.645 0.579,-0.148 1.106,-0.219 1.583,-0.219 1.261,0 2.265,0.34 3.015,1.016 0.75,0.676 1.125,1.582 1.125,2.715 0,0.535 -0.094,1.047 -0.281,1.527 -0.188,0.481 -0.527,1.047 -1.024,1.703 -0.136,0.168 -0.566,0.661 -1.296,1.469 -0.727,0.809 -1.754,1.938 -3.082,3.391 z" /><path
         id="path224"
         style="fill:#000000;fill-opacity:1;fill-rule:nonzero;stroke:none"
         d="m 59.848,180.566 h 1.723 v 2.223 h -1.723 z" /><path
         id="path226"
         style="fill:#000000;fill-opacity:1;fill-rule:nonzero;stroke:none"
         d="m 65.172,169.715 h 6.465 v 1.492 H 66.68 v 3.203 c 0.238,-0.09 0.476,-0.156 0.715,-0.199 0.242,-0.043 0.48,-0.063 0.718,-0.063 1.36,0 2.434,0.399 3.227,1.2 0.797,0.8 1.195,1.882 1.195,3.246 0,1.406 -0.41,2.5 -1.226,3.281 -0.813,0.781 -1.965,1.172 -3.446,1.172 -0.511,0 -1.035,-0.047 -1.562,-0.141 -0.531,-0.094 -1.078,-0.234 -1.641,-0.422 v -1.777 c 0.488,0.285 0.992,0.496 1.516,0.637 0.519,0.14 1.07,0.211 1.652,0.211 0.942,0 1.684,-0.266 2.234,-0.797 0.547,-0.531 0.825,-1.25 0.825,-2.164 0,-0.91 -0.278,-1.629 -0.825,-2.16 -0.55,-0.532 -1.292,-0.797 -2.234,-0.797 -0.441,0 -0.879,0.051 -1.316,0.156 -0.438,0.105 -0.883,0.269 -1.34,0.492 z" /><g
         transform="scale(0.930809,1)"
         id="g228"><path
           id="path230"
           style="fill:none;stroke:#000000;stroke-width:1.43474603;stroke-linecap:butt;stroke-linejoin:round;stroke-miterlimit:4;stroke-dasharray:none;stroke-opacity:1"
           d="M 92.044,119.484 H 85.766" /></g><path
         id="path232"
         style="fill:#000000;fill-opacity:1;fill-rule:nonzero;stroke:none"
         d="m 49.246,113.223 h 6.465 v 1.488 h -4.957 v 3.203 c 0.238,-0.086 0.476,-0.152 0.715,-0.195 0.238,-0.043 0.48,-0.063 0.719,-0.063 1.359,0 2.433,0.399 3.226,1.199 0.797,0.797 1.191,1.883 1.191,3.247 0,1.406 -0.406,2.5 -1.222,3.281 -0.817,0.781 -1.965,1.168 -3.449,1.168 -0.512,0 -1.032,-0.047 -1.563,-0.141 -0.527,-0.09 -1.074,-0.23 -1.641,-0.418 v -1.781 c 0.489,0.285 0.997,0.5 1.516,0.641 0.524,0.14 1.074,0.21 1.656,0.21 0.938,0 1.684,-0.265 2.231,-0.796 0.551,-0.532 0.824,-1.254 0.824,-2.164 0,-0.911 -0.273,-1.629 -0.824,-2.161 -0.547,-0.531 -1.293,-0.796 -2.231,-0.796 -0.441,0 -0.879,0.05 -1.32,0.156 -0.434,0.105 -0.879,0.265 -1.336,0.488 z" /><path
         id="path234"
         style="fill:#000000;fill-opacity:1;fill-rule:nonzero;stroke:none"
         d="m 59.848,124.07 h 1.723 v 2.227 h -1.723 z" /><path
         id="path236"
         style="fill:#000000;fill-opacity:1;fill-rule:nonzero;stroke:none"
         d="m 68.676,114.387 c -0.848,0 -1.485,0.449 -1.91,1.347 -0.426,0.895 -0.641,2.239 -0.641,4.039 0,1.793 0.215,3.137 0.641,4.032 0.425,0.898 1.062,1.347 1.91,1.347 0.855,0 1.492,-0.449 1.918,-1.347 0.429,-0.895 0.644,-2.239 0.644,-4.032 0,-1.8 -0.215,-3.144 -0.644,-4.039 -0.426,-0.898 -1.063,-1.347 -1.918,-1.347 z m 0,-1.403 c 1.363,0 2.406,0.582 3.129,1.743 0.718,1.156 1.078,2.839 1.078,5.046 0,2.2 -0.36,3.883 -1.078,5.043 -0.723,1.157 -1.766,1.735 -3.129,1.735 -1.364,0 -2.406,-0.578 -3.125,-1.735 -0.719,-1.16 -1.078,-2.843 -1.078,-5.043 0,-2.207 0.359,-3.89 1.078,-5.046 0.719,-1.161 1.761,-1.743 3.125,-1.743 z" /><g
         transform="scale(0.930809,1)"
         id="g238"><path
           id="path240"
           style="fill:none;stroke:#000000;stroke-width:1.43474603;stroke-linecap:butt;stroke-linejoin:round;stroke-miterlimit:4;stroke-dasharray:none;stroke-opacity:1"
           d="M 92.044,62.988 H 85.766" /></g><path
         id="path242"
         style="fill:#000000;fill-opacity:1;fill-rule:nonzero;stroke:none"
         d="m 48.812,56.73 h 7.825 v 0.75 L 52.219,69.805 H 50.5 l 4.156,-11.586 h -5.844 z" /><path
         id="path244"
         style="fill:#000000;fill-opacity:1;fill-rule:nonzero;stroke:none"
         d="m 59.848,67.578 h 1.723 v 2.227 h -1.723 z" /><path
         id="path246"
         style="fill:#000000;fill-opacity:1;fill-rule:nonzero;stroke:none"
         d="m 65.172,56.73 h 6.465 v 1.489 H 66.68 v 3.203 c 0.238,-0.086 0.476,-0.152 0.715,-0.195 0.242,-0.043 0.48,-0.067 0.718,-0.067 1.36,0 2.434,0.402 3.227,1.199 0.797,0.801 1.195,1.883 1.195,3.25 0,1.407 -0.41,2.5 -1.226,3.282 -0.813,0.777 -1.965,1.168 -3.446,1.168 -0.511,0 -1.035,-0.047 -1.562,-0.141 C 65.77,69.824 65.223,69.684 64.66,69.5 v -1.781 c 0.488,0.285 0.992,0.5 1.516,0.64 0.519,0.137 1.07,0.207 1.652,0.207 0.942,0 1.684,-0.265 2.234,-0.793 0.547,-0.531 0.825,-1.253 0.825,-2.164 0,-0.91 -0.278,-1.629 -0.825,-2.16 -0.55,-0.535 -1.292,-0.801 -2.234,-0.801 -0.441,0 -0.879,0.055 -1.316,0.157 -0.438,0.105 -0.883,0.269 -1.34,0.492 z" /><g
         transform="scale(0.930809,1)"
         id="g248"><path
           id="path250"
           style="fill:none;stroke:#000000;stroke-width:1.43474603;stroke-linecap:butt;stroke-linejoin:round;stroke-miterlimit:4;stroke-dasharray:none;stroke-opacity:1"
           d="M 92.044,6.496 H 85.766" /></g><path
         id="path252"
         style="fill:#000000;fill-opacity:1;fill-rule:nonzero;stroke:none"
         d="m 38.895,11.824 h 2.687 V 1.848 l -2.926,0.629 v -1.61 l 2.91,-0.633 h 1.645 v 11.59 h 2.691 v 1.488 h -7.007 z" /><path
         id="path254"
         style="fill:#000000;fill-opacity:1;fill-rule:nonzero;stroke:none"
         d="m 52.75,1.402 c -0.848,0 -1.484,0.446 -1.914,1.344 -0.426,0.895 -0.637,2.242 -0.637,4.039 0,1.793 0.211,3.137 0.637,4.035 0.43,0.895 1.066,1.344 1.914,1.344 0.852,0 1.492,-0.449 1.918,-1.344 0.43,-0.898 0.641,-2.242 0.641,-4.035 0,-1.797 -0.211,-3.144 -0.641,-4.039 C 54.242,1.848 53.602,1.402 52.75,1.402 Z M 52.75,0 c 1.363,0 2.406,0.578 3.125,1.738 0.719,1.16 1.082,2.844 1.082,5.047 0,2.203 -0.363,3.883 -1.082,5.043 -0.719,1.16 -1.762,1.738 -3.125,1.738 -1.363,0 -2.406,-0.578 -3.125,-1.738 -0.723,-1.16 -1.082,-2.84 -1.082,-5.043 0,-2.203 0.359,-3.887 1.082,-5.047 C 50.344,0.578 51.387,0 52.75,0 Z" /><path
         id="path256"
         style="fill:#000000;fill-opacity:1;fill-rule:nonzero;stroke:none"
         d="m 59.848,11.086 h 1.723 v 2.227 h -1.723 z" /><path
         id="path258"
         style="fill:#000000;fill-opacity:1;fill-rule:nonzero;stroke:none"
         d="m 68.676,1.402 c -0.848,0 -1.485,0.446 -1.914,1.344 -0.426,0.895 -0.637,2.242 -0.637,4.039 0,1.793 0.211,3.137 0.637,4.035 0.429,0.895 1.066,1.344 1.914,1.344 0.855,0 1.492,-0.449 1.918,-1.344 0.429,-0.898 0.644,-2.242 0.644,-4.035 0,-1.797 -0.215,-3.144 -0.644,-4.039 C 70.168,1.848 69.531,1.402 68.676,1.402 Z m 0,-1.402 c 1.363,0 2.406,0.578 3.129,1.738 0.718,1.16 1.078,2.844 1.078,5.047 0,2.203 -0.36,3.883 -1.078,5.043 -0.723,1.16 -1.766,1.738 -3.129,1.738 -1.364,0 -2.406,-0.578 -3.125,-1.738 -0.719,-1.16 -1.078,-2.84 -1.078,-5.043 0,-2.203 0.359,-3.887 1.078,-5.047 C 66.27,0.578 67.312,0 68.676,0 Z" /><path
         id="path260"
         style="fill:#000000;fill-opacity:1;fill-rule:nonzero;stroke:none"
         d="m 13.531,250.59 c 1.086,0.453 1.797,0.898 2.125,1.332 0.332,0.43 0.5,1.008 0.5,1.73 v 1.289 h -1.254 v -0.949 c 0,-0.441 -0.097,-0.785 -0.297,-1.031 -0.195,-0.246 -0.656,-0.516 -1.382,-0.813 l -0.684,-0.289 -8.984,3.965 v -1.707 l 7.14,-3.066 -7.14,-3.067 v -1.707 z" /><path
         id="path262"
         style="fill:#000000;fill-opacity:1;fill-rule:nonzero;stroke:none"
         d="m 0,238.504 v -3.715 h 1.164 v 2.102 h 12.555 v -2.102 h 1.168 v 3.715 z" /><path
         id="path264"
         style="fill:#000000;fill-opacity:1;fill-rule:nonzero;stroke:none"
         d="m 5.309,223.723 c -0.676,-0.407 -1.172,-0.887 -1.493,-1.446 -0.32,-0.562 -0.48,-1.222 -0.48,-1.98 0,-1.02 0.332,-1.809 1,-2.363 0.664,-0.555 1.609,-0.832 2.836,-0.832 h 5.512 v 1.617 H 7.223 c -0.875,0 -1.524,0.168 -1.946,0.504 -0.425,0.332 -0.636,0.839 -0.636,1.519 0,0.836 0.257,1.496 0.773,1.981 0.516,0.484 1.219,0.726 2.109,0.726 h 5.161 v 1.621 H 7.223 c -0.879,0 -1.532,0.164 -1.953,0.5 -0.418,0.332 -0.629,0.844 -0.629,1.539 0,0.825 0.257,1.481 0.777,1.965 0.52,0.485 1.219,0.727 2.105,0.727 h 5.161 v 1.617 H 3.555 v -1.617 H 4.973 C 4.414,229.434 4,228.992 3.734,228.477 c -0.265,-0.512 -0.398,-1.125 -0.398,-1.829 0,-0.714 0.168,-1.32 0.508,-1.82 0.332,-0.5 0.824,-0.867 1.465,-1.105 z" /><path
         id="path266"
         style="fill:#000000;fill-opacity:1;fill-rule:nonzero;stroke:none"
         d="m 0,210.121 h 14.887 v 3.715 h -1.168 v -2.094 H 1.164 v 2.094 H 0 Z" /></g><g
       id="g268"><g
         clip-path="url(#clipPath274)"
         id="g270"><g
           id="g276"><g
             id="g278"><g
               clip-path="url(#clipPath284)"
               id="g280"><g
                 id="g286"><g
                   id="g288"><g
                     id="g290"><g
                       clip-path="url(#clipPath296)"
                       id="g292"><g
                         id="g298"><g
                           transform="scale(0.930809,1)"
                           id="g300"><path
                             id="path302"
                             style="fill:none;stroke:#000000;stroke-width:1.20280695;stroke-linecap:butt;stroke-linejoin:round;stroke-miterlimit:4;stroke-dasharray:4.450379, 1.924495;stroke-dashoffset:0;stroke-opacity:1"
                             d="M 92.044,232.469 H 543.991" /></g></g></g></g></g><g
                   id="g304"><g
                     id="g306"><g
                       clip-path="url(#clipPath312)"
                       id="g308"><g
                         id="g314"><g
                           transform="scale(0.930809,1)"
                           id="g316"><path
                             id="path318"
                             style="fill:none;stroke:#000000;stroke-width:1.20280695;stroke-linecap:butt;stroke-linejoin:round;stroke-miterlimit:4;stroke-dasharray:4.450379, 1.924495;stroke-dashoffset:0;stroke-opacity:1"
                             d="M 318.016,458.441 V 6.496" /></g></g></g></g></g></g></g></g></g></g></g><g
       id="g320"><g
         transform="scale(0.930809,1)"
         id="g322"><path
           id="path324"
           style="fill:none;stroke:#000000;stroke-width:1.282987;stroke-linecap:square;stroke-linejoin:miter;stroke-miterlimit:4;stroke-dasharray:none;stroke-opacity:1"
           d="M 92.044,458.441 V 6.496" /></g><g
         transform="scale(0.930809,1)"
         id="g326"><path
           id="path328"
           style="fill:none;stroke:#000000;stroke-width:1.282987;stroke-linecap:square;stroke-linejoin:miter;stroke-miterlimit:4;stroke-dasharray:none;stroke-opacity:1"
           d="M 543.991,458.441 V 6.496" /></g><g
         transform="scale(0.930809,1)"
         id="g330"><path
           id="path332"
           style="fill:none;stroke:#000000;stroke-width:1.282987;stroke-linecap:square;stroke-linejoin:miter;stroke-miterlimit:4;stroke-dasharray:none;stroke-opacity:1"
           d="M 92.044,458.441 H 543.991" /></g><g
         transform="scale(0.930809,1)"
         id="g334"><path
           id="path336"
           style="fill:none;stroke:#000000;stroke-width:1.282987;stroke-linecap:square;stroke-linejoin:miter;stroke-miterlimit:4;stroke-dasharray:none;stroke-opacity:1"
           d="M 92.044,6.496 H 543.991" /></g><g
         transform="scale(0.910798,1)"
         id="g338"><path
           id="path340"
           style="fill:#008000;fill-opacity:1;fill-rule:nonzero;stroke:#289f44;stroke-width:2.27378392;stroke-linecap:butt;stroke-linejoin:round;stroke-miterlimit:4;stroke-dasharray:none;stroke-opacity:1"
           d="m 371.206,138.93 c 0,54.164 0.335,54.164 0.335,54.164" /></g><g
         transform="matrix(0,1,-0.910798,0,0,0)"
         id="g342"><path
           id="path344"
           style="fill:none;stroke:#289f44;stroke-width:2.27378392;stroke-linecap:butt;stroke-linejoin:miter;stroke-miterlimit:4;stroke-dasharray:none;stroke-opacity:1"
           d="m 145.184,-378.025 -6.821,6.819 6.821,6.823" /></g><g
         transform="scale(0.910798,1)"
         id="g346"><path
           id="path348"
           style="fill:#008000;fill-opacity:1;fill-rule:nonzero;stroke:#289f44;stroke-width:2.27378392;stroke-linecap:butt;stroke-linejoin:round;stroke-miterlimit:4;stroke-dasharray:none;stroke-opacity:1"
           d="m 370.794,193.051 c 60.777,0 60.777,-0.301 60.777,-0.301" /></g><g
         transform="scale(-0.910798,-1)"
         id="g350"><path
           id="path352"
           style="fill:none;stroke:#289f44;stroke-width:2.27378392;stroke-linecap:butt;stroke-linejoin:miter;stroke-miterlimit:4;stroke-dasharray:none;stroke-opacity:1"
           d="m -425.318,-199.57 -6.819,6.82 6.819,6.82" /></g><path
         id="path354"
         style="fill:#000000;fill-opacity:1;fill-rule:nonzero;stroke:none"
         d="m 394.859,206.301 c 0,-1.442 -0.699,-1.852 -1.152,-1.852 -0.66,0 -1.316,0.699 -1.316,1.274 0,0.328 0.125,0.492 0.41,0.781 0.578,0.535 0.906,1.195 0.906,2.141 0,1.109 -1.605,7.117 -4.648,7.117 -1.36,0 -1.977,-0.907 -1.977,-2.305 0,-1.437 0.742,-3.371 1.523,-5.555 0.207,-0.453 0.329,-0.82 0.329,-1.316 0,-1.152 -0.821,-2.137 -2.137,-2.137 -2.469,0 -3.457,3.824 -3.457,4.031 0,0.286 0.246,0.286 0.289,0.286 0.285,0 0.285,-0.082 0.41,-0.493 0.781,-2.632 1.891,-3.25 2.672,-3.25 0.207,0 0.66,0 0.66,0.825 0,0.656 -0.289,1.398 -0.453,1.851 -1.152,3.043 -1.48,4.235 -1.48,5.387 0,2.84 2.304,3.25 3.496,3.25 4.402,0 5.925,-8.68 5.925,-10.035 z" /></g><g
       id="g356"><g
         clip-path="url(#clipPath362)"
         id="g358"><g
           id="g364"><g
             id="g366"><g
               clip-path="url(#clipPath372)"
               id="g368"><g
                 id="g374"><path
                   id="path376"
                   style="fill:#000000;fill-opacity:1;fill-rule:nonzero;stroke:none"
                   d="m 399.84,218.051 c -0.164,0.617 -0.781,1.605 -1.727,1.605 -0.043,0 -0.617,0 -0.988,-0.25 0.738,-0.246 0.82,-0.902 0.82,-1.027 0,-0.41 -0.328,-0.66 -0.738,-0.66 -0.535,0 -1.07,0.414 -1.07,1.113 0,0.906 1.027,1.316 1.933,1.316 0.864,0 1.606,-0.492 2.059,-1.277 0.449,0.949 1.437,1.277 2.18,1.277 2.14,0 3.25,-2.261 3.25,-2.796 0,-0.247 -0.247,-0.247 -0.289,-0.247 -0.29,0 -0.29,0.122 -0.372,0.329 -0.367,1.273 -1.48,2.222 -2.507,2.222 -0.743,0 -1.11,-0.496 -1.11,-1.195 0,-0.492 0.449,-2.141 0.946,-4.195 0.371,-1.399 1.191,-1.852 1.808,-1.852 0.043,0 0.578,0 0.988,0.246 -0.574,0.164 -0.824,0.699 -0.824,1.028 0,0.371 0.332,0.66 0.742,0.66 0.411,0 1.028,-0.328 1.028,-1.114 0,-1.027 -1.192,-1.355 -1.891,-1.355 -0.949,0 -1.687,0.617 -2.058,1.316 -0.329,-0.742 -1.192,-1.316 -2.223,-1.316 -2.055,0 -3.207,2.262 -3.207,2.84 0,0.203 0.246,0.203 0.289,0.203 0.246,0 0.246,-0.039 0.367,-0.285 0.453,-1.442 1.606,-2.223 2.512,-2.223 0.617,0 1.109,0.328 1.109,1.191 0,0.372 -0.246,1.278 -0.41,1.934 z" /></g></g></g></g></g></g><g
       id="g378"><path
         id="path380"
         style="fill:#000000;fill-opacity:1;fill-rule:nonzero;stroke:none"
         d="m 359.859,144.352 c 0,-1.34 -0.648,-1.727 -1.07,-1.727 -0.613,0 -1.227,0.652 -1.227,1.191 0,0.305 0.114,0.457 0.383,0.727 0.535,0.5 0.844,1.113 0.844,1.992 0,1.035 -1.496,6.633 -4.332,6.633 -1.266,0 -1.84,-0.844 -1.84,-2.148 0,-1.34 0.692,-3.141 1.418,-5.172 0.192,-0.422 0.305,-0.77 0.305,-1.227 0,-1.074 -0.766,-1.996 -1.992,-1.996 -2.297,0 -3.219,3.566 -3.219,3.758 0,0.269 0.23,0.269 0.269,0.269 0.266,0 0.266,-0.078 0.383,-0.461 0.727,-2.453 1.762,-3.027 2.492,-3.027 0.192,0 0.614,0 0.614,0.766 0,0.613 -0.27,1.304 -0.422,1.726 -1.074,2.836 -1.383,3.946 -1.383,5.02 0,2.644 2.148,3.027 3.258,3.027 4.101,0 5.519,-8.086 5.519,-9.351 z" /></g><g
       id="g382"><g
         clip-path="url(#clipPath388)"
         id="g384"><g
           id="g390"><g
             id="g392"><g
               clip-path="url(#clipPath398)"
               id="g394"><g
                 id="g400"><path
                   id="path402"
                   style="fill:#000000;fill-opacity:1;fill-rule:nonzero;stroke:none"
                   d="m 369.75,150.66 c 0.078,-0.23 0.078,-0.269 0.078,-0.383 0,-0.343 -0.269,-0.535 -0.574,-0.535 -0.192,0 -0.5,0.074 -0.692,0.383 -0.074,0.113 -0.191,0.652 -0.269,0.996 l -0.383,1.418 c -0.074,0.422 -0.613,2.566 -0.687,2.758 0,0 -0.77,1.496 -2.071,1.496 -1.187,0 -1.187,-1.113 -1.187,-1.418 0,-0.922 0.383,-1.992 0.918,-3.336 0.191,-0.535 0.269,-0.727 0.269,-1.035 0,-0.805 -0.691,-1.453 -1.609,-1.453 -1.727,0 -2.492,2.336 -2.492,2.644 0,0.192 0.23,0.192 0.308,0.192 0.227,0 0.227,-0.078 0.305,-0.27 0.422,-1.418 1.148,-2.07 1.84,-2.07 0.269,0 0.422,0.191 0.422,0.574 0,0.422 -0.153,0.77 -0.231,0.996 -0.843,2.11 -0.996,2.723 -0.996,3.488 0,0.27 0,1.075 0.653,1.649 0.535,0.422 1.265,0.5 1.722,0.5 0.692,0 1.305,-0.231 1.84,-0.77 -0.191,0.961 -0.383,1.688 -1.109,2.532 -0.461,0.535 -1.153,1.074 -2.071,1.074 -0.117,0 -0.922,0 -1.265,-0.539 0.922,-0.113 0.922,-0.918 0.922,-0.957 0,-0.535 -0.5,-0.653 -0.653,-0.653 -0.422,0 -0.996,0.348 -0.996,1.153 0,0.844 0.805,1.492 2.031,1.492 1.723,0 3.832,-1.34 4.368,-3.488 z" /></g></g></g></g></g></g></g></svg>