<?xml version="1.0" encoding="UTF-8" standalone="no"?>
<svg
   xmlns:dc="http://purl.org/dc/elements/1.1/"
   xmlns:cc="http://creativecommons.org/ns#"
   xmlns:rdf="http://www.w3.org/1999/02/22-rdf-syntax-ns#"
   xmlns:svg="http://www.w3.org/2000/svg"
   xmlns="http://www.w3.org/2000/svg"
   xmlns:sodipodi="http://sodipodi.sourceforge.net/DTD/sodipodi-0.dtd"
   xmlns:inkscape="http://www.inkscape.org/namespaces/inkscape"
   sodipodi:docname="lunar_lander.svg"
   version="1.1"
   id="svg2"
   xml:space="preserve"
   width="941.77295"
   height="739.40857"
   viewBox="0 0 941.77295 739.40857"
   inkscape:version="0.92.5 (2060ec1f9f, 2020-04-08)"><sodipodi:namedview
     pagecolor="#ffffff"
     bordercolor="#666666"
     borderopacity="1"
     objecttolerance="10"
     gridtolerance="10"
     guidetolerance="10"
     inkscape:pageopacity="0"
     inkscape:pageshadow="2"
     inkscape:window-width="3952"
     inkscape:window-height="2176"
     id="namedview5524"
     showgrid="false"
     inkscape:zoom="3.6110417"
     inkscape:cx="396.14982"
     inkscape:cy="404.05884"
     inkscape:window-x="144"
     inkscape:window-y="54"
     inkscape:window-maximized="1"
     inkscape:current-layer="g310" /><metadata
     id="metadata8"><rdf:RDF><cc:Work
         rdf:about=""><dc:format>image/svg+xml</dc:format><dc:type
           rdf:resource="http://purl.org/dc/dcmitype/StillImage" /></cc:Work></rdf:RDF></metadata><defs
     id="defs6"><clipPath
       id="clipPath20"
       clipPathUnits="userSpaceOnUse"><path
         id="path18"
         d="M 0,0 H 706 V 554 H 0 Z" /></clipPath><clipPath
       id="clipPath26"
       clipPathUnits="userSpaceOnUse"><path
         id="path24"
         d="M 1344.199,1469.16 -748.504,277.988 -77.84,-1018.379 2014.859,172.793 Z" /></clipPath><clipPath
       id="clipPath36"
       clipPathUnits="userSpaceOnUse"><path
         id="path34"
         d="M 0,0 H 707 V 555 H 0 Z" /></clipPath><clipPath
       id="clipPath48"
       clipPathUnits="userSpaceOnUse"><path
         id="path46"
         d="M 0,0 H 707 V 555 H 0 Z" /></clipPath><clipPath
       id="clipPath146"
       clipPathUnits="userSpaceOnUse"><path
         id="path144"
         d="m 451,541 h 4 v 13 h -4 z" /></clipPath><clipPath
       id="clipPath160"
       clipPathUnits="userSpaceOnUse"><path
         id="path158"
         d="m 471,541 h 4 v 13 h -4 z" /></clipPath><clipPath
       id="clipPath226"
       clipPathUnits="userSpaceOnUse"><path
         id="path224"
         d="M 51.27,73.324 H 704.153 V 496.437 H 51.27 Z" /></clipPath><clipPath
       id="clipPath236"
       clipPathUnits="userSpaceOnUse"><path
         id="path234"
         d="M 0,0 H 707 V 555 H 0 Z" /></clipPath><clipPath
       id="clipPath248"
       clipPathUnits="userSpaceOnUse"><path
         id="path246"
         d="M 0,0 H 707 V 555 H 0 Z" /></clipPath><clipPath
       id="clipPath262"
       clipPathUnits="userSpaceOnUse"><path
         id="path260"
         d="M 51.27,5.438 H 706 V 510.126 H 51.27 Z" /></clipPath><clipPath
       id="clipPath272"
       clipPathUnits="userSpaceOnUse"><path
         id="path270"
         d="M 0,0 H 707 V 555 H 0 Z" /></clipPath><clipPath
       id="clipPath284"
       clipPathUnits="userSpaceOnUse"><path
         id="path282"
         d="M 0,0 H 707 V 555 H 0 Z" /></clipPath><clipPath
       id="clipPath304"
       clipPathUnits="userSpaceOnUse"><path
         id="path302"
         d="m 704,4 h 2 v 507 h -2 z" /></clipPath></defs><g
     transform="matrix(1.3333333,0,0,1.3333333,0,1.9151881e-5)"
     id="g10"><g
       id="g12" /><g
       id="g14"><g
         clip-path="url(#clipPath20)"
         id="g16"><g
           clip-path="url(#clipPath26)"
           id="g22"><g
             id="g28"><g
               id="g30"><g
                 clip-path="url(#clipPath36)"
                 id="g32"><g
                   id="g38"><g
                     id="g40"><g
                       id="g42"><g
                         clip-path="url(#clipPath48)"
                         id="g44"><g
                           id="g50"><g
                             transform="matrix(-0.968569,-0.551313,0.517339,-1,0,0)"
                             id="g52"><path
                               id="path54"
                               style="fill:#000000;fill-opacity:1;fill-rule:nonzero;stroke:#000000;stroke-width:4.71698999;stroke-linecap:butt;stroke-linejoin:round;stroke-miterlimit:4;stroke-dasharray:none;stroke-opacity:1"
                               d="m -509.922,151.76 -10.835,2.941 -3.984,8.33 -11.223,-5.367 1.98,-4.147 -17.797,-3.782 22.458,-5.959 12.408,-25.954 12.412,-25.956 -9.463,-21.221 14.119,11.478 1.985,-4.145 11.223,5.367 -3.982,8.332 4.513,10.278 -9.429,26.088 z" /></g></g></g></g></g></g></g></g></g></g></g></g><g
       id="g56"><g
         transform="scale(0.964126,1)"
         id="g58"><path
           id="path60"
           style="fill:none;stroke:#000000;stroke-width:1.20103002;stroke-linecap:butt;stroke-linejoin:round;stroke-miterlimit:4;stroke-dasharray:none;stroke-opacity:1"
           d="m 53.177,510.125 v 5.254" /></g><path
         id="path62"
         style="fill:#000000;fill-opacity:1;fill-rule:nonzero;stroke:none"
         d="m 30.625,526.711 h 9.059 v 1.246 h -9.059 z" /><path
         id="path64"
         style="fill:#000000;fill-opacity:1;fill-rule:nonzero;stroke:none"
         d="m 43.016,530.797 h 2.328 v -8.352 l -2.535,0.528 v -1.348 l 2.523,-0.527 h 1.426 v 9.699 h 2.332 v 1.246 h -6.074 z" /><path
         id="path66"
         style="fill:#000000;fill-opacity:1;fill-rule:nonzero;stroke:none"
         d="m 55.027,522.07 c -0.734,0 -1.285,0.379 -1.656,1.129 -0.371,0.746 -0.555,1.875 -0.555,3.383 0,1.5 0.184,2.625 0.555,3.375 0.371,0.75 0.922,1.125 1.656,1.125 0.739,0 1.297,-0.375 1.664,-1.125 0.371,-0.75 0.555,-1.875 0.555,-3.375 0,-1.508 -0.184,-2.637 -0.555,-3.383 -0.367,-0.75 -0.925,-1.129 -1.664,-1.129 z m 0,-1.172 c 1.184,0 2.086,0.489 2.711,1.457 0.625,0.969 0.938,2.379 0.938,4.227 0,1.84 -0.313,3.246 -0.938,4.219 -0.625,0.969 -1.527,1.453 -2.711,1.453 -1.183,0 -2.086,-0.484 -2.711,-1.453 -0.621,-0.973 -0.933,-2.379 -0.933,-4.219 0,-1.848 0.312,-3.258 0.933,-4.227 0.625,-0.968 1.528,-1.457 2.711,-1.457 z" /><path
         id="path68"
         style="fill:#000000;fill-opacity:1;fill-rule:nonzero;stroke:none"
         d="m 61.184,530.18 h 1.492 v 1.863 h -1.492 z" /><path
         id="path70"
         style="fill:#000000;fill-opacity:1;fill-rule:nonzero;stroke:none"
         d="m 68.836,522.07 c -0.734,0 -1.285,0.379 -1.656,1.129 -0.371,0.746 -0.555,1.875 -0.555,3.383 0,1.5 0.184,2.625 0.555,3.375 0.371,0.75 0.922,1.125 1.656,1.125 0.742,0 1.297,-0.375 1.664,-1.125 0.371,-0.75 0.559,-1.875 0.559,-3.375 0,-1.508 -0.188,-2.637 -0.559,-3.383 -0.367,-0.75 -0.922,-1.129 -1.664,-1.129 z m 0,-1.172 c 1.184,0 2.09,0.489 2.711,1.457 0.625,0.969 0.937,2.379 0.937,4.227 0,1.84 -0.312,3.246 -0.937,4.219 -0.621,0.969 -1.527,1.453 -2.711,1.453 -1.18,0 -2.086,-0.484 -2.707,-1.453 -0.625,-0.973 -0.938,-2.379 -0.938,-4.219 0,-1.848 0.313,-3.258 0.938,-4.227 0.621,-0.968 1.527,-1.457 2.707,-1.457 z" /><g
         transform="scale(0.964126,1)"
         id="g72"><path
           id="path74"
           style="fill:none;stroke:#000000;stroke-width:1.20103002;stroke-linecap:butt;stroke-linejoin:round;stroke-miterlimit:4;stroke-dasharray:none;stroke-opacity:1"
           d="m 158.32,510.125 v 5.254" /></g><path
         id="path76"
         style="fill:#000000;fill-opacity:1;fill-rule:nonzero;stroke:none"
         d="m 136.598,526.711 h 9.062 v 1.246 h -9.062 z" /><path
         id="path78"
         style="fill:#000000;fill-opacity:1;fill-rule:nonzero;stroke:none"
         d="m 148.383,521.098 h 6.781 v 0.629 l -3.828,10.316 h -1.492 l 3.605,-9.699 h -5.066 z" /><path
         id="path80"
         style="fill:#000000;fill-opacity:1;fill-rule:nonzero;stroke:none"
         d="m 157.949,530.18 h 1.492 v 1.863 h -1.492 z" /><path
         id="path82"
         style="fill:#000000;fill-opacity:1;fill-rule:nonzero;stroke:none"
         d="m 162.566,521.098 h 5.606 v 1.246 h -4.297 v 2.683 c 0.207,-0.074 0.41,-0.129 0.617,-0.168 0.211,-0.035 0.418,-0.05 0.625,-0.05 1.18,0 2.11,0.332 2.797,1.003 0.691,0.668 1.035,1.575 1.035,2.719 0,1.176 -0.355,2.094 -1.062,2.746 -0.707,0.653 -1.703,0.977 -2.989,0.977 -0.445,0 -0.894,-0.039 -1.355,-0.117 -0.457,-0.078 -0.934,-0.196 -1.422,-0.352 v -1.488 c 0.422,0.238 0.863,0.418 1.313,0.535 0.453,0.117 0.933,0.176 1.433,0.176 0.817,0 1.461,-0.223 1.938,-0.668 0.476,-0.442 0.715,-1.047 0.715,-1.809 0,-0.761 -0.239,-1.367 -0.715,-1.808 -0.477,-0.446 -1.121,-0.668 -1.938,-0.668 -0.379,0 -0.762,0.043 -1.14,0.129 -0.379,0.089 -0.766,0.226 -1.161,0.41 z" /><g
         transform="scale(0.964126,1)"
         id="g84"><path
           id="path86"
           style="fill:none;stroke:#000000;stroke-width:1.20103002;stroke-linecap:butt;stroke-linejoin:round;stroke-miterlimit:4;stroke-dasharray:none;stroke-opacity:1"
           d="m 263.463,510.125 v 5.254" /></g><path
         id="path88"
         style="fill:#000000;fill-opacity:1;fill-rule:nonzero;stroke:none"
         d="m 237.969,526.711 h 9.062 v 1.246 h -9.062 z" /><path
         id="path90"
         style="fill:#000000;fill-opacity:1;fill-rule:nonzero;stroke:none"
         d="m 250.129,521.098 h 5.601 v 1.246 h -4.296 v 2.683 c 0.207,-0.074 0.414,-0.129 0.621,-0.168 0.207,-0.035 0.414,-0.05 0.625,-0.05 1.175,0 2.109,0.332 2.797,1.003 0.687,0.668 1.035,1.575 1.035,2.719 0,1.176 -0.356,2.094 -1.063,2.746 -0.707,0.653 -1.703,0.977 -2.988,0.977 -0.445,0 -0.895,-0.039 -1.356,-0.117 -0.46,-0.078 -0.933,-0.196 -1.421,-0.352 v -1.488 c 0.421,0.238 0.859,0.418 1.312,0.535 0.453,0.117 0.93,0.176 1.434,0.176 0.816,0 1.461,-0.223 1.937,-0.668 0.477,-0.442 0.715,-1.047 0.715,-1.809 0,-0.761 -0.238,-1.367 -0.715,-1.808 -0.476,-0.446 -1.121,-0.668 -1.937,-0.668 -0.383,0 -0.762,0.043 -1.141,0.129 -0.379,0.089 -0.766,0.226 -1.16,0.41 z" /><path
         id="path92"
         style="fill:#000000;fill-opacity:1;fill-rule:nonzero;stroke:none"
         d="m 259.32,530.18 h 1.492 v 1.863 h -1.492 z" /><path
         id="path94"
         style="fill:#000000;fill-opacity:1;fill-rule:nonzero;stroke:none"
         d="m 266.977,522.07 c -0.735,0 -1.289,0.379 -1.661,1.129 -0.367,0.746 -0.554,1.875 -0.554,3.383 0,1.5 0.187,2.625 0.554,3.375 0.372,0.75 0.926,1.125 1.661,1.125 0.738,0 1.293,-0.375 1.664,-1.125 0.371,-0.75 0.554,-1.875 0.554,-3.375 0,-1.508 -0.183,-2.637 -0.554,-3.383 -0.371,-0.75 -0.926,-1.129 -1.664,-1.129 z m 0,-1.172 c 1.183,0 2.085,0.489 2.711,1.457 0.624,0.969 0.933,2.379 0.933,4.227 0,1.84 -0.309,3.246 -0.933,4.219 -0.626,0.969 -1.528,1.453 -2.711,1.453 -1.184,0 -2.086,-0.484 -2.711,-1.453 -0.625,-0.973 -0.938,-2.379 -0.938,-4.219 0,-1.848 0.313,-3.258 0.938,-4.227 0.625,-0.968 1.527,-1.457 2.711,-1.457 z" /><g
         transform="scale(0.964126,1)"
         id="g96"><path
           id="path98"
           style="fill:none;stroke:#000000;stroke-width:1.20103002;stroke-linecap:butt;stroke-linejoin:round;stroke-miterlimit:4;stroke-dasharray:none;stroke-opacity:1"
           d="m 368.606,510.125 v 5.254" /></g><path
         id="path100"
         style="fill:#000000;fill-opacity:1;fill-rule:nonzero;stroke:none"
         d="m 339.34,526.711 h 9.062 v 1.246 h -9.062 z" /><path
         id="path102"
         style="fill:#000000;fill-opacity:1;fill-rule:nonzero;stroke:none"
         d="m 352.715,530.797 h 4.98 v 1.246 h -6.699 v -1.246 c 0.543,-0.582 1.281,-1.363 2.215,-2.344 0.937,-0.98 1.523,-1.609 1.766,-1.894 0.457,-0.532 0.773,-0.985 0.953,-1.352 0.183,-0.371 0.277,-0.734 0.277,-1.09 0,-0.582 -0.199,-1.055 -0.594,-1.422 -0.39,-0.367 -0.906,-0.55 -1.535,-0.55 -0.449,0 -0.922,0.082 -1.418,0.242 -0.496,0.16 -1.027,0.406 -1.594,0.734 v -1.496 c 0.575,-0.238 1.114,-0.422 1.61,-0.543 0.5,-0.121 0.961,-0.184 1.375,-0.184 1.094,0 1.965,0.286 2.613,0.852 0.648,0.566 0.977,1.324 0.977,2.273 0,0.45 -0.082,0.875 -0.246,1.278 -0.161,0.402 -0.457,0.879 -0.887,1.426 -0.117,0.14 -0.492,0.55 -1.125,1.23 -0.629,0.676 -1.52,1.621 -2.668,2.84 z" /><path
         id="path104"
         style="fill:#000000;fill-opacity:1;fill-rule:nonzero;stroke:none"
         d="m 360.691,530.18 h 1.492 v 1.863 h -1.492 z" /><path
         id="path106"
         style="fill:#000000;fill-opacity:1;fill-rule:nonzero;stroke:none"
         d="m 365.309,521.098 h 5.605 v 1.246 h -4.297 v 2.683 c 0.207,-0.074 0.41,-0.129 0.617,-0.168 0.211,-0.035 0.418,-0.05 0.625,-0.05 1.18,0 2.11,0.332 2.797,1.003 0.692,0.668 1.035,1.575 1.035,2.719 0,1.176 -0.355,2.094 -1.062,2.746 -0.707,0.653 -1.703,0.977 -2.988,0.977 -0.446,0 -0.895,-0.039 -1.356,-0.117 -0.457,-0.078 -0.933,-0.196 -1.422,-0.352 v -1.488 c 0.422,0.238 0.864,0.418 1.313,0.535 0.453,0.117 0.933,0.176 1.433,0.176 0.817,0 1.461,-0.223 1.938,-0.668 0.476,-0.442 0.715,-1.047 0.715,-1.809 0,-0.761 -0.239,-1.367 -0.715,-1.808 -0.477,-0.446 -1.121,-0.668 -1.938,-0.668 -0.379,0 -0.761,0.043 -1.14,0.129 -0.379,0.089 -0.766,0.226 -1.16,0.41 z" /><g
         transform="scale(0.964126,1)"
         id="g108"><path
           id="path110"
           style="fill:none;stroke:#000000;stroke-width:1.20103002;stroke-linecap:butt;stroke-linejoin:round;stroke-miterlimit:4;stroke-dasharray:none;stroke-opacity:1"
           d="m 473.749,510.125 v 5.254" /></g><path
         id="path112"
         style="fill:#000000;fill-opacity:1;fill-rule:nonzero;stroke:none"
         d="m 449.844,522.07 c -0.735,0 -1.285,0.379 -1.656,1.129 -0.372,0.746 -0.555,1.875 -0.555,3.383 0,1.5 0.183,2.625 0.555,3.375 0.371,0.75 0.921,1.125 1.656,1.125 0.742,0 1.297,-0.375 1.664,-1.125 0.371,-0.75 0.558,-1.875 0.558,-3.375 0,-1.508 -0.187,-2.637 -0.558,-3.383 -0.367,-0.75 -0.922,-1.129 -1.664,-1.129 z m 0,-1.172 c 1.183,0 2.086,0.489 2.711,1.457 0.625,0.969 0.937,2.379 0.937,4.227 0,1.84 -0.312,3.246 -0.937,4.219 -0.625,0.969 -1.528,1.453 -2.711,1.453 -1.184,0 -2.086,-0.484 -2.711,-1.453 -0.621,-0.973 -0.934,-2.379 -0.934,-4.219 0,-1.848 0.313,-3.258 0.934,-4.227 0.625,-0.968 1.527,-1.457 2.711,-1.457 z" /><path
         id="path114"
         style="fill:#000000;fill-opacity:1;fill-rule:nonzero;stroke:none"
         d="m 456,530.18 h 1.492 v 1.863 H 456 Z" /><path
         id="path116"
         style="fill:#000000;fill-opacity:1;fill-rule:nonzero;stroke:none"
         d="m 463.652,522.07 c -0.734,0 -1.285,0.379 -1.656,1.129 -0.371,0.746 -0.555,1.875 -0.555,3.383 0,1.5 0.184,2.625 0.555,3.375 0.371,0.75 0.922,1.125 1.656,1.125 0.743,0 1.297,-0.375 1.664,-1.125 0.372,-0.75 0.559,-1.875 0.559,-3.375 0,-1.508 -0.187,-2.637 -0.559,-3.383 -0.367,-0.75 -0.921,-1.129 -1.664,-1.129 z m 0,-1.172 c 1.184,0 2.09,0.489 2.715,1.457 0.621,0.969 0.934,2.379 0.934,4.227 0,1.84 -0.313,3.246 -0.934,4.219 -0.625,0.969 -1.531,1.453 -2.715,1.453 -1.179,0 -2.082,-0.484 -2.707,-1.453 -0.625,-0.973 -0.937,-2.379 -0.937,-4.219 0,-1.848 0.312,-3.258 0.937,-4.227 0.625,-0.968 1.528,-1.457 2.707,-1.457 z" /><g
         transform="scale(0.964126,1)"
         id="g118"><path
           id="path120"
           style="fill:none;stroke:#000000;stroke-width:1.20103002;stroke-linecap:butt;stroke-linejoin:round;stroke-miterlimit:4;stroke-dasharray:none;stroke-opacity:1"
           d="m 578.892,510.125 v 5.254" /></g><path
         id="path122"
         style="fill:#000000;fill-opacity:1;fill-rule:nonzero;stroke:none"
         d="m 549.391,530.797 h 4.984 v 1.246 h -6.699 v -1.246 c 0.539,-0.582 1.277,-1.363 2.215,-2.344 0.933,-0.98 1.523,-1.609 1.761,-1.894 0.457,-0.532 0.778,-0.985 0.957,-1.352 0.184,-0.371 0.274,-0.734 0.274,-1.09 0,-0.582 -0.195,-1.055 -0.59,-1.422 -0.395,-0.367 -0.906,-0.55 -1.539,-0.55 -0.445,0 -0.918,0.082 -1.418,0.242 -0.496,0.16 -1.024,0.406 -1.59,0.734 v -1.496 c 0.574,-0.238 1.109,-0.422 1.609,-0.543 0.5,-0.121 0.957,-0.184 1.375,-0.184 1.09,0 1.961,0.286 2.614,0.852 0.648,0.566 0.972,1.324 0.972,2.273 0,0.45 -0.078,0.875 -0.242,1.278 -0.16,0.402 -0.457,0.879 -0.886,1.426 -0.118,0.14 -0.493,0.55 -1.126,1.23 -0.628,0.676 -1.519,1.621 -2.671,2.84 z" /><path
         id="path124"
         style="fill:#000000;fill-opacity:1;fill-rule:nonzero;stroke:none"
         d="m 557.371,530.18 h 1.492 v 1.863 h -1.492 z" /><path
         id="path126"
         style="fill:#000000;fill-opacity:1;fill-rule:nonzero;stroke:none"
         d="m 561.988,521.098 h 5.606 v 1.246 h -4.301 v 2.683 c 0.207,-0.074 0.414,-0.129 0.621,-0.168 0.207,-0.035 0.418,-0.05 0.625,-0.05 1.176,0 2.109,0.332 2.797,1.003 0.687,0.668 1.035,1.575 1.035,2.719 0,1.176 -0.355,2.094 -1.062,2.746 -0.707,0.653 -1.704,0.977 -2.989,0.977 -0.445,0 -0.894,-0.039 -1.355,-0.117 -0.457,-0.078 -0.934,-0.196 -1.422,-0.352 v -1.488 c 0.422,0.238 0.859,0.418 1.312,0.535 0.454,0.117 0.93,0.176 1.434,0.176 0.816,0 1.461,-0.223 1.938,-0.668 0.476,-0.442 0.714,-1.047 0.714,-1.809 0,-0.761 -0.238,-1.367 -0.714,-1.808 -0.477,-0.446 -1.122,-0.668 -1.938,-0.668 -0.379,0 -0.762,0.043 -1.141,0.129 -0.378,0.089 -0.765,0.226 -1.16,0.41 z" /><g
         transform="scale(0.964126,1)"
         id="g128"><path
           id="path130"
           style="fill:none;stroke:#000000;stroke-width:1.20103002;stroke-linecap:butt;stroke-linejoin:round;stroke-miterlimit:4;stroke-dasharray:none;stroke-opacity:1"
           d="m 684.035,510.125 v 5.254" /></g><path
         id="path132"
         style="fill:#000000;fill-opacity:1;fill-rule:nonzero;stroke:none"
         d="m 649.547,521.098 h 5.605 v 1.246 h -4.297 v 2.683 c 0.207,-0.074 0.415,-0.129 0.622,-0.168 0.207,-0.035 0.414,-0.05 0.625,-0.05 1.175,0 2.109,0.332 2.796,1.003 0.688,0.668 1.032,1.575 1.032,2.719 0,1.176 -0.352,2.094 -1.059,2.746 -0.707,0.653 -1.703,0.977 -2.992,0.977 -0.441,0 -0.895,-0.039 -1.352,-0.117 -0.461,-0.078 -0.933,-0.196 -1.425,-0.352 v -1.488 c 0.425,0.238 0.863,0.418 1.316,0.535 0.453,0.117 0.93,0.176 1.434,0.176 0.816,0 1.46,-0.223 1.933,-0.668 0.477,-0.442 0.715,-1.047 0.715,-1.809 0,-0.761 -0.238,-1.367 -0.715,-1.808 -0.473,-0.446 -1.117,-0.668 -1.933,-0.668 -0.383,0 -0.762,0.043 -1.145,0.129 -0.375,0.089 -0.762,0.226 -1.16,0.41 z" /><path
         id="path134"
         style="fill:#000000;fill-opacity:1;fill-rule:nonzero;stroke:none"
         d="m 658.742,530.18 h 1.492 v 1.863 h -1.492 z" /><path
         id="path136"
         style="fill:#000000;fill-opacity:1;fill-rule:nonzero;stroke:none"
         d="m 666.395,522.07 c -0.735,0 -1.286,0.379 -1.657,1.129 -0.371,0.746 -0.554,1.875 -0.554,3.383 0,1.5 0.183,2.625 0.554,3.375 0.371,0.75 0.922,1.125 1.657,1.125 0.742,0 1.296,-0.375 1.667,-1.125 0.368,-0.75 0.555,-1.875 0.555,-3.375 0,-1.508 -0.187,-2.637 -0.555,-3.383 -0.371,-0.75 -0.925,-1.129 -1.667,-1.129 z m 0,-1.172 c 1.183,0 2.089,0.489 2.714,1.457 0.621,0.969 0.934,2.379 0.934,4.227 0,1.84 -0.313,3.246 -0.934,4.219 -0.625,0.969 -1.531,1.453 -2.714,1.453 -1.18,0 -2.083,-0.484 -2.707,-1.453 -0.626,-0.973 -0.938,-2.379 -0.938,-4.219 0,-1.848 0.312,-3.258 0.938,-4.227 0.624,-0.968 1.527,-1.457 2.707,-1.457 z" /><path
         id="path138"
         style="fill:#000000;fill-opacity:1;fill-rule:nonzero;stroke:none"
         d="m 445.418,544.367 -2.863,3.992 3.011,4.219 h -1.535 l -2.304,-3.226 -2.301,3.226 h -1.535 l 3.074,-4.297 -2.813,-3.914 h 1.532 l 2.101,2.926 2.098,-2.926 z" /></g><g
       id="g140"><g
         clip-path="url(#clipPath146)"
         id="g142"><path
           id="path148"
           style="fill:#000000;fill-opacity:1;fill-rule:nonzero;stroke:none"
           d="m 451.883,541.168 h 2.996 v 1.051 h -1.695 v 11.289 h 1.695 v 1.047 h -2.996 z" /></g></g><g
       id="g150"><path
         id="path152"
         style="fill:#000000;fill-opacity:1;fill-rule:nonzero;stroke:none"
         d="m 463.812,545.941 c 0.329,-0.605 0.715,-1.05 1.168,-1.339 0.454,-0.29 0.985,-0.434 1.598,-0.434 0.824,0 1.461,0.301 1.906,0.898 0.45,0.598 0.672,1.45 0.672,2.555 v 4.957 h -1.304 v -4.914 c 0,-0.785 -0.137,-1.371 -0.407,-1.75 -0.269,-0.383 -0.675,-0.57 -1.226,-0.57 -0.676,0 -1.207,0.23 -1.602,0.695 -0.39,0.461 -0.586,1.094 -0.586,1.899 v 4.64 h -1.304 v -4.914 c 0,-0.789 -0.137,-1.375 -0.403,-1.754 -0.269,-0.379 -0.683,-0.566 -1.246,-0.566 -0.664,0 -1.191,0.23 -1.586,0.699 -0.39,0.465 -0.586,1.098 -0.586,1.895 v 4.64 h -1.304 v -8.211 h 1.304 v 1.274 c 0.297,-0.5 0.656,-0.875 1.071,-1.114 0.414,-0.238 0.906,-0.359 1.476,-0.359 0.574,0 1.063,0.152 1.465,0.457 0.406,0.301 0.703,0.742 0.894,1.316 z" /></g><g
       id="g154"><g
         clip-path="url(#clipPath160)"
         id="g156"><path
           id="path162"
           style="fill:#000000;fill-opacity:1;fill-rule:nonzero;stroke:none"
           d="m 474.789,541.168 v 13.387 h -2.996 v -1.047 h 1.691 v -11.289 h -1.691 v -1.051 z" /></g></g><g
       id="g164"><g
         transform="scale(0.964126,1)"
         id="g166"><path
           id="path168"
           style="fill:none;stroke:#000000;stroke-width:1.20103002;stroke-linecap:butt;stroke-linejoin:round;stroke-miterlimit:4;stroke-dasharray:none;stroke-opacity:1"
           d="M 53.177,510.125 H 47.922" /></g><path
         id="path170"
         style="fill:#000000;fill-opacity:1;fill-rule:nonzero;stroke:none"
         d="m 21.332,510.5 h 9.059 v 1.246 h -9.059 z" /><path
         id="path172"
         style="fill:#000000;fill-opacity:1;fill-rule:nonzero;stroke:none"
         d="m 34.703,514.582 h 4.985 v 1.246 h -6.7 v -1.246 c 0.539,-0.582 1.278,-1.359 2.211,-2.34 0.938,-0.98 1.528,-1.613 1.766,-1.898 0.457,-0.532 0.777,-0.981 0.957,-1.352 0.183,-0.367 0.273,-0.73 0.273,-1.086 0,-0.582 -0.195,-1.058 -0.59,-1.422 -0.394,-0.367 -0.906,-0.55 -1.539,-0.55 -0.445,0 -0.918,0.078 -1.418,0.238 -0.496,0.164 -1.027,0.406 -1.589,0.734 v -1.496 c 0.574,-0.238 1.109,-0.418 1.609,-0.539 0.5,-0.125 0.957,-0.183 1.371,-0.183 1.094,0 1.965,0.281 2.617,0.851 0.649,0.566 0.973,1.32 0.973,2.27 0,0.449 -0.082,0.879 -0.242,1.281 -0.164,0.402 -0.457,0.875 -0.887,1.422 -0.121,0.144 -0.492,0.554 -1.125,1.23 -0.633,0.676 -1.52,1.625 -2.672,2.84 z" /><g
         transform="scale(0.964126,1)"
         id="g174"><path
           id="path176"
           style="fill:none;stroke:#000000;stroke-width:1.20103002;stroke-linecap:butt;stroke-linejoin:round;stroke-miterlimit:4;stroke-dasharray:none;stroke-opacity:1"
           d="M 53.177,426.012 H 47.922" /></g><path
         id="path178"
         style="fill:#000000;fill-opacity:1;fill-rule:nonzero;stroke:none"
         d="m 36.527,421.746 c -0.734,0 -1.285,0.375 -1.656,1.125 -0.371,0.75 -0.555,1.875 -0.555,3.383 0,1.5 0.184,2.625 0.555,3.375 0.371,0.75 0.922,1.125 1.656,1.125 0.743,0 1.297,-0.375 1.664,-1.125 0.371,-0.75 0.559,-1.875 0.559,-3.375 0,-1.508 -0.188,-2.633 -0.559,-3.383 -0.367,-0.75 -0.921,-1.125 -1.664,-1.125 z m 0,-1.176 c 1.184,0 2.086,0.489 2.711,1.457 0.625,0.973 0.938,2.379 0.938,4.227 0,1.844 -0.313,3.25 -0.938,4.219 -0.625,0.968 -1.527,1.457 -2.711,1.457 -1.183,0 -2.086,-0.489 -2.711,-1.457 -0.621,-0.969 -0.933,-2.375 -0.933,-4.219 0,-1.848 0.312,-3.254 0.933,-4.227 0.625,-0.968 1.528,-1.457 2.711,-1.457 z" /><g
         transform="scale(0.964126,1)"
         id="g180"><path
           id="path182"
           style="fill:none;stroke:#000000;stroke-width:1.20103002;stroke-linecap:butt;stroke-linejoin:round;stroke-miterlimit:4;stroke-dasharray:none;stroke-opacity:1"
           d="M 53.177,341.895 H 47.922" /></g><path
         id="path184"
         style="fill:#000000;fill-opacity:1;fill-rule:nonzero;stroke:none"
         d="m 34.703,346.355 h 4.985 v 1.247 h -6.7 v -1.247 c 0.539,-0.582 1.278,-1.363 2.215,-2.343 0.934,-0.981 1.524,-1.614 1.762,-1.895 0.457,-0.535 0.777,-0.984 0.957,-1.351 0.183,-0.371 0.273,-0.735 0.273,-1.09 0,-0.582 -0.195,-1.055 -0.59,-1.422 -0.394,-0.367 -0.906,-0.551 -1.539,-0.551 -0.445,0 -0.918,0.082 -1.418,0.242 -0.496,0.16 -1.023,0.407 -1.589,0.735 v -1.496 c 0.574,-0.243 1.109,-0.422 1.609,-0.543 0.5,-0.121 0.957,-0.184 1.375,-0.184 1.09,0 1.961,0.285 2.613,0.852 0.649,0.566 0.973,1.324 0.973,2.269 0,0.453 -0.078,0.879 -0.242,1.281 -0.16,0.403 -0.457,0.879 -0.887,1.426 -0.117,0.141 -0.492,0.551 -1.125,1.231 -0.629,0.675 -1.52,1.621 -2.672,2.839 z" /><g
         transform="scale(0.964126,1)"
         id="g186"><path
           id="path188"
           style="fill:none;stroke:#000000;stroke-width:1.20103002;stroke-linecap:butt;stroke-linejoin:round;stroke-miterlimit:4;stroke-dasharray:none;stroke-opacity:1"
           d="M 53.177,257.781 H 47.922" /></g><path
         id="path190"
         style="fill:#000000;fill-opacity:1;fill-rule:nonzero;stroke:none"
         d="m 37.398,253.832 -3.605,5.84 h 3.605 z m -0.375,-1.293 h 1.797 v 7.133 h 1.504 v 1.234 H 38.82 v 2.578 h -1.422 v -2.578 h -4.761 v -1.429 z" /><g
         transform="scale(0.964126,1)"
         id="g192"><path
           id="path194"
           style="fill:none;stroke:#000000;stroke-width:1.20103002;stroke-linecap:butt;stroke-linejoin:round;stroke-miterlimit:4;stroke-dasharray:none;stroke-opacity:1"
           d="M 53.177,173.668 H 47.922" /></g><path
         id="path196"
         style="fill:#000000;fill-opacity:1;fill-rule:nonzero;stroke:none"
         d="m 36.707,173.309 c -0.641,0 -1.148,0.23 -1.523,0.683 -0.375,0.453 -0.563,1.074 -0.563,1.867 0,0.786 0.188,1.411 0.563,1.868 0.375,0.457 0.882,0.683 1.523,0.683 0.641,0 1.148,-0.226 1.52,-0.683 0.375,-0.457 0.562,-1.082 0.562,-1.868 0,-0.793 -0.187,-1.414 -0.562,-1.867 -0.372,-0.453 -0.879,-0.683 -1.52,-0.683 z m 2.832,-4.641 v 1.348 c -0.359,-0.176 -0.719,-0.309 -1.086,-0.403 -0.363,-0.093 -0.726,-0.14 -1.086,-0.14 -0.941,0 -1.66,0.332 -2.16,0.992 -0.496,0.66 -0.777,1.656 -0.848,2.992 0.278,-0.426 0.625,-0.754 1.043,-0.98 0.422,-0.227 0.883,-0.34 1.387,-0.34 1.063,0 1.899,0.336 2.512,1 0.617,0.668 0.926,1.574 0.926,2.722 0,1.125 -0.321,2.028 -0.961,2.707 -0.641,0.68 -1.496,1.02 -2.559,1.02 -1.223,0 -2.156,-0.484 -2.801,-1.457 -0.644,-0.969 -0.968,-2.375 -0.968,-4.219 0,-1.73 0.394,-3.109 1.187,-4.137 0.793,-1.031 1.855,-1.543 3.187,-1.543 0.36,0 0.719,0.036 1.086,0.11 0.364,0.074 0.747,0.183 1.141,0.328 z" /><g
         transform="scale(0.964126,1)"
         id="g198"><path
           id="path200"
           style="fill:none;stroke:#000000;stroke-width:1.20103002;stroke-linecap:butt;stroke-linejoin:round;stroke-miterlimit:4;stroke-dasharray:none;stroke-opacity:1"
           d="M 53.177,89.555 H 47.922" /></g><path
         id="path202"
         style="fill:#000000;fill-opacity:1;fill-rule:nonzero;stroke:none"
         d="m 36.527,90.059 c -0.679,0 -1.211,0.187 -1.601,0.566 -0.387,0.375 -0.582,0.895 -0.582,1.551 0,0.66 0.195,1.179 0.582,1.554 0.39,0.379 0.922,0.567 1.601,0.567 0.68,0 1.215,-0.188 1.606,-0.567 0.39,-0.378 0.586,-0.898 0.586,-1.554 0,-0.656 -0.196,-1.176 -0.582,-1.551 -0.391,-0.379 -0.926,-0.566 -1.61,-0.566 z M 35.102,89.43 c -0.614,-0.157 -1.09,-0.453 -1.434,-0.887 -0.34,-0.438 -0.512,-0.969 -0.512,-1.594 0,-0.871 0.301,-1.562 0.903,-2.074 0.601,-0.508 1.425,-0.762 2.468,-0.762 1.051,0 1.875,0.254 2.473,0.762 0.602,0.512 0.898,1.203 0.898,2.074 0,0.625 -0.171,1.156 -0.511,1.594 -0.34,0.434 -0.817,0.73 -1.422,0.887 0.687,0.164 1.223,0.492 1.605,0.976 0.383,0.485 0.575,1.074 0.575,1.77 0,1.062 -0.313,1.879 -0.934,2.445 -0.625,0.567 -1.52,0.848 -2.684,0.848 -1.164,0 -2.054,-0.281 -2.683,-0.848 -0.621,-0.566 -0.934,-1.383 -0.934,-2.445 0,-0.696 0.192,-1.285 0.578,-1.77 0.387,-0.484 0.926,-0.812 1.614,-0.976 z m -0.524,-2.34 c 0,0.566 0.172,1.008 0.512,1.328 0.34,0.316 0.82,0.477 1.437,0.477 0.614,0 1.094,-0.161 1.438,-0.477 0.347,-0.32 0.519,-0.762 0.519,-1.328 0,-0.567 -0.172,-1.008 -0.519,-1.328 -0.344,-0.317 -0.824,-0.473 -1.438,-0.473 -0.617,0 -1.097,0.156 -1.437,0.473 -0.34,0.32 -0.512,0.761 -0.512,1.328 z" /><g
         transform="scale(0.964126,1)"
         id="g204"><path
           id="path206"
           style="fill:none;stroke:#000000;stroke-width:1.20103002;stroke-linecap:butt;stroke-linejoin:round;stroke-miterlimit:4;stroke-dasharray:none;stroke-opacity:1"
           d="M 53.177,5.438 H 47.922" /></g><path
         id="path208"
         style="fill:#000000;fill-opacity:1;fill-rule:nonzero;stroke:none"
         d="m 24.516,9.898 h 2.328 V 1.547 L 24.309,2.074 V 0.727 l 2.523,-0.532 h 1.426 v 9.703 h 2.332 v 1.243 h -6.074 z" /><path
         id="path210"
         style="fill:#000000;fill-opacity:1;fill-rule:nonzero;stroke:none"
         d="m 36.527,1.172 c -0.734,0 -1.285,0.375 -1.656,1.129 -0.371,0.746 -0.555,1.875 -0.555,3.379 0,1.5 0.184,2.625 0.555,3.379 0.371,0.75 0.922,1.125 1.656,1.125 0.739,0 1.293,-0.375 1.664,-1.125 C 38.562,8.305 38.746,7.18 38.746,5.68 38.746,4.176 38.562,3.047 38.191,2.301 37.82,1.547 37.266,1.172 36.527,1.172 Z m 0,-1.172 c 1.184,0 2.086,0.484 2.711,1.457 0.625,0.969 0.938,2.379 0.938,4.223 0,1.843 -0.313,3.25 -0.938,4.222 -0.625,0.969 -1.527,1.453 -2.711,1.453 -1.183,0 -2.086,-0.484 -2.711,-1.453 C 33.195,8.93 32.883,7.523 32.883,5.68 32.883,3.836 33.195,2.426 33.816,1.457 34.441,0.484 35.344,0 36.527,0 Z" /><path
         id="path212"
         style="fill:#000000;fill-opacity:1;fill-rule:nonzero;stroke:none"
         d="m 11.734,272.949 c 0.942,0.379 1.555,0.75 1.844,1.113 0.285,0.364 0.43,0.848 0.43,1.45 v 1.082 h -1.086 v -0.793 c 0,-0.371 -0.086,-0.66 -0.258,-0.863 -0.168,-0.208 -0.566,-0.434 -1.199,-0.684 l -0.594,-0.242 -7.789,3.32 v -1.43 l 6.191,-2.566 -6.191,-2.566 v -1.426 z" /><path
         id="path214"
         style="fill:#000000;fill-opacity:1;fill-rule:nonzero;stroke:none"
         d="m 0,262.832 v -3.109 h 1.012 v 1.761 h 10.883 v -1.761 h 1.011 v 3.109 z" /><path
         id="path216"
         style="fill:#000000;fill-opacity:1;fill-rule:nonzero;stroke:none"
         d="m 4.602,250.461 c -0.586,-0.34 -1.016,-0.742 -1.293,-1.211 -0.278,-0.469 -0.414,-1.023 -0.414,-1.656 0,-0.856 0.285,-1.516 0.863,-1.981 0.578,-0.465 1.398,-0.699 2.461,-0.699 H 11 v 1.359 H 6.262 c -0.758,0 -1.321,0.137 -1.688,0.418 -0.367,0.278 -0.551,0.704 -0.551,1.274 0,0.699 0.223,1.254 0.672,1.66 0.446,0.402 1.055,0.605 1.828,0.605 H 11 v 1.356 H 6.262 c -0.762,0 -1.324,0.141 -1.692,0.418 -0.363,0.281 -0.547,0.711 -0.547,1.293 0,0.687 0.227,1.234 0.676,1.641 0.449,0.406 1.055,0.609 1.824,0.609 H 11 v 1.355 H 3.082 v -1.355 h 1.23 c -0.484,-0.309 -0.843,-0.676 -1.074,-1.106 -0.23,-0.433 -0.343,-0.941 -0.343,-1.535 0,-0.594 0.144,-1.101 0.437,-1.519 0.289,-0.418 0.715,-0.727 1.27,-0.926 z" /><path
         id="path218"
         style="fill:#000000;fill-opacity:1;fill-rule:nonzero;stroke:none"
         d="m 0,239.074 h 12.906 v 3.11 H 11.895 V 240.43 H 1.012 v 1.754 H 0 Z" /></g><g
       id="g220"><g
         clip-path="url(#clipPath226)"
         id="g222"><g
           id="g228"><g
             id="g230"><g
               clip-path="url(#clipPath236)"
               id="g232"><g
                 id="g238"><g
                   id="g240"><g
                     id="g242"><g
                       clip-path="url(#clipPath248)"
                       id="g244"><g
                         id="g250"><g
                           transform="scale(0.925823,1)"
                           id="g252"><path
                             id="path254"
                             style="fill:none;stroke:#000000;stroke-width:1.15467;stroke-linecap:butt;stroke-linejoin:round;stroke-miterlimit:4;stroke-dasharray:4.27226, 1.84747;stroke-dashoffset:0;stroke-opacity:1"
                             d="M 55.377,425.918 H 760.569" /></g></g></g></g></g></g></g></g></g></g></g><g
       id="g256"><g
         clip-path="url(#clipPath262)"
         id="g258"><g
           id="g264"><g
             id="g266"><g
               clip-path="url(#clipPath272)"
               id="g268"><g
                 id="g274"><g
                   id="g276"><g
                     id="g278"><g
                       clip-path="url(#clipPath284)"
                       id="g280"><g
                         id="g286"><g
                           transform="scale(0.964126,1)"
                           id="g288"><path
                             id="path290"
                             style="fill:none;stroke:#000000;stroke-width:1.37726998;stroke-linecap:butt;stroke-linejoin:round;stroke-miterlimit:4;stroke-dasharray:5.0959, 2.20364;stroke-dashoffset:0;stroke-opacity:1"
                             d="M 473.749,510.125 V 5.438" /></g></g></g></g></g></g></g></g></g></g></g><g
       id="g292"><g
         transform="scale(0.964126,1)"
         id="g294"><path
           id="path296"
           style="fill:none;stroke:#000000;stroke-width:1.46908998;stroke-linecap:square;stroke-linejoin:miter;stroke-miterlimit:4;stroke-dasharray:none;stroke-opacity:1"
           d="M 53.177,510.125 V 5.438" /></g></g><g
       id="g298"><g
         clip-path="url(#clipPath304)"
         id="g300"><g
           transform="scale(0.964126,1)"
           id="g306"><path
             id="path308"
             style="fill:none;stroke:#000000;stroke-width:1.46908998;stroke-linecap:square;stroke-linejoin:miter;stroke-miterlimit:4;stroke-dasharray:none;stroke-opacity:1"
             d="M 731.799,510.125 V 5.438" /></g></g></g><g
       id="g310"><g
   transform="scale(0.777417,1)"
   id="g312"><path
     id="path314"
     style="fill:none;stroke:#000000;stroke-width:1.46908998;stroke-linecap:square;stroke-linejoin:miter;stroke-miterlimit:4;stroke-dasharray:none;stroke-opacity:1"
     d="M 65.803,510.125 H 906.95" /></g><g
   transform="scale(0.777798,1)"
   id="g316"><path
     id="path318"
     style="fill:none;stroke:#000000;stroke-width:1.46908998;stroke-linecap:square;stroke-linejoin:miter;stroke-miterlimit:4;stroke-dasharray:none;stroke-opacity:1"
     d="M 65.771,5.129 H 906.917" /></g><g
   transform="scale(0.910798,1)"
   id="g320"><path
     id="path322"
     style="fill:#ffffff;fill-opacity:1;fill-rule:nonzero;stroke:#000000;stroke-width:2.27378988;stroke-linecap:butt;stroke-linejoin:round;stroke-miterlimit:4;stroke-dasharray:2.27379, 2.27379;stroke-dashoffset:0;stroke-opacity:1"
     d="M 609.832,156.504 C 518.326,62.273 518.326,62.273 518.326,62.273" /></g><g
   transform="scale(0.910798,1)"
   id="g324"><path
     id="path326"
     style="fill:#ffffff;fill-opacity:1;fill-rule:nonzero;stroke:#000000;stroke-width:2.27378988;stroke-linecap:butt;stroke-linejoin:round;stroke-miterlimit:4;stroke-dasharray:2.27379, 2.27379;stroke-dashoffset:0;stroke-opacity:1"
     d="M 609.609,156.605 C 606.101,33.16 606.101,33.16 606.101,33.16" /></g><g
   transform="matrix(0.116536,-1,0.913831,0.0984818,0,0)"
   id="g328"><path
     id="path330"
     style="fill:none;stroke:#000000;stroke-width:2.25588012;stroke-linecap:butt;stroke-linejoin:round;stroke-miterlimit:4;stroke-dasharray:2.25588, 2.25588;stroke-dashoffset:0;stroke-opacity:1"
     d="m -60.017,577.306 c 7.816,-1.432 15.724,1.915 20.736,8.782 5.016,6.862 6.377,16.2 3.572,24.491" /></g><g
   transform="matrix(-0.0498191,-1,0.918603,-0.0830453,0,0)"
   id="g332"><path
     id="path334"
     style="fill:none;stroke:#000000;stroke-width:2.25902009;stroke-linecap:butt;stroke-linejoin:miter;stroke-miterlimit:4;stroke-dasharray:none;stroke-opacity:1"
     d="m -156.986,551.065 -6.778,6.777 6.777,6.776" /></g><g
   transform="scale(0.910798,1)"
   id="g338"><path
     id="path340"
     style="fill:#000000;fill-opacity:1;fill-rule:nonzero;stroke:#289f44;stroke-width:2.27378988;stroke-linecap:butt;stroke-linejoin:round;stroke-miterlimit:4;stroke-dasharray:none;stroke-opacity:1"
     d="m 609.514,155.785 c 74.527,-41.293 74.527,-41.293 74.527,-41.293" /></g><g
   transform="matrix(-0.910798,0.554054,-0.504631,-1,0,0)"
   id="g342"><path
     id="path344"
     style="fill:none;stroke:#289f44;stroke-width:1.98890996;stroke-linecap:butt;stroke-linejoin:miter;stroke-miterlimit:4;stroke-dasharray:none;stroke-opacity:1"
     d="m -469.372,-383.55 -5.966,5.968 5.967,5.966" /></g><g
   transform="scale(0.910798,1)"
   id="g346"><path
     id="path348"
     style="fill:#ffffff;fill-opacity:1;fill-rule:nonzero;stroke:#289f44;stroke-width:2.27378988;stroke-linecap:butt;stroke-linejoin:round;stroke-miterlimit:4;stroke-dasharray:none;stroke-opacity:1"
     d="M 609.429,155.582 C 580.471,125.184 580.471,125.184 580.471,125.184" /></g><g
   transform="matrix(0.867645,1,-0.910798,0.952621,0,0)"
   id="g350"><path
     id="path352"
     style="fill:none;stroke:#289f44;stroke-width:1.64634001;stroke-linecap:butt;stroke-linejoin:miter;stroke-miterlimit:4;stroke-dasharray:none;stroke-opacity:1"
     d="m 360.047,-246.733 -4.938,4.937 4.939,4.94" /></g><path
   id="path354"
   style="fill:#aca793;fill-opacity:1;fill-rule:nonzero;stroke:none"
   d="m 52.395,427.309 h 652.918 v 81.504 H 52.395 Z" />
<g
   id="g6902"
   transform="matrix(0.4735948,0,0,0.50902356,335.85798,6.6149725)"><g
     word-spacing="normal"
     letter-spacing="normal"
     font-size-adjust="none"
     font-stretch="normal"
     font-weight="normal"
     font-variant="normal"
     font-style="normal"
     stroke-miterlimit="10.433"
     xml:space="preserve"
     transform="matrix(1.056298,0,0,-1.056298,-184.85214,706.32971)"
     id="content"
     style="font-style:normal;font-variant:normal;font-weight:normal;font-stretch:normal;letter-spacing:normal;word-spacing:normal;text-anchor:start;fill:none;fill-opacity:1;fill-rule:evenodd;stroke:#000000;stroke-linecap:butt;stroke-linejoin:miter;stroke-miterlimit:10.43299961;stroke-dasharray:none;stroke-dashoffset:0;stroke-opacity:1"><path
       id="path6891"
       d="m 470.61,422.39 h 4.83 c 3.75,0 4.14,-0.8 4.14,-2.24 0,-0.36 0,-0.95 -0.34,-2.44 -0.11,-0.25 -0.16,-0.45 -0.16,-0.56 0,-0.39 0.3,-0.59 0.6,-0.59 0.5,0 0.5,0.15 0.75,1.05 l 2.75,10.81 c 0.14,0.54 0.14,0.65 0.14,0.79 0,0.1 -0.1,0.55 -0.6,0.55 -0.5,0 -0.54,-0.25 -0.75,-1.05 -1.04,-3.87 -2.18,-4.78 -6.42,-4.78 h -4.53 l 3.19,12.66 c 0.43,1.75 0.5,1.94 2.68,1.94 h 6.58 c 6.13,0 7.27,-1.64 7.27,-5.47 0,-1.16 0,-1.35 -0.14,-2.7 -0.11,-0.65 -0.11,-0.74 -0.11,-0.9 0,-0.25 0.15,-0.59 0.61,-0.59 0.54,0 0.59,0.3 0.69,1.25 l 1,8.61 c 0.15,1.34 -0.1,1.34 -1.35,1.34 h -24.4 c -1,0 -1.5,0 -1.5,-1 0,-0.54 0.45,-0.54 1.39,-0.54 1.84,0 3.23,0 3.23,-0.89 0,-0.21 0,-0.3 -0.25,-1.21 l -6.56,-26.34 c -0.5,-1.95 -0.61,-2.34 -4.55,-2.34 -0.84,0 -1.39,0 -1.39,-0.96 0,-0.59 0.59,-0.59 0.75,-0.59 1.44,0 5.13,0.16 6.58,0.16 1.64,0 5.78,-0.16 7.42,-0.16 0.45,0 1.05,0 1.05,0.95 0,0.39 -0.3,0.49 -0.3,0.55 -0.16,0.05 -0.25,0.05 -1.39,0.05 -1.11,0 -1.36,0 -2.59,0.09 -1.46,0.16 -1.6,0.36 -1.6,1 0,0.09 0,0.41 0.19,1.14 z"
       inkscape:connector-curvature="0"
       style="fill:#000000;stroke-width:0" /><path
       id="path6893"
       d="m 504.07,410.37 0.05,0.1 0.05,0.09 0.05,0.1 0.04,0.09 0.05,0.08 0.06,0.09 0.1,0.15 0.11,0.15 0.11,0.14 0.11,0.13 0.12,0.11 0.11,0.11 0.12,0.1 0.12,0.09 0.12,0.09 0.12,0.07 0.12,0.07 0.12,0.06 0.12,0.06 0.11,0.04 0.12,0.05 0.11,0.03 0.12,0.04 0.1,0.02 0.11,0.02 0.1,0.02 0.1,0.02 0.1,0.01 0.09,0.01 0.08,0.01 h 0.08 0.08 l 0.07,0.01 h 0.06 0.06 v 1.25 c -0.88,-0.07 -1.79,-0.14 -2.66,-0.14 -0.94,0 -2.24,0.03 -3.17,0.14 v -1.25 c 1.47,-0.08 1.47,-1.22 1.47,-1.33 0,-0.17 -0.04,-0.52 -0.29,-1.02 l -3.93,-8.59 -4.32,9.47 c 0,0.03 -0.21,0.42 -0.21,0.67 0,0.8 1.18,0.8 1.78,0.8 v 1.25 c -0.08,0 -2.55,-0.14 -3.97,-0.14 -1.05,0 -2.41,0.03 -3.42,0.14 v -1.25 c 1.92,0 2.34,-0.08 2.86,-1.25 l 5.5,-12.13 c 0.17,-0.42 0.39,-0.73 0.98,-0.73 0.66,0 0.8,0.31 0.97,0.69 z"
       inkscape:connector-curvature="0"
       style="fill:#000000;stroke-width:0" /><path
       id="path6895"
       d="m 522.69,406.7 h 0.07 0.06 0.06 0.06 0.06 0.05 l 0.05,0.01 h 0.05 l 0.05,0.01 h 0.04 l 0.04,0.01 0.04,0.01 0.04,0.01 0.03,0.01 0.04,0.02 0.03,0.02 0.02,0.02 0.03,0.02 0.02,0.02 0.02,0.03 0.02,0.03 0.02,0.03 0.01,0.02 0.01,0.02 v 0.02 l 0.01,0.02 0.01,0.02 v 0.02 l 0.01,0.02 v 0.03 l 0.01,0.02 v 0.03 l 0.01,0.02 v 0.03 0.03 l 0.01,0.03 v 0.03 0.03 0.04 0.03 0.03 0.04 c 0,3.06 -1.72,6.83 -6.9,6.83 -4.57,0 -8.05,-3.63 -8.05,-7.92 0,-4.43 3.87,-7.97 8.5,-7.97 4.7,0 6.45,3.76 6.45,4.53 0,0.14 -0.08,0.48 -0.59,0.48 -0.46,0 -0.53,-0.22 -0.63,-0.56 -1.09,-2.81 -3.73,-3.34 -4.98,-3.34 -1.64,0 -3.2,0.73 -4.25,2.06 -1.3,1.62 -1.33,3.75 -1.33,5.11 l 0.03,0.91 c 0.39,4.92 3.52,5.71 4.85,5.71 4.28,0 4.42,-4.84 4.46,-5.71 h -9.31 l -0.03,-0.91 z"
       inkscape:connector-curvature="0"
       style="fill:#000000;stroke-width:0" /><path
       id="path6897"
       d="m 532.05,406.7 0.01,0.28 0.01,0.28 0.02,0.28 0.03,0.28 0.04,0.28 0.04,0.29 0.06,0.28 0.06,0.28 0.07,0.27 0.08,0.28 0.09,0.27 0.1,0.26 0.11,0.26 0.12,0.25 0.12,0.25 0.14,0.24 0.14,0.23 0.16,0.22 0.17,0.21 0.17,0.19 0.19,0.19 0.2,0.18 0.2,0.16 0.22,0.15 0.23,0.13 0.24,0.12 0.24,0.1 0.27,0.09 0.27,0.06 0.28,0.05 0.29,0.03 0.31,0.01 c -0.32,-0.25 -0.6,-0.7 -0.6,-1.25 0,-1.15 0.91,-1.61 1.57,-1.61 0.84,0 1.6,0.57 1.6,1.61 0,1.19 -1.12,2.22 -2.76,2.22 -1.74,0 -3.66,-1.08 -4.7,-3.72 h -0.04 v 3.72 l -4.98,-0.37 v -1.25 c 2.34,0 2.63,-0.25 2.63,-1.96 v -9.03 c 0,-1.5 -0.36,-1.5 -2.63,-1.5 v -1.25 c 0.17,0 2.55,0.14 3.97,0.14 1.5,0 3.05,-0.08 4.53,-0.14 v 1.25 h -0.69 c -2.58,0 -2.58,0.39 -2.58,1.58 z"
       inkscape:connector-curvature="0"
       style="fill:#000000;stroke-width:0" /><path
       id="path6899"
       d="m 547.72,412.53 h 5.43 v 1.25 h -5.43 v 6.4 h -1.19 c -0.03,-3.12 -1.46,-6.57 -4.8,-6.68 v -0.97 h 3.24 v -9.41 c 0,-3.91 2.92,-4.7 4.87,-4.7 2.34,0 3.94,1.98 3.94,4.73 v 1.92 h -1.19 v -1.89 c 0,-2.36 -1.11,-3.65 -2.47,-3.65 -2.4,0 -2.4,2.92 -2.4,3.56 z"
       inkscape:connector-curvature="0"
       style="fill:#000000;stroke-width:0" /></g></g><g
   id="g7108"
   transform="matrix(0.54722779,0,0,0.56095377,412.13295,-51.203172)"><g
     word-spacing="normal"
     letter-spacing="normal"
     font-size-adjust="none"
     font-stretch="normal"
     font-weight="normal"
     font-variant="normal"
     font-style="normal"
     stroke-miterlimit="10.433"
     xml:space="preserve"
     transform="matrix(1.056298,0,0,-1.056298,-184.85214,706.32971)"
     id="g7106"
     style="font-style:normal;font-variant:normal;font-weight:normal;font-stretch:normal;letter-spacing:normal;word-spacing:normal;text-anchor:start;fill:none;fill-opacity:1;fill-rule:evenodd;stroke:#000000;stroke-linecap:butt;stroke-linejoin:miter;stroke-miterlimit:10.43299961;stroke-dasharray:none;stroke-dashoffset:0;stroke-opacity:1"><path
       id="path7094"
       d="m 470.61,422.39 h 4.83 c 3.75,0 4.14,-0.8 4.14,-2.24 0,-0.36 0,-0.95 -0.34,-2.44 -0.11,-0.25 -0.16,-0.45 -0.16,-0.56 0,-0.39 0.3,-0.59 0.6,-0.59 0.5,0 0.5,0.15 0.75,1.05 l 2.75,10.81 c 0.14,0.54 0.14,0.65 0.14,0.79 0,0.1 -0.1,0.55 -0.6,0.55 -0.5,0 -0.54,-0.25 -0.75,-1.05 -1.04,-3.87 -2.18,-4.78 -6.42,-4.78 h -4.53 l 3.19,12.66 c 0.43,1.75 0.5,1.94 2.68,1.94 h 6.58 c 6.13,0 7.27,-1.64 7.27,-5.47 0,-1.16 0,-1.35 -0.14,-2.7 -0.11,-0.65 -0.11,-0.74 -0.11,-0.9 0,-0.25 0.15,-0.59 0.61,-0.59 0.54,0 0.59,0.3 0.69,1.25 l 1,8.61 c 0.15,1.34 -0.1,1.34 -1.35,1.34 h -24.4 c -1,0 -1.5,0 -1.5,-1 0,-0.54 0.45,-0.54 1.39,-0.54 1.84,0 3.23,0 3.23,-0.89 0,-0.21 0,-0.3 -0.25,-1.21 l -6.56,-26.34 c -0.5,-1.95 -0.61,-2.34 -4.55,-2.34 -0.84,0 -1.39,0 -1.39,-0.96 0,-0.59 0.59,-0.59 0.75,-0.59 1.44,0 5.13,0.16 6.58,0.16 1.64,0 5.78,-0.16 7.42,-0.16 0.45,0 1.05,0 1.05,0.95 0,0.39 -0.3,0.49 -0.3,0.55 -0.16,0.05 -0.25,0.05 -1.39,0.05 -1.11,0 -1.36,0 -2.59,0.09 -1.46,0.16 -1.6,0.36 -1.6,1 0,0.09 0,0.41 0.19,1.14 z"
       inkscape:connector-curvature="0"
       style="fill:#000000;stroke-width:0" /><path
       id="path7096"
       d="m 500.76,413.4 v 0.06 0.05 0.05 0.05 0.05 0.05 0.04 l -0.01,0.04 v 0.05 0.04 l -0.01,0.03 v 0.04 l -0.01,0.03 -0.01,0.04 -0.01,0.03 -0.01,0.03 -0.01,0.03 -0.01,0.02 -0.02,0.03 -0.02,0.02 -0.02,0.02 -0.02,0.02 -0.02,0.02 -0.02,0.01 -0.03,0.01 -0.03,0.02 -0.03,0.01 h -0.03 l -0.02,0.01 h -0.02 -0.02 l -0.02,0.01 h -0.02 -0.02 -0.02 -0.02 c -0.17,0 -0.25,0 -0.71,-0.42 -0.06,-0.03 -0.4,-0.35 -0.62,-0.53 -1.05,0.73 -2.36,0.95 -3.66,0.95 -4.98,0 -6.17,-2.63 -6.17,-4.36 0,-1.13 0.5,-2.02 1.33,-2.72 1.33,-1.16 2.66,-1.39 4.81,-1.75 1.74,-0.31 4.56,-0.8 4.56,-3.12 0,-1.36 -0.93,-2.97 -4.28,-2.97 -3.34,0 -4.56,2.2 -5.2,4.56 -0.09,0.45 -0.14,0.59 -0.63,0.59 -0.59,0 -0.59,-0.23 -0.59,-0.93 v -4.29 c 0,-0.59 0,-0.9 0.5,-0.9 0.31,0 0.97,0.73 1.67,1.5 1.53,-1.44 3.41,-1.5 4.25,-1.5 4.53,0 6.21,2.44 6.21,4.9 0,1.33 -0.6,2.38 -1.5,3.21 -1.33,1.22 -2.94,1.5 -4.16,1.72 -2.78,0.48 -5.05,0.9 -5.05,2.75 0,1.11 0.94,2.46 4.25,2.46 4.05,0 4.22,-2.82 4.28,-3.82 0.05,-0.39 0.46,-0.39 0.6,-0.39 0.59,0 0.59,0.25 0.59,0.9 z"
       inkscape:connector-curvature="0"
       style="fill:#000000;stroke-width:0" /><path
       id="path7098"
       d="m 510.76,420.26 v 0.1 l -0.01,0.09 -0.01,0.1 -0.02,0.09 -0.02,0.09 -0.03,0.09 -0.03,0.09 -0.03,0.09 -0.04,0.09 -0.04,0.08 -0.05,0.08 -0.05,0.09 -0.06,0.07 -0.05,0.08 -0.07,0.07 -0.06,0.07 -0.07,0.07 -0.07,0.07 -0.08,0.06 -0.08,0.06 -0.08,0.05 -0.09,0.05 -0.08,0.05 -0.09,0.04 -0.1,0.04 -0.09,0.03 -0.1,0.03 -0.1,0.02 -0.11,0.02 -0.1,0.01 -0.11,0.01 -0.11,0.01 c -1.05,0 -1.99,-0.83 -1.99,-1.99 0,-1.25 1.02,-2.01 1.99,-2.01 1.12,0 2.03,0.86 2.03,2.01 z"
       inkscape:connector-curvature="0"
       style="fill:#000000;stroke-width:0" /><path
       id="path7100"
       d="m 505.46,413.75 v -1.25 c 2.19,0 2.5,-0.22 2.5,-1.93 v -9.06 c 0,-1.5 -0.34,-1.5 -2.61,-1.5 v -1.25 c 0.06,0 2.5,0.14 3.91,0.14 1.22,0 2.47,-0.03 3.69,-0.14 v 1.25 c -2.02,0 -2.38,0 -2.38,1.47 v 12.64 z"
       inkscape:connector-curvature="0"
       style="fill:#000000;stroke-width:0" /><path
       id="path7102"
       d="m 527.08,422.56 v -1.25 c 2.33,0 2.61,-0.25 2.61,-1.95 v -7.22 c -1.28,1.26 -2.95,1.98 -4.87,1.98 l 0.17,-0.97 c 1.67,0 3.17,-0.76 4.14,-2.01 0.42,-0.57 0.42,-0.6 0.42,-1.27 v -7.45 c -0.9,-1.64 -2.67,-3.03 -4.94,-3.03 -1.95,0 -3.36,1.15 -4.04,2.15 -0.71,1.05 -1.11,2.46 -1.11,4.67 0,0.82 0,3.43 1.42,5.07 1.39,1.56 3.09,1.87 4.11,1.87 l -0.17,0.97 c -4.64,0 -8.54,-3.48 -8.54,-7.87 0,-4.35 3.69,-7.83 8.12,-7.83 2.85,0 4.56,1.53 5.15,2.15 v -2.15 l 5.38,0.34 v 1.25 c -2.35,0 -2.63,0.25 -2.63,1.95 v 20.99 z"
       inkscape:connector-curvature="0"
       style="fill:#000000;stroke-width:0" /><path
       id="path7104"
       d="m 551.96,406.7 h 0.07 0.06 0.06 0.06 0.06 0.05 l 0.06,0.01 h 0.04 l 0.05,0.01 h 0.04 l 0.05,0.01 0.03,0.01 0.04,0.01 0.04,0.01 0.03,0.02 0.03,0.02 0.03,0.02 0.02,0.02 0.03,0.02 0.02,0.03 0.02,0.03 0.01,0.03 0.01,0.02 0.01,0.02 0.01,0.02 v 0.02 l 0.01,0.02 0.01,0.02 v 0.02 l 0.01,0.03 v 0.02 l 0.01,0.03 v 0.02 0.03 l 0.01,0.03 v 0.03 0.03 0.03 0.04 0.03 0.03 l 0.01,0.04 c 0,3.06 -1.72,6.83 -6.91,6.83 -4.56,0 -8.05,-3.63 -8.05,-7.92 0,-4.43 3.88,-7.97 8.5,-7.97 4.71,0 6.46,3.76 6.46,4.53 0,0.14 -0.08,0.48 -0.6,0.48 -0.45,0 -0.53,-0.22 -0.62,-0.56 -1.1,-2.81 -3.74,-3.34 -4.99,-3.34 -1.64,0 -3.2,0.73 -4.25,2.06 -1.29,1.62 -1.33,3.75 -1.33,5.11 l 0.04,0.91 c 0.39,4.92 3.51,5.71 4.84,5.71 4.28,0 4.42,-4.84 4.47,-5.71 h -9.31 l -0.04,-0.91 z"
       inkscape:connector-curvature="0"
       style="fill:#000000;stroke-width:0" /></g></g><g
   id="g7313"
   transform="matrix(0.51789022,0,0,0.48183621,363.33126,-43.374173)"><g
     word-spacing="normal"
     letter-spacing="normal"
     font-size-adjust="none"
     font-stretch="normal"
     font-weight="normal"
     font-variant="normal"
     font-style="normal"
     stroke-miterlimit="10.433"
     xml:space="preserve"
     transform="matrix(1.056298,0,0,-1.056298,-184.85214,706.32971)"
     id="g7311"
     style="font-style:normal;font-variant:normal;font-weight:normal;font-stretch:normal;letter-spacing:normal;word-spacing:normal;text-anchor:start;fill:none;fill-opacity:1;fill-rule:evenodd;stroke:#000000;stroke-linecap:butt;stroke-linejoin:miter;stroke-miterlimit:10.43299961;stroke-dasharray:none;stroke-dashoffset:0;stroke-opacity:1"><path
       id="path7309"
       d="m 480.97,423.93 0.09,0.39 0.09,0.38 0.08,0.37 0.07,0.36 0.07,0.35 0.07,0.35 0.06,0.33 0.05,0.32 0.05,0.32 0.05,0.3 0.04,0.3 0.04,0.28 0.03,0.27 0.04,0.27 0.02,0.25 0.03,0.25 0.02,0.23 0.02,0.22 0.02,0.21 0.01,0.2 0.01,0.19 0.01,0.18 0.01,0.17 0.01,0.15 v 0.15 l 0.01,0.13 v 0.12 0.11 0.1 0.09 0.07 0.06 c 0,1.85 -0.29,9.92 -5.53,9.92 l -0.05,-1.09 c 1.25,0 2.6,-0.75 2.6,-5.94 0,-3.14 -0.8,-6.51 -1.45,-9.36 v 0 c -2.44,0.85 -7.22,2.78 -7.22,7.33 0,3.08 2.59,7.97 6.07,7.97 l 0.05,1.09 c -4.12,0 -7.37,-5.23 -7.37,-9.12 0,-4.83 4.68,-7.22 8.17,-8.36 -1.1,-4.48 -1.89,-7.38 -3.53,-10.77 -0.66,-1.39 -3.05,-6.32 -5.99,-6.32 -3.39,0 -3.68,2.54 -3.68,3.98 0,1.3 0.4,2.89 0.65,4.03 0.3,1.25 0.6,2.35 0.94,3.85 l 0.61,2.39 c 0.23,0.84 0.48,1.89 0.48,2.64 0,2.98 -2.23,4.57 -4.53,4.57 -2.28,0 -3.23,-1.93 -3.69,-2.82 -0.89,-1.71 -1.54,-4.69 -1.54,-4.85 0,-0.5 0.5,-0.5 0.61,-0.5 0.5,0 0.54,0.07 0.84,1.16 0.84,3.53 1.84,5.92 3.64,5.92 0.84,0 1.55,-0.39 1.55,-2.28 0,-1.11 -0.71,-3.8 -1.16,-5.64 -0.2,-0.84 -0.64,-2.53 -0.89,-3.64 -0.41,-1.49 -0.7,-2.74 -0.7,-4.17 0,-4.74 3.48,-5.74 6.73,-5.74 5.28,0 10.61,7.88 13.14,17.24 0.5,-0.1 1.96,-0.46 2.25,-0.46 0.21,0 0.5,0.16 0.5,0.61 0,0.39 -0.36,0.44 -1.04,0.6 z"
       inkscape:connector-curvature="0"
       style="fill:#000000;stroke-width:0" /></g></g></g></g></svg>