<?xml version="1.0" encoding="UTF-8" standalone="no"?>
<!-- Generator: Adobe Illustrator 26.1.0, SVG Export Plug-In . SVG Version: 6.00 Build 0)  -->

<svg
   xmlns:dc="http://purl.org/dc/elements/1.1/"
   xmlns:cc="http://creativecommons.org/ns#"
   xmlns:rdf="http://www.w3.org/1999/02/22-rdf-syntax-ns#"
   xmlns:svg="http://www.w3.org/2000/svg"
   xmlns="http://www.w3.org/2000/svg"
   xmlns:sodipodi="http://sodipodi.sourceforge.net/DTD/sodipodi-0.dtd"
   xmlns:inkscape="http://www.inkscape.org/namespaces/inkscape"
   version="1.1"
   id="Layer_1"
   x="0px"
   y="0px"
   viewBox="0 0 1000.3 248"
   xml:space="preserve"
   sodipodi:docname="regelum_r_i.svg"
   width="1000.3"
   height="248"
   inkscape:version="0.92.5 (2060ec1f9f, 2020-04-08)"><metadata
   id="metadata45"><rdf:RDF><cc:Work
       rdf:about=""><dc:format>image/svg+xml</dc:format><dc:type
         rdf:resource="http://purl.org/dc/dcmitype/StillImage" /><dc:title></dc:title></cc:Work></rdf:RDF></metadata><defs
   id="defs43" /><sodipodi:namedview
   pagecolor="#ffffff"
   bordercolor="#666666"
   borderopacity="1"
   objecttolerance="10"
   gridtolerance="10"
   guidetolerance="10"
   inkscape:pageopacity="0"
   inkscape:pageshadow="2"
   inkscape:window-width="2799"
   inkscape:window-height="1453"
   id="namedview41"
   showgrid="false"
   fit-margin-top="0"
   fit-margin-left="0"
   fit-margin-right="0"
   fit-margin-bottom="0"
   inkscape:zoom="1.3037281"
   inkscape:cx="566.41039"
   inkscape:cy="156.20393"
   inkscape:window-x="144"
   inkscape:window-y="54"
   inkscape:window-maximized="0"
   inkscape:current-layer="Layer_1" />
<style
   type="text/css"
   id="style2">
	.st0{fill:#4D2974;}
	.st1{fill:#94C765;}
</style>
<g
   id="g22"
   transform="translate(-139.9,-398.8)">
	<path
   class="st0"
   d="m 233.9,478.3 c 0,9.3 0.4,18.3 1,26.9 -17.1,-1.9 -32.8,-5.9 -46,-11.3 v -31.3 c 13.2,-5.4 28.8,-9.4 46,-11.3 -0.7,8.7 -1,17.8 -1,27 z"
   id="path4"
   inkscape:connector-curvature="0"
   style="fill:#4d2974" />
	<path
   class="st0"
   d="m 283,505.4 c 0.7,-8.7 1,-17.8 1,-27.1 0,-9.3 -0.4,-18.4 -1,-27.1 31.5,3.4 58,13.4 73.7,27.1 C 341,492 314.4,502 283,505.4 Z"
   id="path6"
   inkscape:connector-curvature="0"
   style="fill:#4d2974" />
	<path
   class="st0"
   d="m 244.7,557.5 c -10,-0.7 -19.8,-2 -29.4,-3.9 v 55.2 h -26.4 v -90.2 c 15.3,6 31.8,10 49,11.9 1.8,10.3 4.1,19.5 6.8,27 z"
   id="path8"
   inkscape:connector-curvature="0"
   style="fill:#4d2974" />
	<path
   class="st0"
   d="m 347.9,608.8 h -28.1 l -20,-54.4 c -8.8,1.6 -17.7,2.7 -26.8,3.2 2.8,-7.5 5,-16.7 6.8,-27 12.7,-1.3 25.1,-3.8 36.9,-7.3 l 9,24.7 c -0.1,0 -0.1,0 -0.2,0 z"
   id="path10"
   inkscape:connector-curvature="0"
   style="fill:#4d2974" />
	<polygon
   class="st0"
   points="359.3,639.9 359,638.9 "
   id="polygon12"
   style="fill:#4d2974" />
	<path
   class="st0"
   d="m 244.7,399.1 c -2.7,7.5 -5,16.7 -6.8,27 -26.2,2.8 -50.8,10.7 -71.7,22.7 v 160 H 139.9 V 434.4 c 0.3,-0.2 0.6,-0.4 0.9,-0.6 29,-19.8 65.4,-32.2 103.9,-34.7 z"
   id="path14"
   inkscape:connector-curvature="0"
   style="fill:#4d2974" />
	<path
   class="st0"
   d="m 422.9,478.3 -5.8,7.8 c -12.2,16.6 -28.4,30.8 -47.1,42.2 l 29.5,80.5 h -28 l -25,-68.5 -0.8,-2.2 -8.2,-22.5 c 20.6,-9.1 38.5,-21.8 52.1,-37.3 -25.2,-28.8 -65.3,-47.9 -109.7,-52.4 -1.8,-10.3 -4,-19.4 -6.8,-27 59.3,3.5 113.6,30.3 144,71.5 z"
   id="path16"
   inkscape:connector-curvature="0"
   style="fill:#4d2974" />
	<path
   class="st1"
   d="m 271,478.3 c 0,1.2 0,2.4 0,3.6 0,0.9 0,1.8 0,2.7 0,1 0,2 -0.1,3 0,0.6 0,1.2 0,1.7 0,0.8 0,1.6 -0.1,2.4 0,0.7 0,1.5 -0.1,2.2 0,0.8 -0.1,1.5 -0.1,2.3 0,1 -0.1,2 -0.2,3 0,0.2 0,0.5 0,0.7 -0.1,2 -0.3,3.9 -0.4,5.9 0,0.2 0,0.4 0,0.6 -0.1,1.1 -0.2,2.3 -0.3,3.4 -0.1,1.1 -0.2,2.2 -0.3,3.3 -0.1,0.7 -0.1,1.4 -0.2,2.1 -0.1,0.6 -0.1,1.3 -0.2,1.9 -0.1,0.9 -0.2,1.8 -0.3,2.7 -0.1,1 -0.3,1.9 -0.4,2.9 -0.1,0.8 -0.2,1.6 -0.3,2.3 -0.1,0.4 -0.1,0.8 -0.2,1.3 l -0.2,1.3 c -0.1,0.7 -0.2,1.3 -0.3,2 -1,5.5 -2.1,10.6 -3.3,15.2 -0.1,0.6 -0.3,1.1 -0.5,1.6 -0.2,0.6 -0.4,1.3 -0.6,1.9 -0.1,0.5 -0.3,0.9 -0.4,1.4 -0.3,1.1 -0.7,2.1 -1.1,3.1 -0.2,0.5 -0.3,0.9 -0.5,1.3 -0.5,1.4 -1.1,2.8 -1.7,4 -1.5,-3.2 -2.8,-7 -4.1,-11.3 -0.2,-0.7 -0.4,-1.3 -0.6,-2 -1.2,-4.5 -2.3,-9.5 -3.3,-14.9 -0.1,-0.8 -0.3,-1.5 -0.4,-2.3 -0.6,-3.3 -1.1,-6.8 -1.5,-10.5 -0.1,-0.8 -0.2,-1.6 -0.3,-2.4 -0.2,-1.7 -0.4,-3.4 -0.5,-5.1 -0.1,-0.8 -0.2,-1.7 -0.2,-2.5 -0.2,-2.4 -0.4,-4.9 -0.5,-7.4 -0.1,-1 -0.1,-2.1 -0.2,-3.2 0,-0.8 -0.1,-1.7 -0.1,-2.5 0,-0.7 -0.1,-1.4 -0.1,-2.1 0,-0.9 -0.1,-1.8 -0.1,-2.7 0,-0.5 0,-1.1 -0.1,-1.7 0,-0.9 0,-1.9 -0.1,-2.8 0,-0.9 0,-1.8 0,-2.7 0,-1.2 0,-2.4 0,-3.6 0,-1.3 0,-2.7 0,-4 0,-1.9 0.1,-3.8 0.1,-5.7 0,-1.6 0.1,-3.2 0.2,-4.8 0.1,-2.3 0.2,-4.5 0.3,-6.7 0.2,-3.6 0.5,-7 0.8,-10.4 0.2,-1.7 0.3,-3.4 0.5,-5.1 0,-0.5 0.1,-0.9 0.2,-1.4 0.1,-1.1 0.3,-2.3 0.4,-3.4 0.1,-0.9 0.2,-1.8 0.4,-2.7 0,0 0,-0.1 0,-0.1 0.3,-2 0.6,-4 0.9,-5.9 0.2,-1 0.3,-1.9 0.5,-2.9 2,-10.8 4.6,-19.9 7.6,-26.5 3,6.7 5.6,15.7 7.6,26.5 0.2,0.9 0.3,1.9 0.5,2.9 0.3,1.7 0.6,3.5 0.8,5.3 0,0.2 0.1,0.5 0.1,0.7 0.3,2 0.6,4.2 0.8,6.3 0.4,3.1 0.7,6.3 1,9.6 0.2,2.3 0.4,4.7 0.5,7.1 0.1,2.2 0.2,4.5 0.3,6.8 0.1,1.6 0.1,3.2 0.2,4.8 0.1,1.9 0.1,3.9 0.1,5.8 0.1,1.1 0.1,2.4 0.1,3.7 z"
   id="path18"
   inkscape:connector-curvature="0"
   style="fill:#94c765" />
	<path
   class="st1"
   d="m 269.8,449.9 c -0.3,-3.3 -0.6,-6.5 -1,-9.6 0.4,3.1 0.7,6.3 1,9.6 z"
   id="path20"
   inkscape:connector-curvature="0"
   style="fill:#94c765" />
</g>
<g
   id="g38"
   transform="translate(-139.9,-398.8)">
	<path
   class="st0"
   d="m 497.8,541.5 c 0,-12.2 -0.1,-19.6 -0.2,-25.1 h 17.5 c 0.3,2.5 0.5,10.1 0.5,18.4 4.7,-12.1 15.5,-20.1 30.8,-20.5 v 17.6 c -18.9,0.4 -30.8,9.3 -30.8,33.1 v 44 h -17.8 z"
   id="path24"
   inkscape:connector-curvature="0"
   style="fill:#4d2974" />
	<path
   class="st0"
   d="m 574.3,566 c 0.1,17.4 8.8,30.4 24,30.4 13.8,0 18.3,-6.9 21.1,-13.4 h 17.9 c -3.6,11.7 -13.5,28.1 -39.6,28.1 -29.3,0 -41.4,-23.5 -41.4,-47.3 0,-27.8 14,-49.5 42.5,-49.5 30.2,0 40.2,23.7 40.2,44.1 0,2.9 0,5.2 -0.3,7.7 h -64.4 z m 46.5,-12.1 c -0.2,-14.3 -7.2,-25.9 -22.3,-25.9 -15.5,0 -22.2,10.8 -23.7,25.9 z"
   id="path26"
   inkscape:connector-curvature="0"
   style="fill:#4d2974" />
	<path
   class="st0"
   d="m 739.1,599.9 c 0,29.6 -12,46.9 -43.1,46.9 -29.1,0 -37.4,-16.3 -38.9,-28.5 h 18.2 c 2.5,9.4 10,14.6 21.5,14.6 20.1,0 24.9,-12.7 24.9,-33.4 v -6.9 c -4.9,9.9 -13.2,15.6 -28.3,15.6 -23.1,0 -38.2,-18.8 -38.2,-45.5 0,-29.9 17.5,-48.6 40,-48.6 17.3,0 24.6,8.1 26.6,13.9 0.2,-3.9 0.6,-9.9 0.8,-11.7 h 16.9 c -0.1,5.9 -0.3,17.8 -0.3,26.7 v 56.9 z M 673.5,562 c 0,18.8 9.7,31.3 24.1,31.3 19.1,0 24.6,-12.8 24.6,-32.4 0,-19.8 -5,-31.8 -24,-31.8 -16,0 -24.7,13.2 -24.7,32.9 z"
   id="path28"
   inkscape:connector-curvature="0"
   style="fill:#4d2974" />
	<path
   class="st0"
   d="m 778.3,566 c 0.1,17.4 8.8,30.4 24,30.4 13.8,0 18.3,-6.9 21.1,-13.4 h 17.9 c -3.6,11.7 -13.5,28.1 -39.6,28.1 -29.3,0 -41.4,-23.5 -41.4,-47.3 0,-27.8 14,-49.5 42.5,-49.5 30.2,0 40.2,23.7 40.2,44.1 0,2.9 0,5.2 -0.3,7.7 h -64.4 z m 46.6,-12.1 c -0.2,-14.3 -7.2,-25.9 -22.3,-25.9 -15.5,0 -22.2,10.8 -23.7,25.9 z"
   id="path30"
   inkscape:connector-curvature="0"
   style="fill:#4d2974" />
	<path
   class="st0"
   d="M 864,608.8 V 475.7 h 17.8 V 608.9 H 864 Z"
   id="path32"
   inkscape:connector-curvature="0"
   style="fill:#4d2974" />
	<path
   class="st0"
   d="m 984.8,581.9 c 0,9 0.1,20.9 0.2,26.9 h -17.4 c -0.4,-2.4 -0.5,-7.9 -0.6,-13.2 -4.7,10.1 -13.5,15.4 -27.5,15.4 -16.2,0 -30.6,-8.5 -30.6,-33.9 v -60.7 h 17.7 v 56.9 c 0,11.8 3.7,22.4 18.2,22.4 16,0 22.2,-8.8 22.2,-31 v -48.4 h 17.8 z"
   id="path34"
   inkscape:connector-curvature="0"
   style="fill:#4d2974" />
	<path
   class="st0"
   d="m 1012.1,540.2 c 0,-8 0,-16.3 -0.2,-23.8 h 17.1 c 0.3,2.7 0.7,9.2 0.7,13.6 4.3,-8 12.2,-15.8 26.7,-15.8 13.1,0 21.8,6.7 25.3,16.1 5,-8.5 13.6,-16.1 29.3,-16.1 15.2,0 29.2,9.1 29.2,33.9 v 60.7 h -17.5 v -58.6 c 0,-10.3 -3.7,-21 -17.4,-21 -14.2,0 -20.3,10.5 -20.3,26.5 v 53 h -17.5 v -58 c 0,-11.4 -3.2,-21.5 -17,-21.5 -14,0 -20.7,10.9 -20.7,28.2 v 51.2 h -17.7 z"
   id="path36"
   inkscape:connector-curvature="0"
   style="fill:#4d2974" />
</g>
</svg>