<?xml version="1.0" encoding="UTF-8" standalone="no"?>
<!-- Generator: Adobe Illustrator 26.1.0, SVG Export Plug-In . SVG Version: 6.00 Build 0)  -->

<svg
   xmlns:dc="http://purl.org/dc/elements/1.1/"
   xmlns:cc="http://creativecommons.org/ns#"
   xmlns:rdf="http://www.w3.org/1999/02/22-rdf-syntax-ns#"
   xmlns:svg="http://www.w3.org/2000/svg"
   xmlns="http://www.w3.org/2000/svg"
   xmlns:sodipodi="http://sodipodi.sourceforge.net/DTD/sodipodi-0.dtd"
   xmlns:inkscape="http://www.inkscape.org/namespaces/inkscape"
   version="1.1"
   id="Layer_1"
   x="0px"
   y="0px"
   viewBox="0 0 283 241.10001"
   xml:space="preserve"
   sodipodi:docname="regelum_r_i.svg"
   width="283"
   height="241.10001"
   inkscape:version="0.92.5 (2060ec1f9f, 2020-04-08)"><metadata
   id="metadata45"><rdf:RDF><cc:Work
       rdf:about=""><dc:format>image/svg+xml</dc:format><dc:type
         rdf:resource="http://purl.org/dc/dcmitype/StillImage" /><dc:title></dc:title></cc:Work></rdf:RDF></metadata><defs
   id="defs43" /><sodipodi:namedview
   pagecolor="#ffffff"
   bordercolor="#666666"
   borderopacity="1"
   objecttolerance="10"
   gridtolerance="10"
   guidetolerance="10"
   inkscape:pageopacity="0"
   inkscape:pageshadow="2"
   inkscape:window-width="3952"
   inkscape:window-height="2176"
   id="namedview41"
   showgrid="false"
   fit-margin-top="0"
   fit-margin-left="0"
   fit-margin-right="0"
   fit-margin-bottom="0"
   inkscape:zoom="1.3037281"
   inkscape:cx="839.05463"
   inkscape:cy="182.1232"
   inkscape:window-x="144"
   inkscape:window-y="54"
   inkscape:window-maximized="1"
   inkscape:current-layer="g22" />
<style
   type="text/css"
   id="style2">
	.st0{fill:#4D2974;}
	.st1{fill:#94C765;}
</style>
<g
   id="g22"
   transform="translate(-139.9,-398.8)">
	<path
   class="st0"
   d="m 233.9,478.3 c 0,9.3 0.4,18.3 1,26.9 -17.1,-1.9 -32.8,-5.9 -46,-11.3 v -31.3 c 13.2,-5.4 28.8,-9.4 46,-11.3 -0.7,8.7 -1,17.8 -1,27 z"
   id="path4"
   style="fill:#ffffff"
   inkscape:connector-curvature="0" />
	<path
   class="st0"
   d="m 283,505.4 c 0.7,-8.7 1,-17.8 1,-27.1 0,-9.3 -0.4,-18.4 -1,-27.1 31.5,3.4 58,13.4 73.7,27.1 C 341,492 314.4,502 283,505.4 Z"
   id="path6"
   style="fill:#ffffff"
   inkscape:connector-curvature="0" />
	<path
   class="st0"
   d="m 244.7,557.5 c -10,-0.7 -19.8,-2 -29.4,-3.9 v 55.2 h -26.4 v -90.2 c 15.3,6 31.8,10 49,11.9 1.8,10.3 4.1,19.5 6.8,27 z"
   id="path8"
   style="fill:#ffffff"
   inkscape:connector-curvature="0" />
	<path
   class="st0"
   d="m 347.9,608.8 h -28.1 l -20,-54.4 c -8.8,1.6 -17.7,2.7 -26.8,3.2 2.8,-7.5 5,-16.7 6.8,-27 12.7,-1.3 25.1,-3.8 36.9,-7.3 l 9,24.7 c -0.1,0 -0.1,0 -0.2,0 z"
   id="path10"
   style="fill:#ffffff"
   inkscape:connector-curvature="0" />
	<polygon
   class="st0"
   points="359.3,639.9 359,638.9 "
   id="polygon12"
   style="fill:#4d2974" />
	<path
   class="st0"
   d="m 244.7,399.1 c -2.7,7.5 -5,16.7 -6.8,27 -26.2,2.8 -50.8,10.7 -71.7,22.7 v 160 H 139.9 V 434.4 c 0.3,-0.2 0.6,-0.4 0.9,-0.6 29,-19.8 65.4,-32.2 103.9,-34.7 z"
   id="path14"
   style="fill:#ffffff"
   inkscape:connector-curvature="0" />
	<path
   class="st0"
   d="m 422.9,478.3 -5.8,7.8 c -12.2,16.6 -28.4,30.8 -47.1,42.2 l 29.5,80.5 h -28 l -25,-68.5 -0.8,-2.2 -8.2,-22.5 c 20.6,-9.1 38.5,-21.8 52.1,-37.3 -25.2,-28.8 -65.3,-47.9 -109.7,-52.4 -1.8,-10.3 -4,-19.4 -6.8,-27 59.3,3.5 113.6,30.3 144,71.5 z"
   id="path16"
   style="fill:#ffffff"
   inkscape:connector-curvature="0" />
	<path
   class="st1"
   d="m 271,478.3 c 0,1.2 0,2.4 0,3.6 0,0.9 0,1.8 0,2.7 0,1 0,2 -0.1,3 0,0.6 0,1.2 0,1.7 0,0.8 0,1.6 -0.1,2.4 0,0.7 0,1.5 -0.1,2.2 0,0.8 -0.1,1.5 -0.1,2.3 0,1 -0.1,2 -0.2,3 0,0.2 0,0.5 0,0.7 -0.1,2 -0.3,3.9 -0.4,5.9 0,0.2 0,0.4 0,0.6 -0.1,1.1 -0.2,2.3 -0.3,3.4 -0.1,1.1 -0.2,2.2 -0.3,3.3 -0.1,0.7 -0.1,1.4 -0.2,2.1 -0.1,0.6 -0.1,1.3 -0.2,1.9 -0.1,0.9 -0.2,1.8 -0.3,2.7 -0.1,1 -0.3,1.9 -0.4,2.9 -0.1,0.8 -0.2,1.6 -0.3,2.3 -0.1,0.4 -0.1,0.8 -0.2,1.3 l -0.2,1.3 c -0.1,0.7 -0.2,1.3 -0.3,2 -1,5.5 -2.1,10.6 -3.3,15.2 -0.1,0.6 -0.3,1.1 -0.5,1.6 -0.2,0.6 -0.4,1.3 -0.6,1.9 -0.1,0.5 -0.3,0.9 -0.4,1.4 -0.3,1.1 -0.7,2.1 -1.1,3.1 -0.2,0.5 -0.3,0.9 -0.5,1.3 -0.5,1.4 -1.1,2.8 -1.7,4 -1.5,-3.2 -2.8,-7 -4.1,-11.3 -0.2,-0.7 -0.4,-1.3 -0.6,-2 -1.2,-4.5 -2.3,-9.5 -3.3,-14.9 -0.1,-0.8 -0.3,-1.5 -0.4,-2.3 -0.6,-3.3 -1.1,-6.8 -1.5,-10.5 -0.1,-0.8 -0.2,-1.6 -0.3,-2.4 -0.2,-1.7 -0.4,-3.4 -0.5,-5.1 -0.1,-0.8 -0.2,-1.7 -0.2,-2.5 -0.2,-2.4 -0.4,-4.9 -0.5,-7.4 -0.1,-1 -0.1,-2.1 -0.2,-3.2 0,-0.8 -0.1,-1.7 -0.1,-2.5 0,-0.7 -0.1,-1.4 -0.1,-2.1 0,-0.9 -0.1,-1.8 -0.1,-2.7 0,-0.5 0,-1.1 -0.1,-1.7 0,-0.9 0,-1.9 -0.1,-2.8 0,-0.9 0,-1.8 0,-2.7 0,-1.2 0,-2.4 0,-3.6 0,-1.3 0,-2.7 0,-4 0,-1.9 0.1,-3.8 0.1,-5.7 0,-1.6 0.1,-3.2 0.2,-4.8 0.1,-2.3 0.2,-4.5 0.3,-6.7 0.2,-3.6 0.5,-7 0.8,-10.4 0.2,-1.7 0.3,-3.4 0.5,-5.1 0,-0.5 0.1,-0.9 0.2,-1.4 0.1,-1.1 0.3,-2.3 0.4,-3.4 0.1,-0.9 0.2,-1.8 0.4,-2.7 0,0 0,-0.1 0,-0.1 0.3,-2 0.6,-4 0.9,-5.9 0.2,-1 0.3,-1.9 0.5,-2.9 2,-10.8 4.6,-19.9 7.6,-26.5 3,6.7 5.6,15.7 7.6,26.5 0.2,0.9 0.3,1.9 0.5,2.9 0.3,1.7 0.6,3.5 0.8,5.3 0,0.2 0.1,0.5 0.1,0.7 0.3,2 0.6,4.2 0.8,6.3 0.4,3.1 0.7,6.3 1,9.6 0.2,2.3 0.4,4.7 0.5,7.1 0.1,2.2 0.2,4.5 0.3,6.8 0.1,1.6 0.1,3.2 0.2,4.8 0.1,1.9 0.1,3.9 0.1,5.8 0.1,1.1 0.1,2.4 0.1,3.7 z"
   id="path18"
   style="fill:#ffffff"
   inkscape:connector-curvature="0" />
	<path
   class="st1"
   d="m 269.8,449.9 c -0.3,-3.3 -0.6,-6.5 -1,-9.6 0.4,3.1 0.7,6.3 1,9.6 z"
   id="path20"
   inkscape:connector-curvature="0"
   style="fill:#94c765" />
</g>

</svg>